Garima.ufo
<glyph name="uni1201" format="2">
  <advance width="872"/>
  <unicode hex="1201"/>
  <outline>
    <contour>
      <point x="705" y="312" type="curve"/>
      <point x="678" y="331" type="line"/>
      <point x="678" y="262"/>
      <point x="689" y="226"/>
      <point x="732" y="226" type="curve" smooth="yes"/>
      <point x="759" y="226"/>
      <point x="777" y="234"/>
      <point x="787" y="244" type="curve"/>
      <point x="771" y="273"/>
      <point x="765" y="338"/>
      <point x="779" y="386" type="curve"/>
      <point x="767" y="393"/>
      <point x="749" y="397"/>
      <point x="728" y="397" type="curve" smooth="yes"/>
      <point x="703" y="397"/>
      <point x="681" y="381"/>
      <point x="679" y="338" type="curve"/>
      <point x="698" y="365" type="line"/>
      <point x="627" y="345"/>
      <point x="590" y="335"/>
      <point x="525" y="321" type="curve"/>
      <point x="519" y="274" type="line"/>
      <point x="572" y="288"/>
      <point x="641" y="304"/>
    </contour>
    <contour>
      <point x="435" y="77" type="curve" smooth="yes"/>
      <point x="454" y="77"/>
      <point x="473" y="83"/>
      <point x="492" y="134" type="curve" smooth="yes"/>
      <point x="563" y="328"/>
      <point x="634" y="494"/>
      <point x="634" y="552" type="curve" smooth="yes"/>
      <point x="634" y="589"/>
      <point x="613" y="611"/>
      <point x="569" y="611" type="curve" smooth="yes"/>
      <point x="537" y="611"/>
      <point x="512" y="596"/>
      <point x="507" y="560" type="curve"/>
      <point x="519" y="554"/>
      <point x="535" y="544"/>
      <point x="535" y="517" type="curve" smooth="yes"/>
      <point x="535" y="452"/>
      <point x="453" y="211"/>
      <point x="400" y="152" type="curve" smooth="yes"/>
      <point x="367" y="115"/>
      <point x="327" y="99"/>
      <point x="281" y="99" type="curve" smooth="yes"/>
      <point x="230" y="99"/>
      <point x="200" y="127"/>
      <point x="200" y="196" type="curve" smooth="yes"/>
      <point x="200" y="259"/>
      <point x="229" y="392"/>
      <point x="261" y="514" type="curve"/>
      <point x="277" y="520"/>
      <point x="286" y="530"/>
      <point x="286" y="547" type="curve" smooth="yes"/>
      <point x="286" y="582"/>
      <point x="232" y="609"/>
      <point x="185" y="609" type="curve" smooth="yes"/>
      <point x="145" y="609"/>
      <point x="133" y="584"/>
      <point x="139" y="565" type="curve"/>
      <point x="163" y="557"/>
      <point x="175" y="547"/>
      <point x="175" y="522" type="curve" smooth="yes"/>
      <point x="175" y="464"/>
      <point x="114" y="262"/>
      <point x="114" y="176" type="curve" smooth="yes"/>
      <point x="114" y="73"/>
      <point x="168" y="32"/>
      <point x="256" y="32" type="curve" smooth="yes"/>
      <point x="334" y="32"/>
      <point x="387" y="60"/>
      <point x="428" y="96" type="curve"/>
      <point x="375" y="103" type="line"/>
      <point x="406" y="81"/>
      <point x="417" y="77"/>
    </contour>
  </outline>
</glyph>
<glyph name="uni1203" format="2">
  <advance width="658"/>
  <unicode hex="1203"/>
  <outline>
    <contour>
      <point x="354" y="31" type="curve" smooth="yes"/>
      <point x="354" y="13"/>
      <point x="369" y="-2"/>
      <point x="396" y="-2" type="curve" smooth="yes"/>
      <point x="423" y="-2"/>
      <point x="452" y="8"/>
      <point x="464" y="23" type="curve"/>
      <point x="439" y="106"/>
      <point x="563" y="482"/>
      <point x="563" y="587" type="curve" smooth="yes"/>
      <point x="563" y="619"/>
      <point x="541" y="637"/>
      <point x="510" y="637" type="curve" smooth="yes"/>
      <point x="478" y="637"/>
      <point x="452" y="622"/>
      <point x="446" y="592" type="curve"/>
      <point x="458" y="581"/>
      <point x="467" y="557"/>
      <point x="467" y="526" type="curve" smooth="yes"/>
      <point x="467" y="485"/>
      <point x="451" y="423"/>
      <point x="398" y="370" type="curve" smooth="yes"/>
      <point x="366" y="338"/>
      <point x="311" y="316"/>
      <point x="263" y="316" type="curve" smooth="yes"/>
      <point x="215" y="316"/>
      <point x="192" y="347"/>
      <point x="192" y="387" type="curve" smooth="yes"/>
      <point x="192" y="438"/>
      <point x="199" y="485"/>
      <point x="210" y="535" type="curve"/>
      <point x="222" y="541"/>
      <point x="234" y="552"/>
      <point x="234" y="566" type="curve" smooth="yes"/>
      <point x="234" y="604"/>
      <point x="174" y="634"/>
      <point x="136" y="634" type="curve" smooth="yes"/>
      <point x="93" y="634"/>
      <point x="82" y="607"/>
      <point x="88" y="587" type="curve"/>
      <point x="113" y="579"/>
      <point x="126" y="570"/>
      <point x="126" y="551" type="curve" smooth="yes"/>
      <point x="126" y="502"/>
      <point x="106" y="421"/>
      <point x="106" y="370" type="curve" smooth="yes"/>
      <point x="106" y="296"/>
      <point x="146" y="250"/>
      <point x="232" y="250" type="curve" smooth="yes"/>
      <point x="324" y="250"/>
      <point x="406" y="295"/>
      <point x="467" y="384" type="curve"/>
      <point x="453" y="410" type="line"/>
      <point x="382" y="116"/>
      <point x="354" y="73"/>
    </contour>
  </outline>
</glyph>
<glyph name="uni1204" format="2">
  <advance width="697"/>
  <unicode hex="1204"/>
  <outline>
    <contour>
      <point x="372" y="115" type="curve" smooth="yes"/>
      <point x="372" y="147"/>
      <point x="391" y="194"/>
      <point x="422" y="194" type="curve" smooth="yes"/>
      <point x="474" y="194"/>
      <point x="533" y="160"/>
      <point x="533" y="109" type="curve" smooth="yes"/>
      <point x="533" y="75"/>
      <point x="505" y="50"/>
      <point x="446" y="50" type="curve" smooth="yes"/>
      <point x="404" y="50"/>
      <point x="372" y="73"/>
    </contour>
    <contour>
      <point x="283" y="99" type="curve" smooth="yes"/>
      <point x="283" y="30"/>
      <point x="339" y="-11"/>
      <point x="436" y="-11" type="curve" smooth="yes"/>
      <point x="546" y="-11"/>
      <point x="616" y="55"/>
      <point x="616" y="120" type="curve" smooth="yes"/>
      <point x="616" y="180"/>
      <point x="530" y="256"/>
      <point x="364" y="245" type="curve"/>
      <point x="416" y="219" type="line"/>
      <point x="473" y="354"/>
      <point x="568" y="531"/>
      <point x="568" y="587" type="curve" smooth="yes"/>
      <point x="568" y="617"/>
      <point x="548" y="637"/>
      <point x="514" y="637" type="curve" smooth="yes"/>
      <point x="468" y="637"/>
      <point x="448" y="615"/>
      <point x="445" y="587" type="curve"/>
      <point x="457" y="581"/>
      <point x="463" y="572"/>
      <point x="463" y="553" type="curve" smooth="yes"/>
      <point x="463" y="519"/>
      <point x="436" y="441"/>
      <point x="410" y="412" type="curve" smooth="yes"/>
      <point x="364" y="361"/>
      <point x="310" y="329"/>
      <point x="251" y="329" type="curve" smooth="yes"/>
      <point x="210" y="329"/>
      <point x="191" y="347"/>
      <point x="191" y="387" type="curve" smooth="yes"/>
      <point x="191" y="438"/>
      <point x="198" y="485"/>
      <point x="209" y="535" type="curve"/>
      <point x="221" y="541"/>
      <point x="233" y="552"/>
      <point x="233" y="566" type="curve" smooth="yes"/>
      <point x="233" y="604"/>
      <point x="165" y="629"/>
      <point x="127" y="629" type="curve" smooth="yes"/>
      <point x="92" y="629"/>
      <point x="81" y="607"/>
      <point x="87" y="587" type="curve"/>
      <point x="112" y="579"/>
      <point x="125" y="570"/>
      <point x="125" y="551" type="curve" smooth="yes"/>
      <point x="125" y="502"/>
      <point x="105" y="421"/>
      <point x="105" y="370" type="curve" smooth="yes"/>
      <point x="105" y="301"/>
      <point x="139" y="263"/>
      <point x="194" y="263" type="curve" smooth="yes"/>
      <point x="251" y="263"/>
      <point x="326" y="285"/>
      <point x="406" y="348" type="curve"/>
      <point x="395" y="357" type="line"/>
      <point x="331" y="230"/>
      <point x="283" y="147"/>
    </contour>
  </outline>
</glyph>
<glyph name="uni1206" format="2">
  <advance width="937"/>
  <unicode hex="1206"/>
  <outline>
    <contour>
      <point x="702" y="571" type="curve" smooth="yes"/>
      <point x="750" y="571"/>
      <point x="782" y="553"/>
      <point x="782" y="507" type="curve" smooth="yes"/>
      <point x="782" y="465"/>
      <point x="742" y="420"/>
      <point x="686" y="420" type="curve" smooth="yes"/>
      <point x="643" y="420"/>
      <point x="613" y="444"/>
      <point x="613" y="482" type="curve" smooth="yes"/>
      <point x="613" y="522"/>
      <point x="645" y="571"/>
    </contour>
    <contour>
      <point x="517" y="470" type="curve" smooth="yes"/>
      <point x="457" y="264"/>
      <point x="423" y="175"/>
      <point x="391" y="143" type="curve" smooth="yes"/>
      <point x="365" y="117"/>
      <point x="327" y="99"/>
      <point x="281" y="99" type="curve" smooth="yes"/>
      <point x="230" y="99"/>
      <point x="200" y="127"/>
      <point x="200" y="196" type="curve" smooth="yes"/>
      <point x="200" y="259"/>
      <point x="229" y="392"/>
      <point x="261" y="514" type="curve"/>
      <point x="277" y="520"/>
      <point x="286" y="530"/>
      <point x="286" y="547" type="curve" smooth="yes"/>
      <point x="286" y="582"/>
      <point x="232" y="609"/>
      <point x="185" y="609" type="curve" smooth="yes"/>
      <point x="145" y="609"/>
      <point x="133" y="584"/>
      <point x="139" y="565" type="curve"/>
      <point x="163" y="557"/>
      <point x="175" y="547"/>
      <point x="175" y="522" type="curve" smooth="yes"/>
      <point x="175" y="464"/>
      <point x="114" y="262"/>
      <point x="114" y="176" type="curve" smooth="yes"/>
      <point x="114" y="73"/>
      <point x="168" y="32"/>
      <point x="256" y="32" type="curve" smooth="yes"/>
      <point x="334" y="32"/>
      <point x="387" y="60"/>
      <point x="428" y="96" type="curve"/>
      <point x="375" y="103" type="line"/>
      <point x="406" y="81"/>
      <point x="417" y="77"/>
      <point x="435" y="77" type="curve" smooth="yes"/>
      <point x="454" y="77"/>
      <point x="473" y="83"/>
      <point x="492" y="134" type="curve"/>
      <point x="545" y="267"/>
      <point x="585" y="404"/>
      <point x="602" y="464" type="curve"/>
      <point x="578" y="407" type="line"/>
      <point x="592" y="382"/>
      <point x="644" y="360"/>
      <point x="692" y="360" type="curve" smooth="yes"/>
      <point x="794" y="360"/>
      <point x="866" y="433"/>
      <point x="866" y="514" type="curve" smooth="yes"/>
      <point x="866" y="586"/>
      <point x="807" y="640"/>
      <point x="715" y="640" type="curve" smooth="yes"/>
      <point x="605" y="640"/>
      <point x="549" y="580"/>
    </contour>
  </outline>
</glyph>
<glyph name="uni1208" format="2">
  <advance width="784"/>
  <unicode hex="1208"/>
  <outline>
    <contour>
      <point x="395" y="531" type="curve"/>
      <point x="407" y="535"/>
      <point x="435" y="542"/>
      <point x="459" y="533" type="curve"/>
      <point x="421" y="572" type="line"/>
      <point x="200" y="495"/>
      <point x="91" y="288"/>
      <point x="91" y="48" type="curve" smooth="yes"/>
      <point x="91" y="10"/>
      <point x="114" y="-5"/>
      <point x="140" y="-5" type="curve" smooth="yes"/>
      <point x="163" y="-5"/>
      <point x="184" y="1"/>
      <point x="197" y="14" type="curve"/>
      <point x="193" y="24"/>
      <point x="189" y="49"/>
      <point x="189" y="68" type="curve" smooth="yes"/>
      <point x="189" y="359"/>
      <point x="342" y="518"/>
      <point x="470" y="518" type="curve" smooth="yes"/>
      <point x="511" y="518"/>
      <point x="575" y="464"/>
      <point x="575" y="369" type="curve" smooth="yes"/>
      <point x="575" y="276"/>
      <point x="544" y="136"/>
      <point x="544" y="46" type="curve" smooth="yes"/>
      <point x="544" y="11"/>
      <point x="564" y="-7"/>
      <point x="596" y="-7" type="curve" smooth="yes"/>
      <point x="618" y="-7"/>
      <point x="641" y="6"/>
      <point x="651" y="22" type="curve"/>
      <point x="617" y="104"/>
      <point x="663" y="275"/>
      <point x="663" y="379" type="curve" smooth="yes"/>
      <point x="663" y="531"/>
      <point x="531" y="607"/>
      <point x="440" y="607" type="curve" smooth="yes"/>
      <point x="397" y="607"/>
      <point x="383" y="589"/>
      <point x="383" y="563" type="curve" smooth="yes"/>
      <point x="383" y="553"/>
      <point x="387" y="539"/>
    </contour>
  </outline>
</glyph>
<glyph name="uni1209" format="2">
  <advance width="933"/>
  <unicode hex="1209"/>
  <outline>
    <contour>
      <point x="395" y="531" type="curve"/>
      <point x="407" y="535"/>
      <point x="435" y="542"/>
      <point x="459" y="533" type="curve"/>
      <point x="421" y="572" type="line"/>
      <point x="200" y="495"/>
      <point x="91" y="288"/>
      <point x="91" y="48" type="curve" smooth="yes"/>
      <point x="91" y="10"/>
      <point x="114" y="-5"/>
      <point x="140" y="-5" type="curve" smooth="yes"/>
      <point x="163" y="-5"/>
      <point x="185" y="1"/>
      <point x="198" y="14" type="curve"/>
      <point x="194" y="24"/>
      <point x="190" y="49"/>
      <point x="190" y="68" type="curve" smooth="yes"/>
      <point x="190" y="359"/>
      <point x="342" y="518"/>
      <point x="470" y="518" type="curve" smooth="yes"/>
      <point x="511" y="518"/>
      <point x="573" y="464"/>
      <point x="573" y="369" type="curve" smooth="yes"/>
      <point x="573" y="276"/>
      <point x="544" y="136"/>
      <point x="544" y="46" type="curve" smooth="yes"/>
      <point x="544" y="11"/>
      <point x="564" y="-7"/>
      <point x="596" y="-7" type="curve" smooth="yes"/>
      <point x="618" y="-7"/>
      <point x="641" y="6"/>
      <point x="651" y="22" type="curve"/>
      <point x="617" y="104"/>
      <point x="663" y="275"/>
      <point x="663" y="379" type="curve" smooth="yes"/>
      <point x="663" y="531"/>
      <point x="531" y="607"/>
      <point x="440" y="607" type="curve" smooth="yes"/>
      <point x="397" y="607"/>
      <point x="383" y="589"/>
      <point x="383" y="563" type="curve" smooth="yes"/>
      <point x="383" y="553"/>
      <point x="387" y="539"/>
    </contour>
    <contour>
      <point x="799" y="317" type="curve"/>
      <point x="772" y="336" type="line"/>
      <point x="772" y="267"/>
      <point x="783" y="231"/>
      <point x="826" y="231" type="curve" smooth="yes"/>
      <point x="853" y="231"/>
      <point x="871" y="239"/>
      <point x="881" y="249" type="curve"/>
      <point x="865" y="278"/>
      <point x="859" y="343"/>
      <point x="873" y="391" type="curve"/>
      <point x="861" y="398"/>
      <point x="843" y="402"/>
      <point x="822" y="402" type="curve" smooth="yes"/>
      <point x="797" y="402"/>
      <point x="775" y="386"/>
      <point x="773" y="343" type="curve"/>
      <point x="792" y="370" type="line"/>
      <point x="721.0" y="364"/>
      <point x="684.0" y="360"/>
      <point x="619" y="356" type="curve"/>
      <point x="613" y="309" type="line"/>
      <point x="666.0" y="312"/>
      <point x="735.0" y="315"/>
    </contour>
  </outline>
</glyph>
<glyph name="uni120A" format="2">
  <advance width="951"/>
  <unicode hex="120A"/>
  <outline>
    <contour>
      <point x="624" y="80" type="curve" smooth="yes"/>
      <point x="624" y="169"/>
      <point x="663" y="296"/>
      <point x="663" y="379" type="curve" smooth="yes"/>
      <point x="663" y="531"/>
      <point x="531" y="607"/>
      <point x="440" y="607" type="curve" smooth="yes"/>
      <point x="397" y="607"/>
      <point x="383" y="589"/>
      <point x="383" y="563" type="curve" smooth="yes"/>
      <point x="383" y="553"/>
      <point x="387" y="539"/>
      <point x="395" y="531" type="curve"/>
      <point x="407" y="535"/>
      <point x="435" y="542"/>
      <point x="459" y="533" type="curve"/>
      <point x="421" y="572" type="line"/>
      <point x="200" y="495"/>
      <point x="91" y="288"/>
      <point x="91" y="48" type="curve" smooth="yes"/>
      <point x="91" y="10"/>
      <point x="114" y="-5"/>
      <point x="140" y="-5" type="curve" smooth="yes"/>
      <point x="163" y="-5"/>
      <point x="185" y="1"/>
      <point x="198" y="14" type="curve"/>
      <point x="194" y="24"/>
      <point x="190" y="49"/>
      <point x="190" y="68" type="curve" smooth="yes"/>
      <point x="190" y="359"/>
      <point x="342" y="518"/>
      <point x="470" y="518" type="curve" smooth="yes"/>
      <point x="511" y="518"/>
      <point x="573" y="464"/>
      <point x="573" y="369" type="curve" smooth="yes"/>
      <point x="573" y="276"/>
      <point x="525" y="136"/>
      <point x="525" y="64" type="curve" smooth="yes"/>
      <point x="525" y="12"/>
      <point x="559" y="-8"/>
      <point x="610" y="-8" type="curve" smooth="yes"/>
      <point x="631" y="-8"/>
      <point x="708" y="8"/>
      <point x="799" y="28" type="curve"/>
      <point x="784" y="51" type="line"/>
      <point x="783" y="-25"/>
      <point x="812" y="-49"/>
      <point x="867" y="-49" type="curve" smooth="yes"/>
      <point x="880" y="-49"/>
      <point x="898" y="-47"/>
      <point x="910" y="-43" type="curve"/>
      <point x="901" y="-19"/>
      <point x="897" y="24"/>
      <point x="900" y="51" type="curve"/>
      <point x="867" y="63"/>
      <point x="822" y="82"/>
      <point x="812" y="81" type="curve" smooth="yes"/>
      <point x="794" y="80"/>
      <point x="691" y="47"/>
      <point x="658" y="47" type="curve" smooth="yes"/>
      <point x="632" y="47"/>
      <point x="624" y="56"/>
    </contour>
  </outline>
</glyph>
<glyph name="uni120B" format="2">
  <advance width="701"/>
  <unicode hex="120B"/>
  <outline>
    <contour>
      <point x="312" y="531" type="curve"/>
      <point x="324" y="535"/>
      <point x="352" y="542"/>
      <point x="376" y="533" type="curve"/>
      <point x="338" y="572" type="line"/>
      <point x="167" y="527"/>
      <point x="78" y="395"/>
      <point x="78" y="246" type="curve" smooth="yes"/>
      <point x="78" y="208"/>
      <point x="101" y="193"/>
      <point x="127" y="193" type="curve" smooth="yes"/>
      <point x="150" y="193"/>
      <point x="172" y="199"/>
      <point x="185" y="212" type="curve"/>
      <point x="181" y="222"/>
      <point x="177" y="247"/>
      <point x="177" y="266" type="curve" smooth="yes"/>
      <point x="177" y="429"/>
      <point x="283" y="518"/>
      <point x="387" y="518" type="curve" smooth="yes"/>
      <point x="428" y="518"/>
      <point x="490" y="464"/>
      <point x="490" y="369" type="curve" smooth="yes"/>
      <point x="490" y="276"/>
      <point x="461" y="136"/>
      <point x="461" y="46" type="curve" smooth="yes"/>
      <point x="461" y="11"/>
      <point x="481" y="-7"/>
      <point x="513" y="-7" type="curve" smooth="yes"/>
      <point x="535" y="-7"/>
      <point x="558" y="6"/>
      <point x="568" y="22" type="curve"/>
      <point x="534" y="104"/>
      <point x="580" y="275"/>
      <point x="580" y="379" type="curve" smooth="yes"/>
      <point x="580" y="531"/>
      <point x="448" y="607"/>
      <point x="357" y="607" type="curve" smooth="yes"/>
      <point x="314" y="607"/>
      <point x="300" y="589"/>
      <point x="300" y="563" type="curve" smooth="yes"/>
      <point x="300" y="553"/>
      <point x="304" y="539"/>
    </contour>
  </outline>
</glyph>
<glyph name="uni120C" format="2">
  <advance width="897"/>
  <unicode hex="120C"/>
  <outline>
    <contour>
      <point x="704" y="202"/>
      <point x="749" y="161"/>
      <point x="749" y="119" type="curve" smooth="yes"/>
      <point x="749" y="82"/>
      <point x="730" y="48"/>
      <point x="680" y="48" type="curve" smooth="yes"/>
      <point x="642" y="48"/>
      <point x="606" y="67"/>
      <point x="606" y="118" type="curve" smooth="yes"/>
      <point x="606" y="164"/>
      <point x="613" y="202"/>
      <point x="657" y="202" type="curve" smooth="yes"/>
    </contour>
    <contour>
      <point x="556" y="369" type="curve" smooth="yes"/>
      <point x="556" y="291"/>
      <point x="528" y="181"/>
      <point x="528" y="105" type="curve" smooth="yes"/>
      <point x="528" y="20"/>
      <point x="606" y="-11"/>
      <point x="679" y="-11" type="curve" smooth="yes"/>
      <point x="776" y="-11"/>
      <point x="828" y="48"/>
      <point x="828" y="119" type="curve" smooth="yes"/>
      <point x="828" y="191"/>
      <point x="746" y="254"/>
      <point x="654" y="254" type="curve" smooth="yes"/>
      <point x="630" y="254"/>
      <point x="610" y="253"/>
      <point x="585" y="248" type="curve"/>
      <point x="616" y="213" type="line"/>
      <point x="626" y="283"/>
      <point x="634" y="330"/>
      <point x="634" y="379" type="curve" smooth="yes"/>
      <point x="634" y="531"/>
      <point x="502" y="607"/>
      <point x="411" y="607" type="curve" smooth="yes"/>
      <point x="368" y="607"/>
      <point x="354" y="589"/>
      <point x="354" y="563" type="curve" smooth="yes"/>
      <point x="354" y="553"/>
      <point x="358" y="539"/>
      <point x="366" y="531" type="curve"/>
      <point x="378" y="535"/>
      <point x="406" y="542"/>
      <point x="430" y="533" type="curve"/>
      <point x="392" y="570" type="line"/>
      <point x="196" y="494"/>
      <point x="92" y="288"/>
      <point x="92" y="48" type="curve" smooth="yes"/>
      <point x="92" y="10"/>
      <point x="115" y="-5"/>
      <point x="141" y="-5" type="curve" smooth="yes"/>
      <point x="157" y="-5"/>
      <point x="174" y="0"/>
      <point x="184" y="8" type="curve"/>
      <point x="180" y="18"/>
      <point x="176" y="43"/>
      <point x="176" y="62" type="curve" smooth="yes"/>
      <point x="176" y="353"/>
      <point x="326" y="524"/>
      <point x="441" y="524" type="curve" smooth="yes"/>
      <point x="482" y="524"/>
      <point x="556" y="464"/>
    </contour>
  </outline>
</glyph>
<glyph name="uni120D" format="2">
  <advance width="782"/>
  <unicode hex="120D"/>
  <outline>
    <contour>
      <point x="219" y="210" type="curve" smooth="yes"/>
      <point x="278" y="210"/>
      <point x="320" y="170"/>
      <point x="320" y="119" type="curve" smooth="yes"/>
      <point x="320" y="83"/>
      <point x="294" y="51"/>
      <point x="244" y="51" type="curve" smooth="yes"/>
      <point x="199" y="51"/>
      <point x="174" y="86"/>
      <point x="174" y="128" type="curve" smooth="yes"/>
      <point x="174" y="180"/>
      <point x="187" y="210"/>
    </contour>
    <contour>
      <point x="92" y="123" type="curve" smooth="yes"/>
      <point x="92" y="26"/>
      <point x="173" y="-11"/>
      <point x="242" y="-11" type="curve" smooth="yes"/>
      <point x="338" y="-11"/>
      <point x="399" y="54"/>
      <point x="399" y="128" type="curve" smooth="yes"/>
      <point x="399" y="218"/>
      <point x="287" y="281"/>
      <point x="157" y="248" type="curve"/>
      <point x="181" y="195" type="line"/>
      <point x="202" y="386"/>
      <point x="345" y="524"/>
      <point x="468" y="524" type="curve" smooth="yes"/>
      <point x="509" y="524"/>
      <point x="583" y="464"/>
      <point x="583" y="369" type="curve" smooth="yes"/>
      <point x="583" y="276"/>
      <point x="552" y="136"/>
      <point x="552" y="46" type="curve" smooth="yes"/>
      <point x="552" y="11"/>
      <point x="570" y="-7"/>
      <point x="599" y="-7" type="curve" smooth="yes"/>
      <point x="621" y="-7"/>
      <point x="636" y="1"/>
      <point x="649" y="13" type="curve"/>
      <point x="615" y="95"/>
      <point x="661" y="275"/>
      <point x="661" y="379" type="curve" smooth="yes"/>
      <point x="661" y="531"/>
      <point x="529" y="607"/>
      <point x="438" y="607" type="curve" smooth="yes"/>
      <point x="395" y="607"/>
      <point x="381" y="589"/>
      <point x="381" y="563" type="curve" smooth="yes"/>
      <point x="381" y="553"/>
      <point x="385" y="539"/>
      <point x="393" y="531" type="curve"/>
      <point x="405" y="535"/>
      <point x="433" y="542"/>
      <point x="457" y="533" type="curve"/>
      <point x="419" y="570" type="line"/>
      <point x="210" y="509"/>
      <point x="92" y="324"/>
    </contour>
  </outline>
</glyph>
<glyph name="uni120E" format="2">
  <advance width="1110"/>
  <unicode hex="120E"/>
  <outline>
    <contour>
      <point x="1040" y="441" type="curve" smooth="yes"/>
      <point x="1040" y="502"/>
      <point x="993" y="548"/>
      <point x="901" y="548" type="curve" smooth="yes"/>
      <point x="831" y="548"/>
      <point x="704" y="517"/>
      <point x="607" y="492" type="curve"/>
      <point x="628" y="441" type="line"/>
      <point x="650" y="447"/>
      <point x="672" y="453"/>
      <point x="722" y="465" type="curve"/>
      <point x="700" y="487" type="line"/>
      <point x="710" y="325"/>
      <point x="809" y="282"/>
      <point x="873" y="282" type="curve" smooth="yes"/>
      <point x="960" y="282"/>
      <point x="1040" y="353"/>
    </contour>
    <contour>
      <point x="881" y="490" type="curve" smooth="yes"/>
      <point x="933" y="490"/>
      <point x="954" y="468"/>
      <point x="954" y="433" type="curve" smooth="yes"/>
      <point x="954" y="381"/>
      <point x="914" y="343"/>
      <point x="875" y="343" type="curve" smooth="yes"/>
      <point x="828" y="343"/>
      <point x="784" y="393"/>
      <point x="784" y="444" type="curve" smooth="yes"/>
      <point x="784" y="471"/>
      <point x="822" y="490"/>
    </contour>
    <contour>
      <point x="395" y="531" type="curve"/>
      <point x="407" y="535"/>
      <point x="435" y="542"/>
      <point x="459" y="533" type="curve"/>
      <point x="421" y="572" type="line"/>
      <point x="200" y="495"/>
      <point x="91" y="288"/>
      <point x="91" y="48" type="curve" smooth="yes"/>
      <point x="91" y="10"/>
      <point x="114" y="-5"/>
      <point x="140" y="-5" type="curve" smooth="yes"/>
      <point x="163" y="-5"/>
      <point x="185" y="1"/>
      <point x="198" y="14" type="curve"/>
      <point x="194" y="24"/>
      <point x="190" y="49"/>
      <point x="190" y="68" type="curve" smooth="yes"/>
      <point x="190" y="359"/>
      <point x="342" y="518"/>
      <point x="470" y="518" type="curve" smooth="yes"/>
      <point x="511" y="518"/>
      <point x="573" y="464"/>
      <point x="573" y="369" type="curve" smooth="yes"/>
      <point x="573" y="276"/>
      <point x="544" y="136"/>
      <point x="544" y="46" type="curve" smooth="yes"/>
      <point x="544" y="11"/>
      <point x="564" y="-7"/>
      <point x="596" y="-7" type="curve" smooth="yes"/>
      <point x="618" y="-7"/>
      <point x="641" y="6"/>
      <point x="651" y="22" type="curve"/>
      <point x="617" y="104"/>
      <point x="663" y="275"/>
      <point x="663" y="379" type="curve" smooth="yes"/>
      <point x="663" y="531"/>
      <point x="531" y="607"/>
      <point x="440" y="607" type="curve" smooth="yes"/>
      <point x="397" y="607"/>
      <point x="383" y="589"/>
      <point x="383" y="563" type="curve" smooth="yes"/>
      <point x="383" y="553"/>
      <point x="387" y="539"/>
    </contour>
  </outline>
</glyph>
<glyph name="uni120F" format="2">
  <advance width="800"/>
  <unicode hex="120F"/>
  <outline>
    <contour>
      <point x="312" y="531" type="curve"/>
      <point x="324" y="535"/>
      <point x="352" y="542"/>
      <point x="376" y="533" type="curve"/>
      <point x="338" y="572" type="line"/>
      <point x="167" y="527"/>
      <point x="78" y="395"/>
      <point x="78" y="246" type="curve" smooth="yes"/>
      <point x="78" y="208"/>
      <point x="101" y="193"/>
      <point x="127" y="193" type="curve" smooth="yes"/>
      <point x="150" y="193"/>
      <point x="172" y="199"/>
      <point x="185" y="212" type="curve"/>
      <point x="181" y="222"/>
      <point x="177" y="247"/>
      <point x="177" y="266" type="curve" smooth="yes"/>
      <point x="177" y="429"/>
      <point x="283" y="518"/>
      <point x="387" y="518" type="curve" smooth="yes"/>
      <point x="428" y="518"/>
      <point x="490" y="464"/>
      <point x="490" y="369" type="curve" smooth="yes"/>
      <point x="490" y="276"/>
      <point x="461" y="136"/>
      <point x="461" y="46" type="curve" smooth="yes"/>
      <point x="461" y="11"/>
      <point x="481" y="3"/>
      <point x="513" y="3" type="curve" smooth="yes"/>
      <point x="535" y="3"/>
      <point x="558" y="6"/>
      <point x="568" y="22" type="curve"/>
      <point x="534" y="104"/>
      <point x="580" y="275"/>
      <point x="580" y="379" type="curve" smooth="yes"/>
      <point x="580" y="531"/>
      <point x="448" y="607"/>
      <point x="357" y="607" type="curve" smooth="yes"/>
      <point x="314" y="607"/>
      <point x="300" y="589"/>
      <point x="300" y="563" type="curve" smooth="yes"/>
      <point x="300" y="553"/>
      <point x="304" y="539"/>
    </contour>
    <contour>
      <point x="367" y="-16" type="curve"/>
      <point x="411" y="-12"/>
      <point x="581" y="3"/>
      <point x="653" y="8" type="curve"/>
      <point x="640" y="31" type="line"/>
      <point x="639" y="-45"/>
      <point x="666" y="-69"/>
      <point x="721" y="-69" type="curve" smooth="yes"/>
      <point x="734" y="-69"/>
      <point x="752" y="-67"/>
      <point x="764" y="-63" type="curve"/>
      <point x="755" y="-39"/>
      <point x="751" y="4"/>
      <point x="754" y="31" type="curve"/>
      <point x="721" y="43"/>
      <point x="676" y="57"/>
      <point x="666" y="57" type="curve" smooth="yes"/>
      <point x="639.0" y="57.0"/>
      <point x="418" y="34"/>
      <point x="350" y="28" type="curve"/>
      <point x="281" y="41"/>
      <point x="243.0" y="11"/>
      <point x="243.0" y="-51" type="curve" smooth="yes"/>
      <point x="243" y="-89"/>
      <point x="265" y="-104.0"/>
      <point x="297" y="-104.0" type="curve" smooth="yes"/>
      <point x="324.0" y="-104.0"/>
      <point x="346" y="-97"/>
      <point x="360" y="-90" type="curve"/>
      <point x="355" y="-68"/>
      <point x="357" y="-34"/>
    </contour>
  </outline>
</glyph>
<glyph name="uni1211" format="2">
  <advance width="1114"/>
  <unicode hex="1211"/>
  <outline>
    <contour>
      <point x="967" y="322" type="curve"/>
      <point x="940" y="341" type="line"/>
      <point x="940" y="272"/>
      <point x="951" y="236"/>
      <point x="994" y="236" type="curve" smooth="yes"/>
      <point x="1021" y="236"/>
      <point x="1039" y="244"/>
      <point x="1049" y="254" type="curve"/>
      <point x="1033" y="283"/>
      <point x="1027" y="348"/>
      <point x="1041" y="396" type="curve"/>
      <point x="1029" y="403"/>
      <point x="1011" y="407"/>
      <point x="990" y="407" type="curve" smooth="yes"/>
      <point x="965" y="407"/>
      <point x="943" y="391"/>
      <point x="941" y="348" type="curve"/>
      <point x="960" y="375" type="line"/>
      <point x="889" y="355"/>
      <point x="852" y="345"/>
      <point x="787" y="331" type="curve"/>
      <point x="781" y="284" type="line"/>
      <point x="834" y="298"/>
      <point x="903" y="314"/>
    </contour>
    <contour>
      <point x="222" y="410"/>
      <point x="76" y="167"/>
      <point x="76" y="37" type="curve" smooth="yes"/>
      <point x="76" y="10"/>
      <point x="91" y="-5"/>
      <point x="120" y="-5" type="curve" smooth="yes"/>
      <point x="139" y="-5"/>
      <point x="161" y="-2"/>
      <point x="175" y="3" type="curve"/>
      <point x="174" y="13"/>
      <point x="173" y="22"/>
      <point x="173" y="37" type="curve" smooth="yes"/>
      <point x="173" y="189"/>
      <point x="263" y="320"/>
      <point x="307" y="342" type="curve" smooth="yes"/>
      <point x="360" y="367"/>
      <point x="491" y="375"/>
      <point x="649" y="375" type="curve" smooth="yes"/>
      <point x="707" y="375"/>
      <point x="729" y="352"/>
      <point x="729" y="297" type="curve" smooth="yes"/>
      <point x="729" y="241"/>
      <point x="691" y="82"/>
      <point x="691" y="42" type="curve" smooth="yes"/>
      <point x="691" y="20"/>
      <point x="703" y="7"/>
      <point x="728" y="7" type="curve" smooth="yes"/>
      <point x="748" y="7"/>
      <point x="779" y="15"/>
      <point x="790" y="27" type="curve"/>
      <point x="773" y="114"/>
      <point x="812" y="294"/>
      <point x="812" y="326" type="curve" smooth="yes"/>
      <point x="812" y="407"/>
      <point x="763" y="433"/>
      <point x="679" y="433" type="curve" smooth="yes"/>
      <point x="583" y="433"/>
      <point x="441" y="420"/>
      <point x="302" y="400" type="curve"/>
      <point x="294" y="406"/>
      <point x="286" y="410"/>
      <point x="274" y="410" type="curve" smooth="yes"/>
    </contour>
    <contour>
      <point x="345" y="7" type="curve"/>
      <point x="391" y="11"/>
      <point x="463" y="10"/>
      <point x="493" y="3" type="curve"/>
      <point x="511" y="26"/>
      <point x="507" y="76"/>
      <point x="460" y="76" type="curve" smooth="yes"/>
      <point x="420" y="76"/>
      <point x="371" y="73"/>
      <point x="351" y="68" type="curve"/>
      <point x="332" y="58"/>
      <point x="328" y="23"/>
    </contour>
    <contour>
      <point x="481" y="49" type="line"/>
      <point x="497" y="230"/>
      <point x="597" y="484"/>
      <point x="617" y="536" type="curve"/>
      <point x="636" y="537"/>
      <point x="650" y="547"/>
      <point x="650" y="562" type="curve" smooth="yes"/>
      <point x="650" y="591"/>
      <point x="605" y="637"/>
      <point x="540" y="637" type="curve" smooth="yes"/>
      <point x="494" y="637"/>
      <point x="487" y="605"/>
      <point x="493" y="585" type="curve"/>
      <point x="519" y="577"/>
      <point x="529" y="568"/>
      <point x="529" y="549" type="curve" smooth="yes"/>
      <point x="529" y="473"/>
      <point x="387" y="124"/>
      <point x="381" y="39" type="curve"/>
    </contour>
  </outline>
</glyph>
<glyph name="uni1212" format="2">
  <advance width="1108"/>
  <unicode hex="1212"/>
  <outline>
    <contour>
      <point x="345" y="7" type="curve"/>
      <point x="391" y="11"/>
      <point x="463" y="10"/>
      <point x="493" y="3" type="curve"/>
      <point x="511" y="26"/>
      <point x="507" y="76"/>
      <point x="460" y="76" type="curve" smooth="yes"/>
      <point x="420" y="76"/>
      <point x="371" y="73"/>
      <point x="351" y="68" type="curve"/>
      <point x="332" y="58"/>
      <point x="328" y="23"/>
    </contour>
    <contour>
      <point x="481" y="49" type="line"/>
      <point x="497" y="230"/>
      <point x="597" y="484"/>
      <point x="617" y="536" type="curve"/>
      <point x="636" y="537"/>
      <point x="650" y="547"/>
      <point x="650" y="562" type="curve" smooth="yes"/>
      <point x="650" y="591"/>
      <point x="605" y="637"/>
      <point x="540" y="637" type="curve" smooth="yes"/>
      <point x="494" y="637"/>
      <point x="487" y="605"/>
      <point x="493" y="585" type="curve"/>
      <point x="519" y="577"/>
      <point x="529" y="568"/>
      <point x="529" y="549" type="curve" smooth="yes"/>
      <point x="529" y="473"/>
      <point x="387" y="124"/>
      <point x="381" y="39" type="curve"/>
    </contour>
    <contour>
      <point x="780" y="78" type="curve" smooth="yes"/>
      <point x="780" y="131"/>
      <point x="812" y="294"/>
      <point x="812" y="326" type="curve" smooth="yes"/>
      <point x="812" y="407"/>
      <point x="763" y="433"/>
      <point x="679" y="433" type="curve" smooth="yes"/>
      <point x="583" y="433"/>
      <point x="441" y="420"/>
      <point x="302" y="400" type="curve"/>
      <point x="294" y="406"/>
      <point x="286" y="410"/>
      <point x="274" y="410" type="curve" smooth="yes"/>
      <point x="222" y="410"/>
      <point x="76" y="167"/>
      <point x="76" y="37" type="curve" smooth="yes"/>
      <point x="76" y="10"/>
      <point x="91" y="-5"/>
      <point x="120" y="-5" type="curve" smooth="yes"/>
      <point x="139" y="-5"/>
      <point x="161" y="-2"/>
      <point x="175" y="3" type="curve"/>
      <point x="174" y="13"/>
      <point x="173" y="22"/>
      <point x="173" y="37" type="curve" smooth="yes"/>
      <point x="173" y="189"/>
      <point x="263" y="320"/>
      <point x="307" y="342" type="curve" smooth="yes"/>
      <point x="360" y="367"/>
      <point x="491" y="375"/>
      <point x="649" y="375" type="curve" smooth="yes"/>
      <point x="707" y="375"/>
      <point x="729" y="352"/>
      <point x="729" y="297" type="curve" smooth="yes"/>
      <point x="729" y="241"/>
      <point x="691" y="91"/>
      <point x="691" y="51" type="curve" smooth="yes"/>
      <point x="691" y="14"/>
      <point x="716" y="-8"/>
      <point x="758" y="-8" type="curve" smooth="yes"/>
      <point x="788" y="-8"/>
      <point x="865" y="8"/>
      <point x="956" y="28" type="curve"/>
      <point x="950" y="51" type="line"/>
      <point x="949" y="-25"/>
      <point x="969" y="-49"/>
      <point x="1024" y="-49" type="curve" smooth="yes"/>
      <point x="1037" y="-49"/>
      <point x="1055" y="-47"/>
      <point x="1067" y="-43" type="curve"/>
      <point x="1058" y="-19"/>
      <point x="1054" y="24"/>
      <point x="1057" y="51" type="curve"/>
      <point x="1024" y="63"/>
      <point x="979" y="74"/>
      <point x="969" y="74" type="curve" smooth="yes"/>
      <point x="939" y="74"/>
      <point x="852" y="47"/>
      <point x="819" y="47" type="curve" smooth="yes"/>
      <point x="793" y="47"/>
      <point x="780" y="54"/>
    </contour>
  </outline>
</glyph>
<glyph name="uni1213" format="2">
  <advance width="874"/>
  <unicode hex="1213"/>
  <outline>
    <contour>
      <point x="182" y="410"/>
      <point x="69" y="256"/>
      <point x="69" y="174" type="curve" smooth="yes"/>
      <point x="69" y="147"/>
      <point x="84" y="132"/>
      <point x="113" y="132" type="curve" smooth="yes"/>
      <point x="132" y="132"/>
      <point x="154" y="135"/>
      <point x="168" y="140" type="curve"/>
      <point x="167" y="150"/>
      <point x="166" y="159"/>
      <point x="166" y="169" type="curve" smooth="yes"/>
      <point x="166" y="243"/>
      <point x="226" y="327"/>
      <point x="255" y="342" type="curve" smooth="yes"/>
      <point x="310" y="368"/>
      <point x="446" y="375"/>
      <point x="610" y="375" type="curve" smooth="yes"/>
      <point x="668" y="375"/>
      <point x="690" y="352"/>
      <point x="690" y="297" type="curve" smooth="yes"/>
      <point x="690" y="241"/>
      <point x="652" y="82"/>
      <point x="652" y="42" type="curve" smooth="yes"/>
      <point x="652" y="20"/>
      <point x="664" y="7"/>
      <point x="689" y="7" type="curve" smooth="yes"/>
      <point x="709" y="7"/>
      <point x="740" y="15"/>
      <point x="751" y="27" type="curve"/>
      <point x="734" y="114"/>
      <point x="773" y="294"/>
      <point x="773" y="326" type="curve" smooth="yes"/>
      <point x="773" y="407"/>
      <point x="724" y="433"/>
      <point x="640" y="433" type="curve" smooth="yes"/>
      <point x="541" y="433"/>
      <point x="394" y="421"/>
      <point x="250" y="400" type="curve"/>
      <point x="242" y="406"/>
      <point x="234" y="410"/>
      <point x="222" y="410" type="curve" smooth="yes"/>
    </contour>
    <contour>
      <point x="468" y="169" type="curve"/>
      <point x="441" y="211"/>
      <point x="563" y="496"/>
      <point x="578" y="536" type="curve"/>
      <point x="597" y="537"/>
      <point x="611" y="547"/>
      <point x="611" y="562" type="curve" smooth="yes"/>
      <point x="611" y="591"/>
      <point x="566" y="637"/>
      <point x="501" y="637" type="curve" smooth="yes"/>
      <point x="455" y="637"/>
      <point x="448" y="605"/>
      <point x="454" y="585" type="curve"/>
      <point x="480" y="577"/>
      <point x="490" y="568"/>
      <point x="490" y="549" type="curve" smooth="yes"/>
      <point x="490" y="491"/>
      <point x="363" y="224"/>
      <point x="363" y="171" type="curve" smooth="yes"/>
      <point x="363" y="141"/>
      <point x="382" y="135"/>
      <point x="402" y="135" type="curve" smooth="yes"/>
      <point x="425" y="135"/>
      <point x="457" y="152"/>
    </contour>
  </outline>
</glyph>
<glyph name="uni1214" format="2">
  <advance width="1058"/>
  <unicode hex="1214"/>
  <outline>
    <contour>
      <point x="352" y="12" type="curve"/>
      <point x="398" y="16"/>
      <point x="461" y="15"/>
      <point x="491" y="8" type="curve"/>
      <point x="509" y="31"/>
      <point x="505" y="68"/>
      <point x="458" y="68" type="curve" smooth="yes"/>
      <point x="418" y="68"/>
      <point x="378" y="65"/>
      <point x="358" y="60" type="curve"/>
      <point x="347" y="50"/>
      <point x="345" y="23"/>
    </contour>
    <contour>
      <point x="479" y="49" type="line"/>
      <point x="495" y="230"/>
      <point x="595" y="484"/>
      <point x="615" y="536" type="curve"/>
      <point x="634" y="541"/>
      <point x="648" y="547"/>
      <point x="648" y="562" type="curve" smooth="yes"/>
      <point x="648" y="592"/>
      <point x="583" y="627"/>
      <point x="537" y="627" type="curve" smooth="yes"/>
      <point x="506" y="627"/>
      <point x="494" y="605"/>
      <point x="500" y="585" type="curve"/>
      <point x="526" y="577"/>
      <point x="536" y="568"/>
      <point x="536" y="549" type="curve" smooth="yes"/>
      <point x="536" y="473"/>
      <point x="394" y="124"/>
      <point x="388" y="39" type="curve"/>
    </contour>
    <contour>
      <point x="885" y="202"/>
      <point x="906" y="184"/>
      <point x="906" y="125" type="curve" smooth="yes"/>
      <point x="906" y="82"/>
      <point x="887" y="48"/>
      <point x="827" y="48" type="curve" smooth="yes"/>
      <point x="786" y="48"/>
      <point x="765" y="67"/>
      <point x="765" y="112" type="curve" smooth="yes"/>
      <point x="765" y="155"/>
      <point x="782" y="202"/>
      <point x="832" y="202" type="curve" smooth="yes"/>
    </contour>
    <contour>
      <point x="788" y="222" type="line"/>
      <point x="801" y="268"/>
      <point x="810" y="311"/>
      <point x="810" y="339" type="curve" smooth="yes"/>
      <point x="810" y="408"/>
      <point x="774" y="433"/>
      <point x="714" y="433" type="curve" smooth="yes"/>
      <point x="675" y="433"/>
      <point x="446" y="416"/>
      <point x="317" y="400" type="curve"/>
      <point x="309" y="406"/>
      <point x="301" y="410"/>
      <point x="289" y="410" type="curve" smooth="yes"/>
      <point x="237" y="410"/>
      <point x="74" y="167"/>
      <point x="74" y="37" type="curve" smooth="yes"/>
      <point x="74" y="10"/>
      <point x="89" y="-5"/>
      <point x="118" y="-5" type="curve" smooth="yes"/>
      <point x="137" y="-5"/>
      <point x="152" y="-2"/>
      <point x="166" y="3" type="curve"/>
      <point x="165" y="13"/>
      <point x="164" y="22"/>
      <point x="164" y="37" type="curve" smooth="yes"/>
      <point x="164" y="189"/>
      <point x="261" y="324"/>
      <point x="305" y="346" type="curve" smooth="yes"/>
      <point x="355" y="369"/>
      <point x="556" y="379"/>
      <point x="666" y="379" type="curve" smooth="yes"/>
      <point x="716" y="379"/>
      <point x="736" y="358"/>
      <point x="736" y="318" type="curve" smooth="yes"/>
      <point x="736" y="255"/>
      <point x="693" y="152"/>
      <point x="693" y="81" type="curve" smooth="yes"/>
      <point x="693" y="18"/>
      <point x="736" y="-11"/>
      <point x="812" y="-11" type="curve" smooth="yes"/>
      <point x="933" y="-11"/>
      <point x="985" y="48"/>
      <point x="985" y="133" type="curve" smooth="yes"/>
      <point x="985" y="226"/>
      <point x="929" y="254"/>
      <point x="848" y="254" type="curve" smooth="yes"/>
      <point x="810" y="254"/>
      <point x="767" y="245"/>
      <point x="742" y="234" type="curve"/>
    </contour>
  </outline>
</glyph>
<glyph name="uni1215" format="2">
  <advance width="898"/>
  <unicode hex="1215"/>
  <outline>
    <contour>
      <point x="577" y="438" type="curve" smooth="yes"/>
      <point x="577" y="465"/>
      <point x="555" y="476"/>
      <point x="528" y="476" type="curve" smooth="yes"/>
      <point x="505" y="476" type="line" smooth="yes"/>
      <point x="484" y="476"/>
      <point x="479" y="481"/>
      <point x="479" y="498" type="curve" smooth="yes"/>
      <point x="479" y="525"/>
      <point x="484" y="547"/>
      <point x="490" y="563" type="curve"/>
      <point x="510" y="574"/>
      <point x="527" y="586"/>
      <point x="527" y="602" type="curve" smooth="yes"/>
      <point x="527" y="629"/>
      <point x="453" y="660"/>
      <point x="406" y="660" type="curve" smooth="yes"/>
      <point x="378" y="660"/>
      <point x="366" y="636"/>
      <point x="372" y="618" type="curve"/>
      <point x="396" y="610"/>
      <point x="408" y="601"/>
      <point x="408" y="582" type="curve" smooth="yes"/>
      <point x="408" y="549"/>
      <point x="387" y="500"/>
      <point x="387" y="470" type="curve" smooth="yes"/>
      <point x="387" y="448"/>
      <point x="399" y="435"/>
      <point x="424" y="435" type="curve" smooth="yes"/>
      <point x="465" y="435" type="line" smooth="yes"/>
      <point x="480" y="435"/>
      <point x="485" y="428"/>
      <point x="485" y="415" type="curve" smooth="yes"/>
      <point x="485" y="394"/>
      <point x="373" y="94"/>
      <point x="369" y="39" type="curve"/>
      <point x="469" y="49" type="line"/>
      <point x="478" y="156"/>
      <point x="577" y="405"/>
    </contour>
    <contour>
      <point x="213" y="363"/>
      <point x="73" y="167"/>
      <point x="73" y="37" type="curve" smooth="yes"/>
      <point x="73" y="10"/>
      <point x="88" y="-5"/>
      <point x="117" y="-5" type="curve" smooth="yes"/>
      <point x="136" y="-5"/>
      <point x="158" y="-2"/>
      <point x="172" y="3" type="curve"/>
      <point x="171" y="13"/>
      <point x="170" y="22"/>
      <point x="170" y="37" type="curve" smooth="yes"/>
      <point x="170" y="189"/>
      <point x="254" y="273"/>
      <point x="298" y="295" type="curve" smooth="yes"/>
      <point x="351" y="320"/>
      <point x="482" y="328"/>
      <point x="640" y="328" type="curve" smooth="yes"/>
      <point x="698" y="328"/>
      <point x="720" y="305"/>
      <point x="720" y="250" type="curve" smooth="yes"/>
      <point x="720" y="194"/>
      <point x="688" y="82"/>
      <point x="688" y="42" type="curve" smooth="yes"/>
      <point x="688" y="20"/>
      <point x="700" y="7"/>
      <point x="725" y="7" type="curve" smooth="yes"/>
      <point x="745" y="7"/>
      <point x="776" y="15"/>
      <point x="787" y="27" type="curve"/>
      <point x="770" y="114"/>
      <point x="803" y="247"/>
      <point x="803" y="279" type="curve" smooth="yes"/>
      <point x="803" y="360"/>
      <point x="754" y="386"/>
      <point x="670" y="386" type="curve" smooth="yes"/>
      <point x="574" y="386"/>
      <point x="432" y="373"/>
      <point x="293" y="353" type="curve"/>
      <point x="285" y="359"/>
      <point x="277" y="363"/>
      <point x="265" y="363" type="curve" smooth="yes"/>
    </contour>
    <contour>
      <point x="333" y="7" type="curve"/>
      <point x="379" y="11"/>
      <point x="451" y="10"/>
      <point x="481" y="3" type="curve"/>
      <point x="499" y="26"/>
      <point x="495" y="76"/>
      <point x="448" y="76" type="curve" smooth="yes"/>
      <point x="408" y="76"/>
      <point x="359" y="73"/>
      <point x="339" y="68" type="curve"/>
      <point x="320" y="58"/>
      <point x="316" y="23"/>
    </contour>
  </outline>
</glyph>
<glyph name="uni1219" format="2">
  <advance width="1173"/>
  <unicode hex="1219"/>
  <outline>
    <contour>
      <point x="618" y="525" type="curve" smooth="yes"/>
      <point x="405" y="525"/>
      <point x="232" y="473"/>
      <point x="163" y="428" type="curve" smooth="yes"/>
      <point x="96" y="385"/>
      <point x="76" y="345"/>
      <point x="76" y="299" type="curve" smooth="yes"/>
      <point x="76" y="177"/>
      <point x="252" y="40"/>
      <point x="383" y="40" type="curve" smooth="yes"/>
      <point x="411" y="40"/>
      <point x="431" y="65"/>
      <point x="429" y="104" type="curve"/>
      <point x="401" y="107" type="line"/>
      <point x="462" y="228"/>
      <point x="495" y="336"/>
      <point x="538" y="410" type="curve"/>
      <point x="482" y="405" type="line"/>
      <point x="521" y="337"/>
      <point x="548" y="207"/>
      <point x="560" y="82" type="curve"/>
      <point x="579" y="73"/>
      <point x="618" y="77"/>
      <point x="634" y="88" type="curve" smooth="yes"/>
      <point x="643" y="94"/>
      <point x="648" y="104"/>
      <point x="633" y="153" type="curve"/>
      <point x="615" y="91" type="line"/>
      <point x="795" y="177"/>
      <point x="900" y="296"/>
      <point x="900" y="377" type="curve" smooth="yes"/>
      <point x="900" y="476"/>
      <point x="771" y="525"/>
    </contour>
    <contour>
      <point x="165" y="295" type="curve" smooth="yes"/>
      <point x="165" y="351"/>
      <point x="232" y="443"/>
      <point x="500" y="465" type="curve"/>
      <point x="478" y="482" type="line"/>
      <point x="424" y="351"/>
      <point x="378" y="227"/>
      <point x="341" y="161" type="curve" smooth="yes"/>
      <point x="332" y="145"/>
      <point x="324" y="138"/>
      <point x="316" y="138" type="curve" smooth="yes"/>
      <point x="277" y="138"/>
      <point x="165" y="223"/>
    </contour>
    <contour>
      <point x="572" y="438" type="curve" smooth="yes"/>
      <point x="572" y="460"/>
      <point x="586" y="472"/>
      <point x="623" y="472" type="curve" smooth="yes"/>
      <point x="715" y="472"/>
      <point x="806" y="423"/>
      <point x="806" y="361" type="curve" smooth="yes"/>
      <point x="806" y="319"/>
      <point x="748" y="223"/>
      <point x="603" y="172" type="curve"/>
      <point x="634" y="171" type="line"/>
      <point x="596" y="302"/>
      <point x="572" y="418"/>
    </contour>
    <contour>
      <point x="1038" y="342" type="curve"/>
      <point x="1011" y="361" type="line"/>
      <point x="1011" y="292"/>
      <point x="1022" y="256"/>
      <point x="1065" y="256" type="curve" smooth="yes"/>
      <point x="1092" y="256"/>
      <point x="1110" y="264"/>
      <point x="1120" y="274" type="curve"/>
      <point x="1104" y="303"/>
      <point x="1098" y="368"/>
      <point x="1112" y="416" type="curve"/>
      <point x="1100" y="423"/>
      <point x="1082" y="427"/>
      <point x="1061" y="427" type="curve" smooth="yes"/>
      <point x="1036" y="427"/>
      <point x="1014" y="411"/>
      <point x="1012" y="368" type="curve"/>
      <point x="1031" y="395" type="line"/>
      <point x="960.0" y="389"/>
      <point x="923.0" y="385"/>
      <point x="858" y="381" type="curve"/>
      <point x="852" y="334" type="line"/>
      <point x="905.0" y="337"/>
      <point x="974.0" y="340"/>
    </contour>
  </outline>
</glyph>
<glyph name="uni121D" format="2">
  <advance width="1038"/>
  <unicode hex="121D"/>
  <outline>
    <contour>
      <point x="209" y="280" type="line"/>
      <point x="131" y="195"/>
      <point x="81" y="93"/>
      <point x="81" y="38" type="curve" smooth="yes"/>
      <point x="81" y="-9"/>
      <point x="135" y="-22"/>
      <point x="189" y="9" type="curve"/>
      <point x="186" y="19"/>
      <point x="184" y="30"/>
      <point x="184" y="53" type="curve" smooth="yes"/>
      <point x="184" y="103"/>
      <point x="202" y="175"/>
      <point x="252" y="242" type="curve"/>
    </contour>
    <contour>
      <point x="684" y="635" type="curve" smooth="yes"/>
      <point x="471" y="635"/>
      <point x="298" y="583"/>
      <point x="229" y="538" type="curve" smooth="yes"/>
      <point x="162" y="495"/>
      <point x="142" y="455"/>
      <point x="142" y="409" type="curve" smooth="yes"/>
      <point x="142" y="287"/>
      <point x="318" y="150"/>
      <point x="449" y="150" type="curve" smooth="yes"/>
      <point x="477" y="150"/>
      <point x="497" y="175"/>
      <point x="495" y="214" type="curve"/>
      <point x="467" y="217" type="line"/>
      <point x="528" y="338"/>
      <point x="561" y="446"/>
      <point x="604" y="520" type="curve"/>
      <point x="548" y="515" type="line"/>
      <point x="587" y="447"/>
      <point x="614" y="317"/>
      <point x="626" y="192" type="curve"/>
      <point x="645" y="183"/>
      <point x="684" y="187"/>
      <point x="700" y="198" type="curve" smooth="yes"/>
      <point x="709" y="204"/>
      <point x="714" y="214"/>
      <point x="699" y="263" type="curve"/>
      <point x="681" y="201" type="line"/>
      <point x="861" y="287"/>
      <point x="966" y="406"/>
      <point x="966" y="487" type="curve" smooth="yes"/>
      <point x="966" y="586"/>
      <point x="837" y="635"/>
    </contour>
    <contour>
      <point x="231" y="405" type="curve" smooth="yes"/>
      <point x="231" y="461"/>
      <point x="298" y="553"/>
      <point x="566" y="575" type="curve"/>
      <point x="544" y="592" type="line"/>
      <point x="490" y="461"/>
      <point x="444" y="337"/>
      <point x="407" y="271" type="curve" smooth="yes"/>
      <point x="398" y="255"/>
      <point x="390" y="248"/>
      <point x="382" y="248" type="curve" smooth="yes"/>
      <point x="343" y="248"/>
      <point x="231" y="333"/>
    </contour>
    <contour>
      <point x="638" y="548" type="curve" smooth="yes"/>
      <point x="638" y="570"/>
      <point x="652" y="582"/>
      <point x="689" y="582" type="curve" smooth="yes"/>
      <point x="781" y="582"/>
      <point x="872" y="533"/>
      <point x="872" y="471" type="curve" smooth="yes"/>
      <point x="872" y="429"/>
      <point x="814" y="333"/>
      <point x="669" y="282" type="curve"/>
      <point x="700" y="281" type="line"/>
      <point x="662" y="412"/>
      <point x="638" y="528"/>
    </contour>
  </outline>
</glyph>
<glyph name="uni121E" format="2">
  <advance width="972"/>
  <unicode hex="121E"/>
  <outline>
    <contour>
      <point x="572" y="548" type="curve" smooth="yes"/>
      <point x="572" y="570"/>
      <point x="586" y="582"/>
      <point x="623" y="582" type="curve" smooth="yes"/>
      <point x="715" y="582"/>
      <point x="806" y="533"/>
      <point x="806" y="471" type="curve" smooth="yes"/>
      <point x="806" y="429"/>
      <point x="748" y="333"/>
      <point x="603" y="282" type="curve"/>
      <point x="634" y="281" type="line"/>
      <point x="596" y="412"/>
      <point x="572" y="528"/>
    </contour>
    <contour>
      <point x="350" y="243" type="line"/>
      <point x="302" y="243"/>
      <point x="165" y="331"/>
      <point x="165" y="405" type="curve" smooth="yes"/>
      <point x="165" y="461"/>
      <point x="232" y="553"/>
      <point x="500" y="575" type="curve"/>
      <point x="478" y="592" type="line"/>
      <point x="328" y="281"/>
      <point x="247" y="118"/>
      <point x="247" y="40" type="curve" smooth="yes"/>
      <point x="247" y="-7"/>
      <point x="303" y="-21"/>
      <point x="359" y="11" type="curve"/>
      <point x="356" y="21"/>
      <point x="354" y="32"/>
      <point x="354" y="55" type="curve" smooth="yes"/>
      <point x="354" y="103"/>
      <point x="373" y="166"/>
      <point x="402" y="240" type="curve" smooth="yes"/>
      <point x="462" y="394"/>
      <point x="495" y="446"/>
      <point x="538" y="520" type="curve"/>
      <point x="482" y="515" type="line"/>
      <point x="521" y="447"/>
      <point x="548" y="317"/>
      <point x="560" y="192" type="curve"/>
      <point x="579" y="183"/>
      <point x="618" y="187"/>
      <point x="634" y="198" type="curve" smooth="yes"/>
      <point x="643" y="204"/>
      <point x="648" y="214"/>
      <point x="633" y="263" type="curve"/>
      <point x="615" y="201" type="line"/>
      <point x="795" y="287"/>
      <point x="900" y="406"/>
      <point x="900" y="487" type="curve" smooth="yes"/>
      <point x="900" y="586"/>
      <point x="771" y="635"/>
      <point x="618" y="635" type="curve" smooth="yes"/>
      <point x="405" y="635"/>
      <point x="232" y="583"/>
      <point x="163" y="538" type="curve" smooth="yes"/>
      <point x="96" y="495"/>
      <point x="76" y="455"/>
      <point x="76" y="409" type="curve" smooth="yes"/>
      <point x="76" y="290"/>
      <point x="229" y="173"/>
      <point x="346" y="157" type="curve"/>
    </contour>
  </outline>
</glyph>
<glyph name="uni121F" format="2">
  <advance width="909"/>
  <unicode hex="121F"/>
  <outline>
    <contour>
      <point x="147" y="404" type="curve" smooth="yes"/>
      <point x="147" y="484"/>
      <point x="291" y="550"/>
      <point x="442" y="574" type="curve"/>
      <point x="373" y="406"/>
      <point x="310" y="280"/>
      <point x="288" y="280" type="curve" smooth="yes"/>
      <point x="239" y="280"/>
      <point x="147" y="324"/>
    </contour>
    <contour>
      <point x="757" y="492" type="curve" smooth="yes"/>
      <point x="757" y="460"/>
      <point x="686" y="388"/>
      <point x="612" y="299" type="curve"/>
      <point x="574" y="429"/>
      <point x="547" y="514"/>
      <point x="547" y="539" type="curve" smooth="yes"/>
      <point x="547" y="560"/>
      <point x="554" y="573"/>
      <point x="575" y="573" type="curve" smooth="yes"/>
      <point x="635" y="573"/>
      <point x="757" y="527"/>
    </contour>
    <contour>
      <point x="841" y="509" type="curve" smooth="yes"/>
      <point x="841" y="565"/>
      <point x="636" y="635"/>
      <point x="545" y="635" type="curve" smooth="yes"/>
      <point x="386" y="635"/>
      <point x="162" y="553"/>
      <point x="123" y="507" type="curve" smooth="yes"/>
      <point x="92" y="471"/>
      <point x="74" y="414"/>
      <point x="74" y="381" type="curve" smooth="yes"/>
      <point x="74" y="332"/>
      <point x="91" y="305"/>
      <point x="175" y="253" type="curve" smooth="yes"/>
      <point x="223" y="223"/>
      <point x="314" y="179"/>
      <point x="352" y="179" type="curve" smooth="yes"/>
      <point x="374" y="179"/>
      <point x="390" y="206"/>
      <point x="391" y="243" type="curve"/>
      <point x="368" y="249" type="line"/>
      <point x="429" y="370"/>
      <point x="460" y="450"/>
      <point x="503" y="524" type="curve"/>
      <point x="460" y="525" type="line"/>
      <point x="502" y="469"/>
      <point x="515" y="409"/>
      <point x="523" y="242" type="curve"/>
      <point x="539" y="237"/>
      <point x="560" y="240"/>
      <point x="579" y="247" type="curve"/>
      <point x="526" y="179"/>
      <point x="481" y="104"/>
      <point x="481" y="48" type="curve" smooth="yes"/>
      <point x="481" y="18"/>
      <point x="498" y="3"/>
      <point x="535" y="3" type="curve" smooth="yes"/>
      <point x="556" y="3"/>
      <point x="574" y="8"/>
      <point x="586" y="16" type="curve"/>
      <point x="575" y="27"/>
      <point x="571" y="48"/>
      <point x="571" y="61" type="curve" smooth="yes"/>
      <point x="571" y="207"/>
      <point x="841" y="430"/>
    </contour>
    <contour>
      <point x="398" y="-16" type="curve"/>
      <point x="442" y="-12"/>
      <point x="616" y="3"/>
      <point x="688" y="8" type="curve"/>
      <point x="682" y="31" type="line"/>
      <point x="681" y="-45"/>
      <point x="701" y="-69"/>
      <point x="756" y="-69" type="curve" smooth="yes"/>
      <point x="769" y="-69"/>
      <point x="787" y="-67"/>
      <point x="799" y="-63" type="curve"/>
      <point x="790" y="-39"/>
      <point x="786" y="4"/>
      <point x="789" y="31" type="curve"/>
      <point x="756" y="43"/>
      <point x="711" y="54"/>
      <point x="701" y="54" type="curve" smooth="yes"/>
      <point x="674" y="54"/>
      <point x="453" y="36"/>
      <point x="385" y="30" type="curve"/>
      <point x="320" y="38"/>
      <point x="284" y="1"/>
      <point x="284" y="-48" type="curve" smooth="yes"/>
      <point x="284" y="-78"/>
      <point x="305" y="-99"/>
      <point x="343" y="-99" type="curve" smooth="yes"/>
      <point x="354" y="-99"/>
      <point x="367" y="-97"/>
      <point x="381" y="-93" type="curve"/>
      <point x="377" y="-65"/>
      <point x="384" y="-30"/>
    </contour>
  </outline>
</glyph>
<glyph name="uni1220" format="2">
  <advance width="966"/>
  <unicode hex="1220"/>
  <outline>
    <contour>
      <point x="468" y="470" type="line"/>
      <point x="468" y="364"/>
      <point x="392" y="163"/>
      <point x="273" y="163" type="curve" smooth="yes"/>
      <point x="222" y="163"/>
      <point x="194" y="190"/>
      <point x="194" y="243" type="curve" smooth="yes"/>
      <point x="194" y="294"/>
      <point x="202" y="352"/>
      <point x="224" y="438" type="curve"/>
      <point x="238" y="446"/>
      <point x="251" y="457"/>
      <point x="251" y="472" type="curve" smooth="yes"/>
      <point x="251" y="501"/>
      <point x="202" y="536"/>
      <point x="148" y="536" type="curve" smooth="yes"/>
      <point x="106" y="536"/>
      <point x="100" y="513"/>
      <point x="100" y="488" type="curve"/>
      <point x="111" y="483"/>
      <point x="125" y="474"/>
      <point x="139" y="463" type="curve"/>
      <point x="139" y="406"/>
      <point x="108" y="277"/>
      <point x="108" y="216" type="curve" smooth="yes"/>
      <point x="108" y="139"/>
      <point x="150" y="105"/>
      <point x="250" y="105" type="curve" smooth="yes"/>
      <point x="333" y="105"/>
      <point x="450" y="156"/>
      <point x="519" y="303" type="curve" smooth="yes"/>
      <point x="547" y="363"/>
      <point x="570" y="443"/>
      <point x="570" y="494" type="curve" smooth="yes"/>
      <point x="570" y="527"/>
      <point x="544" y="544"/>
      <point x="513" y="544" type="curve" smooth="yes"/>
      <point x="486" y="544"/>
      <point x="469" y="532"/>
      <point x="461" y="520" type="curve"/>
      <point x="471" y="353"/>
      <point x="583" y="179"/>
      <point x="710" y="179" type="curve"/>
      <point x="693" y="214" type="line"/>
      <point x="687" y="202"/>
      <point x="676" y="192"/>
      <point x="669" y="186" type="curve"/>
      <point x="674" y="165"/>
      <point x="693" y="147"/>
      <point x="720" y="147" type="curve" smooth="yes"/>
      <point x="738" y="147"/>
      <point x="759" y="154"/>
      <point x="778" y="192" type="curve" smooth="yes"/>
      <point x="798" y="232"/>
      <point x="886" y="430"/>
      <point x="886" y="496" type="curve" smooth="yes"/>
      <point x="886" y="539"/>
      <point x="864" y="555"/>
      <point x="830" y="555" type="curve" smooth="yes"/>
      <point x="799" y="555"/>
      <point x="770" y="535"/>
      <point x="765" y="507" type="curve"/>
      <point x="779" y="500"/>
      <point x="787" y="480"/>
      <point x="786" y="450" type="curve" smooth="yes"/>
      <point x="783" y="384"/>
      <point x="739" y="252"/>
      <point x="681" y="252" type="curve" smooth="yes"/>
      <point x="635" y="252"/>
      <point x="549" y="319"/>
      <point x="526" y="469" type="curve"/>
    </contour>
  </outline>
</glyph>
<glyph name="uni1221" format="2">
  <advance width="1098"/>
  <unicode hex="1221"/>
  <outline>
    <contour>
      <point x="468" y="470" type="line"/>
      <point x="468" y="364"/>
      <point x="392" y="163"/>
      <point x="273" y="163" type="curve" smooth="yes"/>
      <point x="222" y="163"/>
      <point x="194" y="190"/>
      <point x="194" y="243" type="curve" smooth="yes"/>
      <point x="194" y="294"/>
      <point x="202" y="352"/>
      <point x="224" y="438" type="curve"/>
      <point x="238" y="446"/>
      <point x="251" y="457"/>
      <point x="251" y="472" type="curve" smooth="yes"/>
      <point x="251" y="501"/>
      <point x="202" y="536"/>
      <point x="148" y="536" type="curve" smooth="yes"/>
      <point x="106" y="536"/>
      <point x="100" y="513"/>
      <point x="100" y="488" type="curve"/>
      <point x="111" y="483"/>
      <point x="125" y="474"/>
      <point x="139" y="463" type="curve"/>
      <point x="139" y="406"/>
      <point x="108" y="277"/>
      <point x="108" y="216" type="curve" smooth="yes"/>
      <point x="108" y="139"/>
      <point x="150" y="105"/>
      <point x="250" y="105" type="curve" smooth="yes"/>
      <point x="333" y="105"/>
      <point x="450" y="156"/>
      <point x="519" y="303" type="curve" smooth="yes"/>
      <point x="547" y="363"/>
      <point x="570" y="443"/>
      <point x="570" y="494" type="curve" smooth="yes"/>
      <point x="570" y="527"/>
      <point x="544" y="544"/>
      <point x="513" y="544" type="curve" smooth="yes"/>
      <point x="486" y="544"/>
      <point x="469" y="532"/>
      <point x="461" y="520" type="curve"/>
      <point x="471" y="353"/>
      <point x="583" y="179"/>
      <point x="710" y="179" type="curve"/>
      <point x="693" y="214" type="line"/>
      <point x="669" y="203" type="line"/>
      <point x="677" y="186"/>
      <point x="698.6470588235294" y="173.0"/>
      <point x="732" y="173" type="curve" smooth="yes"/>
      <point x="750.0" y="173.0"/>
      <point x="771.0" y="180.0"/>
      <point x="790" y="218" type="curve" smooth="yes"/>
      <point x="808" y="254"/>
      <point x="886.0" y="435.64473684210526"/>
      <point x="886" y="496" type="curve" smooth="yes"/>
      <point x="886" y="539"/>
      <point x="864" y="555"/>
      <point x="830" y="555" type="curve" smooth="yes"/>
      <point x="799" y="555"/>
      <point x="770" y="535"/>
      <point x="765" y="507" type="curve"/>
      <point x="779" y="500"/>
      <point x="787" y="480"/>
      <point x="786" y="450" type="curve" smooth="yes"/>
      <point x="783" y="384"/>
      <point x="739" y="252"/>
      <point x="681" y="252" type="curve" smooth="yes"/>
      <point x="635" y="252"/>
      <point x="549" y="319"/>
      <point x="526" y="469" type="curve"/>
    </contour>
    <contour>
      <point x="751" y="183" type="line"/>
      <point x="798" y="195"/>
      <point x="892" y="210"/>
      <point x="935" y="216" type="curve"/>
      <point x="924" y="239" type="line"/>
      <point x="920" y="163"/>
      <point x="947" y="139"/>
      <point x="998" y="139" type="curve" smooth="yes"/>
      <point x="1011" y="139"/>
      <point x="1029" y="141"/>
      <point x="1041" y="145" type="curve"/>
      <point x="1032" y="169"/>
      <point x="1028" y="212"/>
      <point x="1031" y="239" type="curve"/>
      <point x="1000" y="250"/>
      <point x="957" y="268"/>
      <point x="948" y="268" type="curve" smooth="yes"/>
      <point x="922" y="268"/>
      <point x="795" y="242"/>
      <point x="750" y="230" type="curve"/>
    </contour>
  </outline>
</glyph>
<glyph name="uni1222" format="2">
  <advance width="1032"/>
  <unicode hex="1222"/>
  <outline>
    <contour>
      <point x="635" y="164"/>
      <point x="612" y="87"/>
      <point x="612" y="51" type="curve" smooth="yes"/>
      <point x="612" y="14"/>
      <point x="637" y="-8"/>
      <point x="679" y="-8" type="curve" smooth="yes"/>
      <point x="709" y="-8"/>
      <point x="786" y="8"/>
      <point x="877" y="28" type="curve"/>
      <point x="871" y="51" type="line"/>
      <point x="870" y="-25"/>
      <point x="890" y="-49"/>
      <point x="945" y="-49" type="curve" smooth="yes"/>
      <point x="958" y="-49"/>
      <point x="976" y="-47"/>
      <point x="988" y="-43" type="curve"/>
      <point x="979" y="-19"/>
      <point x="975" y="24"/>
      <point x="978" y="51" type="curve"/>
      <point x="945" y="63"/>
      <point x="900" y="74"/>
      <point x="890" y="74" type="curve" smooth="yes"/>
      <point x="860" y="74"/>
      <point x="784" y="47"/>
      <point x="751" y="47" type="curve" smooth="yes"/>
      <point x="725" y="47"/>
      <point x="712" y="54"/>
      <point x="712" y="78" type="curve" smooth="yes"/>
      <point x="712" y="112"/>
      <point x="742" y="195"/>
      <point x="778" y="272" type="curve" smooth="yes"/>
      <point x="797" y="313"/>
      <point x="886" y="510"/>
      <point x="886" y="576" type="curve" smooth="yes"/>
      <point x="886" y="619"/>
      <point x="864" y="635"/>
      <point x="830" y="635" type="curve" smooth="yes"/>
      <point x="799" y="635"/>
      <point x="770" y="615"/>
      <point x="765" y="587" type="curve"/>
      <point x="779" y="580"/>
      <point x="787" y="560"/>
      <point x="786" y="530" type="curve" smooth="yes"/>
      <point x="783" y="464"/>
      <point x="724" y="332"/>
      <point x="681" y="332" type="curve" smooth="yes"/>
      <point x="635" y="332"/>
      <point x="549" y="399"/>
      <point x="526" y="549" type="curve"/>
      <point x="468" y="550" type="line"/>
      <point x="468" y="444"/>
      <point x="392" y="243"/>
      <point x="273" y="243" type="curve" smooth="yes"/>
      <point x="222" y="243"/>
      <point x="194" y="270"/>
      <point x="194" y="323" type="curve" smooth="yes"/>
      <point x="194" y="374"/>
      <point x="202" y="432"/>
      <point x="224" y="518" type="curve"/>
      <point x="238" y="526"/>
      <point x="251" y="537"/>
      <point x="251" y="552" type="curve" smooth="yes"/>
      <point x="251" y="581"/>
      <point x="202" y="616"/>
      <point x="148" y="616" type="curve" smooth="yes"/>
      <point x="106" y="616"/>
      <point x="100" y="593"/>
      <point x="100" y="568" type="curve"/>
      <point x="111" y="563"/>
      <point x="125" y="554"/>
      <point x="139" y="543" type="curve"/>
      <point x="139" y="486"/>
      <point x="108" y="357"/>
      <point x="108" y="296" type="curve" smooth="yes"/>
      <point x="108" y="219"/>
      <point x="150" y="185"/>
      <point x="250" y="185" type="curve" smooth="yes"/>
      <point x="333" y="185"/>
      <point x="450" y="236"/>
      <point x="519" y="383" type="curve" smooth="yes"/>
      <point x="547" y="443"/>
      <point x="570" y="523"/>
      <point x="570" y="574" type="curve" smooth="yes"/>
      <point x="570" y="607"/>
      <point x="544" y="624"/>
      <point x="513" y="624" type="curve" smooth="yes"/>
      <point x="486" y="624"/>
      <point x="469" y="612"/>
      <point x="461" y="600" type="curve"/>
      <point x="471" y="433"/>
      <point x="583" y="259"/>
      <point x="710" y="259" type="curve"/>
      <point x="708" y="294" type="line"/>
    </contour>
  </outline>
</glyph>
<glyph name="uni1224" format="2">
  <advance width="1038"/>
  <unicode hex="1224"/>
  <outline>
    <contour>
      <point x="632" y="99" type="curve" smooth="yes"/>
      <point x="632" y="30"/>
      <point x="688" y="-11"/>
      <point x="785" y="-11" type="curve" smooth="yes"/>
      <point x="895" y="-11"/>
      <point x="965" y="55"/>
      <point x="965" y="120" type="curve" smooth="yes"/>
      <point x="965" y="180"/>
      <point x="879" y="256"/>
      <point x="713" y="245" type="curve"/>
      <point x="752" y="212" type="line"/>
      <point x="776" y="273"/>
      <point x="886" y="478"/>
      <point x="886" y="576" type="curve" smooth="yes"/>
      <point x="886" y="619"/>
      <point x="864" y="635"/>
      <point x="830" y="635" type="curve" smooth="yes"/>
      <point x="799" y="635"/>
      <point x="770" y="615"/>
      <point x="765" y="587" type="curve"/>
      <point x="779" y="580"/>
      <point x="787" y="560"/>
      <point x="786" y="530" type="curve" smooth="yes"/>
      <point x="783" y="464"/>
      <point x="724" y="332"/>
      <point x="681" y="332" type="curve" smooth="yes"/>
      <point x="635" y="332"/>
      <point x="549" y="399"/>
      <point x="526" y="549" type="curve"/>
      <point x="468" y="550" type="line"/>
      <point x="468" y="444"/>
      <point x="392" y="243"/>
      <point x="273" y="243" type="curve" smooth="yes"/>
      <point x="222" y="243"/>
      <point x="194" y="270"/>
      <point x="194" y="323" type="curve" smooth="yes"/>
      <point x="194" y="374"/>
      <point x="202" y="432"/>
      <point x="224" y="518" type="curve"/>
      <point x="238" y="526"/>
      <point x="251" y="537"/>
      <point x="251" y="552" type="curve" smooth="yes"/>
      <point x="251" y="581"/>
      <point x="202" y="616"/>
      <point x="148" y="616" type="curve" smooth="yes"/>
      <point x="106" y="616"/>
      <point x="100" y="593"/>
      <point x="100" y="568" type="curve"/>
      <point x="111" y="563"/>
      <point x="125" y="554"/>
      <point x="139" y="543" type="curve"/>
      <point x="139" y="486"/>
      <point x="108" y="357"/>
      <point x="108" y="296" type="curve" smooth="yes"/>
      <point x="108" y="219"/>
      <point x="150" y="185"/>
      <point x="250" y="185" type="curve" smooth="yes"/>
      <point x="333" y="185"/>
      <point x="450" y="236"/>
      <point x="519" y="383" type="curve" smooth="yes"/>
      <point x="547" y="443"/>
      <point x="570" y="523"/>
      <point x="570" y="574" type="curve" smooth="yes"/>
      <point x="570" y="607"/>
      <point x="544" y="624"/>
      <point x="513" y="624" type="curve" smooth="yes"/>
      <point x="486" y="624"/>
      <point x="469" y="612"/>
      <point x="461" y="600" type="curve"/>
      <point x="471" y="433"/>
      <point x="583" y="259"/>
      <point x="710" y="259" type="curve"/>
      <point x="708" y="294" type="line"/>
      <point x="657" y="203"/>
      <point x="632" y="135"/>
    </contour>
    <contour>
      <point x="721" y="115" type="curve" smooth="yes"/>
      <point x="721" y="147"/>
      <point x="740" y="194"/>
      <point x="771" y="194" type="curve" smooth="yes"/>
      <point x="823" y="194"/>
      <point x="882" y="160"/>
      <point x="882" y="109" type="curve" smooth="yes"/>
      <point x="882" y="75"/>
      <point x="854" y="50"/>
      <point x="795" y="50" type="curve" smooth="yes"/>
      <point x="753" y="50"/>
      <point x="721" y="73"/>
    </contour>
  </outline>
</glyph>
<glyph name="uni1225" format="2">
  <advance width="1046"/>
  <unicode hex="1225"/>
  <outline>
    <contour>
      <point x="199" y="39" type="curve"/>
      <point x="188" y="44"/>
      <point x="181" y="53"/>
      <point x="182" y="78" type="curve" smooth="yes"/>
      <point x="185" y="142"/>
      <point x="311" y="431"/>
      <point x="311" y="548" type="curve" smooth="yes"/>
      <point x="311" y="580"/>
      <point x="287" y="595"/>
      <point x="256" y="595" type="curve" smooth="yes"/>
      <point x="222" y="595"/>
      <point x="193" y="575"/>
      <point x="188" y="547" type="curve"/>
      <point x="202" y="542"/>
      <point x="210" y="532"/>
      <point x="210" y="514" type="curve" smooth="yes"/>
      <point x="210" y="348"/>
      <point x="77" y="134"/>
      <point x="77" y="49" type="curve" smooth="yes"/>
      <point x="77" y="15"/>
      <point x="101" y="-7"/>
      <point x="135" y="-7" type="curve" smooth="yes"/>
      <point x="160" y="-7"/>
      <point x="192" y="5"/>
    </contour>
    <contour>
      <point x="190" y="296" type="line"/>
      <point x="204" y="231"/>
      <point x="253" y="185"/>
      <point x="332" y="185" type="curve" smooth="yes"/>
      <point x="415" y="185"/>
      <point x="532" y="236"/>
      <point x="601" y="383" type="curve" smooth="yes"/>
      <point x="629" y="443"/>
      <point x="652" y="523"/>
      <point x="652" y="574" type="curve" smooth="yes"/>
      <point x="652" y="607"/>
      <point x="626" y="624"/>
      <point x="595" y="624" type="curve" smooth="yes"/>
      <point x="568" y="624"/>
      <point x="551" y="612"/>
      <point x="543" y="600" type="curve"/>
      <point x="553" y="433"/>
      <point x="665" y="259"/>
      <point x="792" y="259" type="curve"/>
      <point x="775" y="294" type="line"/>
      <point x="769" y="282"/>
      <point x="758" y="272"/>
      <point x="751" y="266" type="curve"/>
      <point x="756" y="245"/>
      <point x="775" y="227"/>
      <point x="802" y="227" type="curve" smooth="yes"/>
      <point x="820" y="227"/>
      <point x="841" y="234"/>
      <point x="860" y="272" type="curve" smooth="yes"/>
      <point x="880" y="312"/>
      <point x="968" y="510"/>
      <point x="968" y="576" type="curve" smooth="yes"/>
      <point x="968" y="619"/>
      <point x="946" y="635"/>
      <point x="912" y="635" type="curve" smooth="yes"/>
      <point x="881" y="635"/>
      <point x="852" y="615"/>
      <point x="847" y="587" type="curve"/>
      <point x="861" y="580"/>
      <point x="869" y="560"/>
      <point x="868" y="530" type="curve" smooth="yes"/>
      <point x="865" y="464"/>
      <point x="821" y="332"/>
      <point x="763" y="332" type="curve" smooth="yes"/>
      <point x="717" y="332"/>
      <point x="631" y="399"/>
      <point x="608" y="549" type="curve"/>
      <point x="550" y="550" type="line"/>
      <point x="550" y="444"/>
      <point x="474" y="243"/>
      <point x="355" y="243" type="curve" smooth="yes"/>
      <point x="304" y="243"/>
      <point x="259" y="287"/>
      <point x="259" y="340" type="curve"/>
    </contour>
  </outline>
</glyph>
<glyph name="uni1227" format="2">
  <advance width="998"/>
  <unicode hex="1227"/>
  <outline>
    <contour>
      <point x="729" y="37" type="curve"/>
      <point x="713" y="44"/>
      <point x="712" y="60"/>
      <point x="712" y="78" type="curve" smooth="yes"/>
      <point x="712" y="112"/>
      <point x="742" y="195"/>
      <point x="778" y="272" type="curve" smooth="yes"/>
      <point x="797" y="313"/>
      <point x="886" y="510"/>
      <point x="886" y="576" type="curve" smooth="yes"/>
      <point x="886" y="619"/>
      <point x="864" y="635"/>
      <point x="830" y="635" type="curve" smooth="yes"/>
      <point x="799" y="635"/>
      <point x="770" y="615"/>
      <point x="765" y="587" type="curve"/>
      <point x="779" y="580"/>
      <point x="787" y="560"/>
      <point x="786" y="530" type="curve" smooth="yes"/>
      <point x="783" y="464"/>
      <point x="724" y="332"/>
      <point x="681" y="332" type="curve" smooth="yes"/>
      <point x="635" y="332"/>
      <point x="549" y="399"/>
      <point x="526" y="549" type="curve"/>
      <point x="468" y="550" type="line"/>
      <point x="468" y="444"/>
      <point x="392" y="243"/>
      <point x="273" y="243" type="curve" smooth="yes"/>
      <point x="222" y="243"/>
      <point x="194" y="270"/>
      <point x="194" y="323" type="curve" smooth="yes"/>
      <point x="194" y="374"/>
      <point x="202" y="432"/>
      <point x="224" y="518" type="curve"/>
      <point x="238" y="526"/>
      <point x="251" y="537"/>
      <point x="251" y="552" type="curve" smooth="yes"/>
      <point x="251" y="581"/>
      <point x="202" y="616"/>
      <point x="148" y="616" type="curve" smooth="yes"/>
      <point x="106" y="616"/>
      <point x="100" y="593"/>
      <point x="100" y="568" type="curve"/>
      <point x="111" y="563"/>
      <point x="125" y="554"/>
      <point x="139" y="543" type="curve"/>
      <point x="139" y="486"/>
      <point x="108" y="357"/>
      <point x="108" y="296" type="curve" smooth="yes"/>
      <point x="108" y="219"/>
      <point x="150" y="185"/>
      <point x="250" y="185" type="curve" smooth="yes"/>
      <point x="333" y="185"/>
      <point x="450" y="236"/>
      <point x="519" y="383" type="curve" smooth="yes"/>
      <point x="547" y="443"/>
      <point x="570" y="523"/>
      <point x="570" y="574" type="curve" smooth="yes"/>
      <point x="570" y="607"/>
      <point x="544" y="624"/>
      <point x="513" y="624" type="curve" smooth="yes"/>
      <point x="486" y="624"/>
      <point x="469" y="612"/>
      <point x="461" y="600" type="curve"/>
      <point x="471" y="433"/>
      <point x="583" y="259"/>
      <point x="710" y="259" type="curve"/>
      <point x="708" y="294" type="line"/>
      <point x="635" y="164"/>
      <point x="612" y="87"/>
      <point x="612" y="33" type="curve" smooth="yes"/>
      <point x="612" y="14"/>
      <point x="637" y="4"/>
      <point x="667" y="4" type="curve" smooth="yes"/>
      <point x="705" y="4"/>
      <point x="716" y="8"/>
    </contour>
    <contour>
      <point x="547" y="-16" type="curve"/>
      <point x="591" y="-12"/>
      <point x="761" y="3"/>
      <point x="833" y="8" type="curve"/>
      <point x="820" y="31" type="line"/>
      <point x="819" y="-45"/>
      <point x="846" y="-69"/>
      <point x="901" y="-69" type="curve" smooth="yes"/>
      <point x="914" y="-69"/>
      <point x="932" y="-67"/>
      <point x="944" y="-63" type="curve"/>
      <point x="935" y="-39"/>
      <point x="931" y="4"/>
      <point x="934" y="31" type="curve"/>
      <point x="901" y="43"/>
      <point x="856" y="57"/>
      <point x="846" y="57" type="curve" smooth="yes"/>
      <point x="819" y="57"/>
      <point x="598" y="34"/>
      <point x="530" y="28" type="curve"/>
      <point x="461" y="41"/>
      <point x="423" y="11"/>
      <point x="423" y="-51" type="curve" smooth="yes"/>
      <point x="423" y="-89"/>
      <point x="445" y="-104"/>
      <point x="477" y="-104" type="curve" smooth="yes"/>
      <point x="504" y="-104"/>
      <point x="526" y="-97"/>
      <point x="540" y="-90" type="curve"/>
      <point x="535" y="-68"/>
      <point x="537" y="-34"/>
    </contour>
  </outline>
</glyph>
<glyph name="uni1228" format="2">
  <advance width="584"/>
  <unicode hex="1228"/>
  <outline>
    <contour>
      <point x="446" y="97" type="line"/>
      <point x="397" y="82"/>
      <point x="339" y="75"/>
      <point x="293" y="75" type="curve" smooth="yes"/>
      <point x="222" y="75"/>
      <point x="182" y="97"/>
      <point x="182" y="161" type="curve" smooth="yes"/>
      <point x="182" y="307"/>
      <point x="350" y="560"/>
      <point x="422" y="575" type="curve"/>
      <point x="420" y="614"/>
      <point x="399" y="637"/>
      <point x="373" y="637" type="curve" smooth="yes"/>
      <point x="351" y="637"/>
      <point x="331" y="622"/>
      <point x="304" y="595" type="curve" smooth="yes"/>
      <point x="217" y="508"/>
      <point x="89" y="274"/>
      <point x="89" y="135" type="curve" smooth="yes"/>
      <point x="89" y="59"/>
      <point x="181" y="-2"/>
      <point x="235" y="-2" type="curve" smooth="yes"/>
      <point x="274" y="-2"/>
      <point x="396" y="29"/>
      <point x="458" y="47" type="curve"/>
      <point x="414" y="46" type="line"/>
      <point x="414" y="1"/>
      <point x="423" y="-39"/>
      <point x="465" y="-39" type="curve" smooth="yes"/>
      <point x="486" y="-39"/>
      <point x="516" y="-32"/>
      <point x="531" y="-18" type="curve"/>
      <point x="515" y="8"/>
      <point x="511" y="66"/>
      <point x="518" y="118" type="curve"/>
      <point x="505" y="126"/>
      <point x="487" y="132"/>
      <point x="464" y="132" type="curve" smooth="yes"/>
      <point x="438" y="132"/>
      <point x="414" y="108"/>
      <point x="414" y="53" type="curve"/>
    </contour>
  </outline>
</glyph>
<glyph name="uni1229" format="2">
  <advance width="677"/>
  <unicode hex="1229"/>
  <outline>
    <contour>
      <point x="202" y="155" type="line"/>
      <point x="202" y="106"/>
      <point x="194" y="38"/>
      <point x="194" y="21" type="curve" smooth="yes"/>
      <point x="194" y="7"/>
      <point x="198" y="-5"/>
      <point x="225" y="-5" type="curve" smooth="yes"/>
      <point x="249" y="-5"/>
      <point x="271" y="3"/>
      <point x="283" y="15" type="curve"/>
      <point x="278" y="40"/>
      <point x="281" y="131"/>
      <point x="284" y="159" type="curve"/>
    </contour>
    <contour>
      <point x="524" y="137" type="curve"/>
      <point x="500" y="150" type="line"/>
      <point x="479" y="73"/>
      <point x="520" y="36"/>
      <point x="610" y="55" type="curve"/>
      <point x="603" y="80"/>
      <point x="601" y="130"/>
      <point x="604" y="163" type="curve"/>
      <point x="574" y="172"/>
      <point x="537" y="179"/>
      <point x="512" y="179" type="curve"/>
      <point x="462" y="172"/>
      <point x="388" y="163"/>
      <point x="319" y="163" type="curve" smooth="yes"/>
      <point x="239" y="163"/>
      <point x="189" y="226"/>
      <point x="189" y="308" type="curve" smooth="yes"/>
      <point x="189" y="456"/>
      <point x="292" y="565"/>
      <point x="479" y="594" type="curve"/>
      <point x="429" y="605" type="line"/>
      <point x="410" y="536"/>
      <point x="450" y="502"/>
      <point x="539" y="521" type="curve"/>
      <point x="533" y="544"/>
      <point x="530" y="588"/>
      <point x="533" y="618" type="curve"/>
      <point x="503" y="627"/>
      <point x="466" y="634"/>
      <point x="441" y="634" type="curve"/>
      <point x="208" y="573"/>
      <point x="88" y="454"/>
      <point x="88" y="292" type="curve" smooth="yes"/>
      <point x="88" y="200"/>
      <point x="139" y="115"/>
      <point x="280" y="115" type="curve" smooth="yes"/>
      <point x="353" y="115"/>
      <point x="444" y="127"/>
    </contour>
  </outline>
</glyph>
<glyph name="uni122A" format="2">
  <advance width="657"/>
  <unicode hex="122A"/>
  <outline>
    <contour>
      <point x="463" y="53" type="curve"/>
      <point x="495" y="69" type="line"/>
      <point x="449" y="55"/>
      <point x="393" y="50"/>
      <point x="323" y="50" type="curve" smooth="yes"/>
      <point x="236" y="50"/>
      <point x="199" y="95"/>
      <point x="199" y="186" type="curve" smooth="yes"/>
      <point x="199" y="366"/>
      <point x="268" y="527"/>
      <point x="406" y="591" type="curve"/>
      <point x="389" y="605" type="line"/>
      <point x="370" y="536"/>
      <point x="410" y="502"/>
      <point x="499" y="521" type="curve"/>
      <point x="493" y="544"/>
      <point x="490" y="588"/>
      <point x="493" y="618" type="curve"/>
      <point x="458" y="628"/>
      <point x="414" y="634"/>
      <point x="385" y="634" type="curve"/>
      <point x="238" y="578"/>
      <point x="98" y="386"/>
      <point x="98" y="153" type="curve" smooth="yes"/>
      <point x="98" y="66"/>
      <point x="149" y="-5"/>
      <point x="290" y="-5" type="curve" smooth="yes"/>
      <point x="423" y="-5"/>
      <point x="520" y="5"/>
      <point x="565" y="29" type="curve"/>
      <point x="553" y="60"/>
      <point x="549" y="216"/>
      <point x="565" y="269" type="curve"/>
      <point x="546" y="280"/>
      <point x="529" y="286"/>
      <point x="510" y="286" type="curve" smooth="yes"/>
      <point x="483" y="286"/>
      <point x="464" y="259"/>
      <point x="461" y="156" type="curve" smooth="yes"/>
      <point x="460" y="135"/>
      <point x="460" y="111"/>
    </contour>
  </outline>
</glyph>
<glyph name="uni122B" format="2">
  <advance width="830"/>
  <unicode hex="122B"/>
  <outline>
    <contour>
      <point x="463" y="267" type="curve"/>
      <point x="457" y="209" type="line"/>
      <point x="527" y="226"/>
      <point x="625" y="224"/>
      <point x="712" y="231" type="curve"/>
      <point x="641" y="251" type="line"/>
      <point x="640" y="181"/>
      <point x="666" y="153"/>
      <point x="773" y="171" type="curve"/>
      <point x="767" y="200"/>
      <point x="765" y="228"/>
      <point x="762" y="249" type="curve" smooth="yes"/>
      <point x="760" y="263"/>
      <point x="755" y="267"/>
      <point x="743" y="270" type="curve" smooth="yes"/>
      <point x="723" y="275"/>
      <point x="703" y="282"/>
      <point x="686" y="282" type="curve" smooth="yes"/>
      <point x="632" y="282"/>
      <point x="587" y="267"/>
    </contour>
    <contour>
      <point x="566" y="584" type="curve"/>
      <point x="530" y="605" type="line"/>
      <point x="515" y="541"/>
      <point x="547" y="517"/>
      <point x="627" y="531" type="curve"/>
      <point x="619" y="551"/>
      <point x="616" y="588"/>
      <point x="619" y="618" type="curve"/>
      <point x="589" y="627"/>
      <point x="552" y="634"/>
      <point x="527" y="634" type="curve" smooth="yes"/>
      <point x="465" y="634"/>
      <point x="333" y="607"/>
      <point x="268" y="556" type="curve" smooth="yes"/>
      <point x="201" y="503"/>
      <point x="86" y="268"/>
      <point x="86" y="168" type="curve" smooth="yes"/>
      <point x="86" y="87"/>
      <point x="210" y="1"/>
      <point x="301" y="1" type="curve" smooth="yes"/>
      <point x="342" y="1"/>
      <point x="387" y="3"/>
      <point x="428" y="7" type="curve"/>
      <point x="435" y="-2"/>
      <point x="451" y="-9"/>
      <point x="471" y="-9" type="curve" smooth="yes"/>
      <point x="520" y="-9"/>
      <point x="543" y="11"/>
      <point x="517" y="81" type="curve"/>
      <point x="510" y="136"/>
      <point x="510" y="182"/>
      <point x="524" y="255" type="curve"/>
      <point x="505" y="266"/>
      <point x="486" y="267"/>
      <point x="463" y="267" type="curve" smooth="yes"/>
      <point x="435" y="267"/>
      <point x="421" y="227"/>
      <point x="420" y="64" type="curve"/>
      <point x="398" y="61"/>
      <point x="375" y="60"/>
      <point x="352" y="60" type="curve" smooth="yes"/>
      <point x="260" y="60"/>
      <point x="180" y="96"/>
      <point x="180" y="197" type="curve" smooth="yes"/>
      <point x="180" y="252"/>
      <point x="257" y="471"/>
      <point x="326" y="525" type="curve" smooth="yes"/>
      <point x="382" y="570"/>
      <point x="468" y="579"/>
    </contour>
  </outline>
</glyph>
<glyph name="uni122C" format="2">
  <advance width="799"/>
  <unicode hex="122C"/>
  <outline>
    <contour>
      <point x="590" y="77" type="curve" smooth="yes"/>
      <point x="631" y="77"/>
      <point x="656" y="42"/>
      <point x="656" y="9" type="curve" smooth="yes"/>
      <point x="656" y="-14"/>
      <point x="636" y="-37"/>
      <point x="600" y="-37" type="curve" smooth="yes"/>
      <point x="547" y="-37"/>
      <point x="469" y="13"/>
      <point x="469" y="36" type="curve" smooth="yes"/>
      <point x="469" y="52"/>
      <point x="537" y="77"/>
    </contour>
    <contour>
      <point x="535" y="634" type="curve" smooth="yes"/>
      <point x="480" y="634"/>
      <point x="325" y="579"/>
      <point x="233" y="509" type="curve" smooth="yes"/>
      <point x="150" y="445"/>
      <point x="89" y="332"/>
      <point x="89" y="218" type="curve" smooth="yes"/>
      <point x="89" y="114"/>
      <point x="232" y="3"/>
      <point x="320" y="3" type="curve" smooth="yes"/>
      <point x="341" y="3"/>
      <point x="368" y="14"/>
      <point x="426" y="30" type="curve"/>
      <point x="389" y="35" type="line"/>
      <point x="456" y="-55"/>
      <point x="541" y="-101"/>
      <point x="588" y="-101" type="curve" smooth="yes"/>
      <point x="672" y="-101"/>
      <point x="742" y="-43"/>
      <point x="742" y="13" type="curve" smooth="yes"/>
      <point x="742" y="68"/>
      <point x="685" y="151"/>
      <point x="617" y="151" type="curve" smooth="yes"/>
      <point x="533" y="151"/>
      <point x="414" y="87"/>
      <point x="346" y="87" type="curve" smooth="yes"/>
      <point x="265" y="87"/>
      <point x="181" y="152"/>
      <point x="181" y="247" type="curve" smooth="yes"/>
      <point x="181" y="401"/>
      <point x="320" y="554"/>
      <point x="570" y="594" type="curve"/>
      <point x="538" y="605" type="line"/>
      <point x="523" y="541"/>
      <point x="555" y="517"/>
      <point x="635" y="531" type="curve"/>
      <point x="627" y="551"/>
      <point x="624" y="588"/>
      <point x="627" y="618" type="curve"/>
      <point x="597" y="627"/>
      <point x="560" y="634"/>
    </contour>
  </outline>
</glyph>
<glyph name="uni122D" format="2">
  <advance width="770"/>
  <unicode hex="122D"/>
  <outline>
    <contour>
      <point x="608" y="530" type="curve"/>
      <point x="584" y="555" type="line"/>
      <point x="561" y="471"/>
      <point x="604" y="432"/>
      <point x="694" y="451" type="curve"/>
      <point x="686" y="481"/>
      <point x="684" y="539"/>
      <point x="688" y="578" type="curve"/>
      <point x="658" y="587"/>
      <point x="606" y="588"/>
      <point x="563" y="584" type="curve"/>
      <point x="629" y="574" type="line"/>
      <point x="523" y="610"/>
      <point x="434" y="637"/>
      <point x="364" y="637" type="curve" smooth="yes"/>
      <point x="221" y="637"/>
      <point x="113" y="492"/>
      <point x="113" y="249" type="curve" smooth="yes"/>
      <point x="113" y="58"/>
      <point x="180" y="-5"/>
      <point x="324" y="-5" type="curve" smooth="yes"/>
      <point x="414" y="-5"/>
      <point x="498" y="23"/>
      <point x="575" y="45" type="curve"/>
      <point x="528" y="56" type="line"/>
      <point x="528" y="11"/>
      <point x="537" y="-29"/>
      <point x="579" y="-29" type="curve" smooth="yes"/>
      <point x="600" y="-29"/>
      <point x="630" y="-22"/>
      <point x="645" y="-8" type="curve"/>
      <point x="629" y="18"/>
      <point x="625" y="76"/>
      <point x="632" y="128" type="curve"/>
      <point x="619" y="136"/>
      <point x="601" y="142"/>
      <point x="578" y="142" type="curve" smooth="yes"/>
      <point x="552" y="142"/>
      <point x="528" y="118"/>
      <point x="528" y="63" type="curve"/>
      <point x="563" y="95" type="line"/>
      <point x="494" y="69"/>
      <point x="417" y="54"/>
      <point x="343" y="54" type="curve" smooth="yes"/>
      <point x="248" y="54"/>
      <point x="214" y="98"/>
      <point x="214" y="246" type="curve" smooth="yes"/>
      <point x="214" y="456"/>
      <point x="291" y="583"/>
      <point x="380" y="583" type="curve" smooth="yes"/>
      <point x="450" y="583"/>
      <point x="544" y="555"/>
    </contour>
  </outline>
</glyph>
<glyph name="uni122E" format="2">
  <advance width="811"/>
  <unicode hex="122E"/>
  <outline>
    <contour>
      <point x="581" y="580" type="curve" smooth="yes"/>
      <point x="642" y="580"/>
      <point x="654" y="560"/>
      <point x="654" y="538" type="curve" smooth="yes"/>
      <point x="654" y="485"/>
      <point x="631" y="440"/>
      <point x="605" y="440" type="curve" smooth="yes"/>
      <point x="564" y="440"/>
      <point x="483" y="497"/>
      <point x="483" y="542" type="curve" smooth="yes"/>
      <point x="483" y="569"/>
      <point x="536" y="580"/>
    </contour>
    <contour>
      <point x="553" y="62" type="curve"/>
      <point x="502" y="83" type="line"/>
      <point x="483" y="14"/>
      <point x="523" y="-20"/>
      <point x="612" y="-1" type="curve"/>
      <point x="606" y="22"/>
      <point x="603" y="66"/>
      <point x="606" y="96" type="curve"/>
      <point x="576" y="105"/>
      <point x="539" y="112"/>
      <point x="514" y="112" type="curve"/>
      <point x="490" y="112"/>
      <point x="377" y="75"/>
      <point x="297" y="75" type="curve" smooth="yes"/>
      <point x="232" y="75"/>
      <point x="195" y="96"/>
      <point x="195" y="188" type="curve" smooth="yes"/>
      <point x="195" y="334"/>
      <point x="264" y="481"/>
      <point x="436" y="551" type="curve"/>
      <point x="399" y="562" type="line"/>
      <point x="465" y="415"/>
      <point x="539" y="371"/>
      <point x="603" y="371" type="curve" smooth="yes"/>
      <point x="679" y="371"/>
      <point x="740" y="462"/>
      <point x="740" y="550" type="curve" smooth="yes"/>
      <point x="740" y="595"/>
      <point x="701" y="637"/>
      <point x="617" y="637" type="curve" smooth="yes"/>
      <point x="463" y="637"/>
      <point x="331" y="576"/>
      <point x="240" y="507" type="curve" smooth="yes"/>
      <point x="146" y="434"/>
      <point x="95" y="282"/>
      <point x="95" y="185" type="curve" smooth="yes"/>
      <point x="95" y="59"/>
      <point x="187" y="-2"/>
      <point x="241" y="-2" type="curve" smooth="yes"/>
      <point x="331" y="-2"/>
      <point x="483" y="42"/>
    </contour>
  </outline>
</glyph>
<glyph name="uni122F" format="2">
  <advance width="865"/>
  <unicode hex="122F"/>
  <outline>
    <contour>
      <point x="221" y="605" type="curve"/>
      <point x="170" y="581" type="line"/>
      <point x="258" y="589"/>
      <point x="487" y="601"/>
      <point x="581" y="608" type="curve"/>
      <point x="575" y="631" type="line"/>
      <point x="569" y="555"/>
      <point x="594" y="531"/>
      <point x="649" y="531" type="curve" smooth="yes"/>
      <point x="662" y="531"/>
      <point x="680" y="533"/>
      <point x="692" y="537" type="curve"/>
      <point x="683" y="561"/>
      <point x="679" y="604"/>
      <point x="682" y="631" type="curve"/>
      <point x="649" y="643"/>
      <point x="604" y="654"/>
      <point x="594" y="654" type="curve" smooth="yes"/>
      <point x="558" y="654"/>
      <point x="266" y="638"/>
      <point x="177" y="630" type="curve"/>
      <point x="118" y="637"/>
      <point x="86" y="601"/>
      <point x="86" y="552" type="curve" smooth="yes"/>
      <point x="86" y="518"/>
      <point x="105" y="501"/>
      <point x="145" y="501" type="curve" smooth="yes"/>
      <point x="159" y="501"/>
      <point x="177" y="502"/>
      <point x="195" y="507" type="curve"/>
      <point x="191" y="535"/>
      <point x="191" y="575"/>
    </contour>
    <contour>
      <point x="691" y="259" type="line"/>
      <point x="690" y="183"/>
      <point x="710" y="159"/>
      <point x="765" y="159" type="curve" smooth="yes"/>
      <point x="778" y="159"/>
      <point x="796" y="161"/>
      <point x="808" y="165" type="curve"/>
      <point x="799" y="189"/>
      <point x="795" y="232"/>
      <point x="798" y="259" type="curve"/>
      <point x="765" y="271"/>
      <point x="720" y="282"/>
      <point x="710" y="282" type="curve"/>
      <point x="689" y="278"/>
      <point x="585" y="273"/>
      <point x="539" y="273" type="curve"/>
      <point x="514" y="211" type="line"/>
      <point x="578" y="226"/>
      <point x="667" y="225"/>
      <point x="746" y="231" type="curve"/>
    </contour>
    <contour>
      <point x="127" y="153" type="curve" smooth="yes"/>
      <point x="127" y="66"/>
      <point x="178" y="-5"/>
      <point x="319" y="-5" type="curve" smooth="yes"/>
      <point x="452" y="-5"/>
      <point x="549" y="5"/>
      <point x="594" y="29" type="curve"/>
      <point x="583" y="56"/>
      <point x="580" y="208"/>
      <point x="594" y="256" type="curve"/>
      <point x="575" y="267"/>
      <point x="558" y="273"/>
      <point x="539" y="273" type="curve" smooth="yes"/>
      <point x="512" y="273"/>
      <point x="493" y="249"/>
      <point x="490" y="156" type="curve" smooth="yes"/>
      <point x="489" y="135"/>
      <point x="489" y="111"/>
      <point x="492" y="53" type="curve"/>
      <point x="524" y="69" type="line"/>
      <point x="478" y="55"/>
      <point x="422" y="50"/>
      <point x="352" y="50" type="curve" smooth="yes"/>
      <point x="265" y="50"/>
      <point x="228" y="95"/>
      <point x="228" y="186" type="curve" smooth="yes"/>
      <point x="228" y="298"/>
      <point x="369" y="521"/>
      <point x="446" y="601" type="curve"/>
      <point x="349" y="601" type="line"/>
      <point x="276" y="522"/>
      <point x="127" y="280"/>
    </contour>
  </outline>
</glyph>
<glyph name="uni1230" format="2">
  <advance width="729"/>
  <unicode hex="1230"/>
  <outline>
    <contour>
      <point x="452" y="498" type="line"/>
      <point x="466" y="539"/>
      <point x="478" y="578"/>
      <point x="495" y="606" type="curve"/>
      <point x="515" y="617"/>
      <point x="527" y="623"/>
      <point x="527" y="639" type="curve" smooth="yes"/>
      <point x="527" y="666"/>
      <point x="453" y="697"/>
      <point x="404" y="697" type="curve" smooth="yes"/>
      <point x="376" y="697"/>
      <point x="364" y="673"/>
      <point x="370" y="655" type="curve"/>
      <point x="394" y="647"/>
      <point x="406" y="638"/>
      <point x="406" y="619" type="curve" smooth="yes"/>
      <point x="406" y="598"/>
      <point x="394" y="553"/>
      <point x="378" y="498" type="curve"/>
    </contour>
    <contour>
      <point x="587" y="525" type="curve" smooth="yes"/>
      <point x="559" y="525"/>
      <point x="341" y="506"/>
      <point x="188" y="506" type="curve" smooth="yes"/>
      <point x="157" y="506"/>
      <point x="140" y="488"/>
      <point x="140" y="466" type="curve" smooth="yes"/>
      <point x="140" y="446"/>
      <point x="150" y="431"/>
      <point x="163" y="425" type="curve"/>
      <point x="173" y="430"/>
      <point x="184" y="434"/>
      <point x="196" y="438" type="curve"/>
      <point x="177" y="290"/>
      <point x="84" y="74"/>
      <point x="84" y="33" type="curve" smooth="yes"/>
      <point x="84" y="7"/>
      <point x="103" y="-5"/>
      <point x="132" y="-5" type="curve" smooth="yes"/>
      <point x="157" y="-5"/>
      <point x="170" y="-1"/>
      <point x="189" y="3" type="curve"/>
      <point x="186" y="12"/>
      <point x="185" y="21"/>
      <point x="185" y="37" type="curve" smooth="yes"/>
      <point x="185" y="99"/>
      <point x="245" y="297"/>
      <point x="279" y="407" type="curve" smooth="yes"/>
      <point x="292" y="449"/>
      <point x="299" y="457"/>
      <point x="334" y="459" type="curve" smooth="yes"/>
      <point x="387" y="462"/>
      <point x="445" y="467"/>
      <point x="503" y="467" type="curve" smooth="yes"/>
      <point x="529" y="467"/>
      <point x="538" y="453"/>
      <point x="538" y="433" type="curve" smooth="yes"/>
      <point x="538" y="310"/>
      <point x="452" y="152"/>
      <point x="452" y="57" type="curve" smooth="yes"/>
      <point x="452" y="22"/>
      <point x="470" y="1"/>
      <point x="499" y="1" type="curve" smooth="yes"/>
      <point x="516" y="1"/>
      <point x="540" y="5"/>
      <point x="553" y="21" type="curve"/>
      <point x="526" y="116"/>
      <point x="637" y="413"/>
      <point x="637" y="474" type="curve" smooth="yes"/>
      <point x="637" y="507"/>
      <point x="621" y="525"/>
    </contour>
  </outline>
</glyph>
<glyph name="uni1231" format="2">
  <advance width="915"/>
  <unicode hex="1231"/>
  <outline>
    <contour>
      <point x="451" y="498" type="line"/>
      <point x="465" y="539"/>
      <point x="478" y="577"/>
      <point x="496" y="606" type="curve"/>
      <point x="516" y="617"/>
      <point x="528" y="623"/>
      <point x="528" y="639" type="curve" smooth="yes"/>
      <point x="528" y="666"/>
      <point x="454" y="697"/>
      <point x="405" y="697" type="curve" smooth="yes"/>
      <point x="377" y="697"/>
      <point x="365" y="673"/>
      <point x="371" y="655" type="curve"/>
      <point x="395" y="647"/>
      <point x="407" y="638"/>
      <point x="407" y="619" type="curve" smooth="yes"/>
      <point x="407" y="598"/>
      <point x="393" y="553"/>
      <point x="377" y="498" type="curve"/>
    </contour>
    <contour>
      <point x="586" y="525" type="curve" smooth="yes"/>
      <point x="558" y="525"/>
      <point x="340" y="506"/>
      <point x="187" y="506" type="curve" smooth="yes"/>
      <point x="156" y="506"/>
      <point x="139" y="488"/>
      <point x="139" y="466" type="curve" smooth="yes"/>
      <point x="139" y="446"/>
      <point x="149" y="431"/>
      <point x="162" y="425" type="curve"/>
      <point x="172" y="430"/>
      <point x="183" y="434"/>
      <point x="195" y="438" type="curve"/>
      <point x="176" y="290"/>
      <point x="85" y="74"/>
      <point x="85" y="33" type="curve" smooth="yes"/>
      <point x="85" y="7"/>
      <point x="104" y="-5"/>
      <point x="133" y="-5" type="curve" smooth="yes"/>
      <point x="158" y="-5"/>
      <point x="171" y="-1"/>
      <point x="190" y="3" type="curve"/>
      <point x="187" y="12"/>
      <point x="186" y="21"/>
      <point x="186" y="37" type="curve" smooth="yes"/>
      <point x="186" y="99"/>
      <point x="244" y="297"/>
      <point x="278" y="407" type="curve" smooth="yes"/>
      <point x="291" y="449"/>
      <point x="298" y="457"/>
      <point x="333" y="459" type="curve" smooth="yes"/>
      <point x="386" y="462"/>
      <point x="444" y="467"/>
      <point x="502" y="467" type="curve" smooth="yes"/>
      <point x="528" y="467"/>
      <point x="537" y="453"/>
      <point x="537" y="433" type="curve" smooth="yes"/>
      <point x="537" y="310"/>
      <point x="453" y="152"/>
      <point x="453" y="57" type="curve" smooth="yes"/>
      <point x="453" y="22"/>
      <point x="471" y="1"/>
      <point x="500" y="1" type="curve" smooth="yes"/>
      <point x="517" y="1"/>
      <point x="541" y="5"/>
      <point x="554" y="21" type="curve"/>
      <point x="527" y="116"/>
      <point x="636" y="413"/>
      <point x="636" y="474" type="curve" smooth="yes"/>
      <point x="636" y="507"/>
      <point x="620" y="525"/>
    </contour>
    <contour>
      <point x="761" y="262" type="curve"/>
      <point x="734" y="281" type="line"/>
      <point x="734" y="212"/>
      <point x="745" y="176"/>
      <point x="788" y="176" type="curve" smooth="yes"/>
      <point x="815" y="176"/>
      <point x="833" y="184"/>
      <point x="843" y="194" type="curve"/>
      <point x="827" y="223"/>
      <point x="821" y="288"/>
      <point x="835" y="336" type="curve"/>
      <point x="823" y="343"/>
      <point x="805" y="347"/>
      <point x="784" y="347" type="curve" smooth="yes"/>
      <point x="759" y="347"/>
      <point x="737" y="331"/>
      <point x="735" y="288" type="curve"/>
      <point x="754" y="315" type="line"/>
      <point x="683.0" y="309"/>
      <point x="646.0" y="305"/>
      <point x="581" y="301" type="curve"/>
      <point x="575" y="254" type="line"/>
      <point x="628.0" y="257"/>
      <point x="697.0" y="260"/>
    </contour>
  </outline>
</glyph>
<glyph name="uni1232" format="2">
  <advance width="870"/>
  <unicode hex="1232"/>
  <outline>
    <contour>
      <point x="451" y="498" type="line"/>
      <point x="465" y="539"/>
      <point x="478" y="577"/>
      <point x="496" y="606" type="curve"/>
      <point x="516" y="617"/>
      <point x="528" y="623"/>
      <point x="528" y="639" type="curve" smooth="yes"/>
      <point x="528" y="666"/>
      <point x="454" y="697"/>
      <point x="405" y="697" type="curve" smooth="yes"/>
      <point x="377" y="697"/>
      <point x="365" y="673"/>
      <point x="371" y="655" type="curve"/>
      <point x="395" y="647"/>
      <point x="407" y="638"/>
      <point x="407" y="619" type="curve" smooth="yes"/>
      <point x="407" y="598"/>
      <point x="393" y="553"/>
      <point x="377" y="498" type="curve"/>
    </contour>
    <contour>
      <point x="550" y="78" type="curve" smooth="yes"/>
      <point x="550" y="156"/>
      <point x="636" y="421"/>
      <point x="636" y="474" type="curve" smooth="yes"/>
      <point x="636" y="507"/>
      <point x="620" y="525"/>
      <point x="586" y="525" type="curve" smooth="yes"/>
      <point x="558" y="525"/>
      <point x="340" y="506"/>
      <point x="187" y="506" type="curve" smooth="yes"/>
      <point x="156" y="506"/>
      <point x="139" y="488"/>
      <point x="139" y="466" type="curve" smooth="yes"/>
      <point x="139" y="446"/>
      <point x="149" y="431"/>
      <point x="162" y="425" type="curve"/>
      <point x="172" y="430"/>
      <point x="183" y="434"/>
      <point x="195" y="438" type="curve"/>
      <point x="176" y="290"/>
      <point x="85" y="74"/>
      <point x="85" y="33" type="curve" smooth="yes"/>
      <point x="85" y="7"/>
      <point x="104" y="-5"/>
      <point x="133" y="-5" type="curve" smooth="yes"/>
      <point x="158" y="-5"/>
      <point x="171" y="-1"/>
      <point x="190" y="3" type="curve"/>
      <point x="187" y="12"/>
      <point x="186" y="21"/>
      <point x="186" y="37" type="curve" smooth="yes"/>
      <point x="186" y="99"/>
      <point x="244" y="297"/>
      <point x="278" y="407" type="curve" smooth="yes"/>
      <point x="291" y="449"/>
      <point x="298" y="457"/>
      <point x="333" y="459" type="curve" smooth="yes"/>
      <point x="386" y="462"/>
      <point x="444" y="467"/>
      <point x="502" y="467" type="curve" smooth="yes"/>
      <point x="528" y="467"/>
      <point x="537" y="453"/>
      <point x="537" y="433" type="curve" smooth="yes"/>
      <point x="537" y="309"/>
      <point x="453" y="147"/>
      <point x="453" y="51" type="curve"/>
      <point x="453" y="14"/>
      <point x="478" y="-8"/>
      <point x="520" y="-8" type="curve" smooth="yes"/>
      <point x="550" y="-8"/>
      <point x="627" y="8"/>
      <point x="718" y="28" type="curve"/>
      <point x="712" y="51" type="line"/>
      <point x="711" y="-25"/>
      <point x="731" y="-49"/>
      <point x="786" y="-49" type="curve" smooth="yes"/>
      <point x="799" y="-49"/>
      <point x="817" y="-47"/>
      <point x="829" y="-43" type="curve"/>
      <point x="820" y="-19"/>
      <point x="816" y="24"/>
      <point x="819" y="51" type="curve"/>
      <point x="786" y="63"/>
      <point x="741" y="74"/>
      <point x="731" y="74" type="curve" smooth="yes"/>
      <point x="701" y="74"/>
      <point x="625" y="47"/>
      <point x="592" y="47" type="curve" smooth="yes"/>
      <point x="564" y="47"/>
      <point x="550" y="54"/>
    </contour>
  </outline>
</glyph>
<glyph name="uni1233" format="2">
  <advance width="649"/>
  <unicode hex="1233"/>
  <outline>
    <contour>
      <point x="366" y="498" type="line"/>
      <point x="380" y="539"/>
      <point x="387" y="579"/>
      <point x="404" y="606" type="curve"/>
      <point x="424" y="617"/>
      <point x="436" y="623"/>
      <point x="436" y="639" type="curve" smooth="yes"/>
      <point x="436" y="666"/>
      <point x="362" y="697"/>
      <point x="313" y="697" type="curve" smooth="yes"/>
      <point x="285" y="697"/>
      <point x="273" y="673"/>
      <point x="279" y="655" type="curve"/>
      <point x="303" y="647"/>
      <point x="315" y="638"/>
      <point x="315" y="619" type="curve" smooth="yes"/>
      <point x="315" y="598"/>
      <point x="308" y="552"/>
      <point x="292" y="498" type="curve"/>
    </contour>
    <contour>
      <point x="449" y="509" type="curve" smooth="yes"/>
      <point x="412" y="512"/>
      <point x="291" y="523"/>
      <point x="161" y="523" type="curve" smooth="yes"/>
      <point x="130" y="523"/>
      <point x="113" y="505"/>
      <point x="113" y="483" type="curve" smooth="yes"/>
      <point x="113" y="463"/>
      <point x="123" y="448"/>
      <point x="136" y="442" type="curve"/>
      <point x="146" y="447"/>
      <point x="158" y="451"/>
      <point x="200" y="464" type="curve"/>
      <point x="140" y="485" type="line"/>
      <point x="120" y="402"/>
      <point x="86" y="258"/>
      <point x="86" y="236" type="curve" smooth="yes"/>
      <point x="86" y="210"/>
      <point x="103" y="198"/>
      <point x="130" y="198" type="curve" smooth="yes"/>
      <point x="153" y="198"/>
      <point x="165" y="202"/>
      <point x="183" y="206" type="curve"/>
      <point x="180" y="215"/>
      <point x="179" y="224"/>
      <point x="179" y="240" type="curve" smooth="yes"/>
      <point x="179" y="301"/>
      <point x="186" y="371"/>
      <point x="207" y="432" type="curve" smooth="yes"/>
      <point x="218" y="464"/>
      <point x="227" y="473"/>
      <point x="266" y="473" type="curve" smooth="yes"/>
      <point x="398" y="473"/>
      <point x="459" y="465"/>
      <point x="459" y="422" type="curve" smooth="yes"/>
      <point x="459" y="347"/>
      <point x="390" y="152"/>
      <point x="390" y="57" type="curve" smooth="yes"/>
      <point x="390" y="22"/>
      <point x="410" y="1"/>
      <point x="441" y="1" type="curve" smooth="yes"/>
      <point x="457" y="1"/>
      <point x="480" y="5"/>
      <point x="492" y="21" type="curve"/>
      <point x="465" y="116"/>
      <point x="550" y="379"/>
      <point x="550" y="432" type="curve" smooth="yes"/>
      <point x="550" y="477"/>
      <point x="533" y="504"/>
    </contour>
  </outline>
</glyph>
<glyph name="uni1234" format="2">
  <advance width="862"/>
  <unicode hex="1234"/>
  <outline>
    <contour>
      <point x="459" y="528" type="line"/>
      <point x="469" y="558"/>
      <point x="481" y="585"/>
      <point x="494" y="606" type="curve"/>
      <point x="514" y="617"/>
      <point x="526" y="623"/>
      <point x="526" y="639" type="curve" smooth="yes"/>
      <point x="526" y="666"/>
      <point x="452" y="697"/>
      <point x="403" y="697" type="curve" smooth="yes"/>
      <point x="375" y="697"/>
      <point x="363" y="673"/>
      <point x="369" y="655" type="curve"/>
      <point x="393" y="647"/>
      <point x="405" y="638"/>
      <point x="405" y="619" type="curve" smooth="yes"/>
      <point x="405" y="603"/>
      <point x="397" y="569"/>
      <point x="385" y="528" type="curve"/>
    </contour>
    <contour>
      <point x="552" y="115" type="curve" smooth="yes"/>
      <point x="552" y="147"/>
      <point x="571" y="194"/>
      <point x="602" y="194" type="curve" smooth="yes"/>
      <point x="654" y="194"/>
      <point x="713" y="160"/>
      <point x="713" y="109" type="curve" smooth="yes"/>
      <point x="713" y="75"/>
      <point x="685" y="50"/>
      <point x="626" y="50" type="curve" smooth="yes"/>
      <point x="584" y="50"/>
      <point x="552" y="73"/>
    </contour>
    <contour>
      <point x="464" y="114" type="curve" smooth="yes"/>
      <point x="464" y="45"/>
      <point x="519" y="-11"/>
      <point x="616" y="-11" type="curve" smooth="yes"/>
      <point x="726" y="-11"/>
      <point x="796" y="55"/>
      <point x="796" y="120" type="curve" smooth="yes"/>
      <point x="796" y="180"/>
      <point x="710" y="256"/>
      <point x="544" y="245" type="curve"/>
      <point x="573" y="213" type="line"/>
      <point x="601" y="326"/>
      <point x="644" y="466"/>
      <point x="644" y="504" type="curve" smooth="yes"/>
      <point x="644" y="537"/>
      <point x="628" y="555"/>
      <point x="594" y="555" type="curve" smooth="yes"/>
      <point x="566" y="555"/>
      <point x="348" y="536"/>
      <point x="195" y="536" type="curve" smooth="yes"/>
      <point x="164" y="536"/>
      <point x="147" y="518"/>
      <point x="147" y="496" type="curve" smooth="yes"/>
      <point x="147" y="476"/>
      <point x="157" y="461"/>
      <point x="170" y="455" type="curve"/>
      <point x="180" y="460"/>
      <point x="191" y="464"/>
      <point x="203" y="468" type="curve"/>
      <point x="183" y="309"/>
      <point x="83" y="77"/>
      <point x="83" y="33" type="curve" smooth="yes"/>
      <point x="83" y="7"/>
      <point x="102" y="-5"/>
      <point x="131" y="-5" type="curve" smooth="yes"/>
      <point x="156" y="-5"/>
      <point x="169" y="-1"/>
      <point x="188" y="3" type="curve"/>
      <point x="185" y="12"/>
      <point x="184" y="21"/>
      <point x="184" y="37" type="curve" smooth="yes"/>
      <point x="184" y="104"/>
      <point x="249" y="318"/>
      <point x="286" y="437" type="curve" smooth="yes"/>
      <point x="299" y="479"/>
      <point x="306" y="487"/>
      <point x="341" y="489" type="curve" smooth="yes"/>
      <point x="394" y="492"/>
      <point x="452" y="497"/>
      <point x="510" y="497" type="curve" smooth="yes"/>
      <point x="536" y="497"/>
      <point x="545" y="483"/>
      <point x="545" y="463" type="curve" smooth="yes"/>
      <point x="545" y="353"/>
      <point x="464" y="189"/>
    </contour>
  </outline>
</glyph>
<glyph name="uni1235" format="2">
  <advance width="735"/>
  <unicode hex="1235"/>
  <outline>
    <contour>
      <point x="487" y="528" type="line"/>
      <point x="445" y="577"/>
      <point x="432" y="620"/>
      <point x="415" y="649" type="curve" smooth="yes"/>
      <point x="401" y="674"/>
      <point x="365" y="697"/>
      <point x="321" y="697" type="curve" smooth="yes"/>
      <point x="269" y="697"/>
      <point x="258" y="663"/>
      <point x="271" y="633" type="curve"/>
      <point x="299" y="629"/>
      <point x="315" y="626"/>
      <point x="329" y="609" type="curve" smooth="yes"/>
      <point x="340" y="596"/>
      <point x="361" y="562"/>
      <point x="381" y="528" type="curve"/>
    </contour>
    <contour>
      <point x="594" y="555" type="curve" smooth="yes"/>
      <point x="566" y="555"/>
      <point x="348" y="536"/>
      <point x="195" y="536" type="curve" smooth="yes"/>
      <point x="164" y="536"/>
      <point x="147" y="518"/>
      <point x="147" y="496" type="curve" smooth="yes"/>
      <point x="147" y="476"/>
      <point x="157" y="461"/>
      <point x="170" y="455" type="curve"/>
      <point x="180" y="460"/>
      <point x="191" y="464"/>
      <point x="203" y="468" type="curve"/>
      <point x="183" y="309"/>
      <point x="83" y="77"/>
      <point x="83" y="33" type="curve" smooth="yes"/>
      <point x="83" y="7"/>
      <point x="102" y="-5"/>
      <point x="131" y="-5" type="curve" smooth="yes"/>
      <point x="156" y="-5"/>
      <point x="169" y="-1"/>
      <point x="188" y="3" type="curve"/>
      <point x="185" y="12"/>
      <point x="184" y="21"/>
      <point x="184" y="37" type="curve" smooth="yes"/>
      <point x="184" y="104"/>
      <point x="249" y="318"/>
      <point x="286" y="437" type="curve" smooth="yes"/>
      <point x="299" y="479"/>
      <point x="306" y="487"/>
      <point x="341" y="489" type="curve" smooth="yes"/>
      <point x="394" y="492"/>
      <point x="452" y="497"/>
      <point x="510" y="497" type="curve" smooth="yes"/>
      <point x="536" y="497"/>
      <point x="545" y="483"/>
      <point x="545" y="463" type="curve" smooth="yes"/>
      <point x="545" y="330"/>
      <point x="451" y="160"/>
      <point x="451" y="57" type="curve" smooth="yes"/>
      <point x="451" y="22"/>
      <point x="469" y="1"/>
      <point x="498" y="1" type="curve" smooth="yes"/>
      <point x="515" y="1"/>
      <point x="539" y="5"/>
      <point x="552" y="21" type="curve"/>
      <point x="523" y="123"/>
      <point x="644" y="439"/>
      <point x="644" y="504" type="curve" smooth="yes"/>
      <point x="644" y="537"/>
      <point x="628" y="555"/>
    </contour>
  </outline>
</glyph>
<glyph name="uni1236" format="2">
  <advance width="732"/>
  <unicode hex="1236"/>
  <outline>
    <contour>
      <point x="459" y="528" type="line"/>
      <point x="469" y="558"/>
      <point x="481" y="585"/>
      <point x="494" y="606" type="curve"/>
      <point x="514" y="617"/>
      <point x="526" y="623"/>
      <point x="526" y="639" type="curve" smooth="yes"/>
      <point x="526" y="666"/>
      <point x="452" y="697"/>
      <point x="403" y="697" type="curve" smooth="yes"/>
      <point x="375" y="697"/>
      <point x="363" y="673"/>
      <point x="369" y="655" type="curve"/>
      <point x="393" y="647"/>
      <point x="405" y="638"/>
      <point x="405" y="619" type="curve" smooth="yes"/>
      <point x="405" y="603"/>
      <point x="397" y="569"/>
      <point x="385" y="528" type="curve"/>
    </contour>
    <contour>
      <point x="594" y="555" type="curve" smooth="yes"/>
      <point x="566" y="555"/>
      <point x="348" y="536"/>
      <point x="195" y="536" type="curve" smooth="yes"/>
      <point x="164" y="536"/>
      <point x="147" y="518"/>
      <point x="147" y="496" type="curve" smooth="yes"/>
      <point x="147" y="476"/>
      <point x="157" y="461"/>
      <point x="170" y="455" type="curve"/>
      <point x="180" y="460"/>
      <point x="191" y="464"/>
      <point x="203" y="468" type="curve"/>
      <point x="183" y="309"/>
      <point x="83" y="77"/>
      <point x="83" y="33" type="curve" smooth="yes"/>
      <point x="83" y="7"/>
      <point x="102" y="-5"/>
      <point x="131" y="-5" type="curve" smooth="yes"/>
      <point x="156" y="-5"/>
      <point x="169" y="-1"/>
      <point x="188" y="3" type="curve"/>
      <point x="185" y="12"/>
      <point x="184" y="21"/>
      <point x="184" y="37" type="curve" smooth="yes"/>
      <point x="184" y="104"/>
      <point x="249" y="318"/>
      <point x="286" y="437" type="curve" smooth="yes"/>
      <point x="299" y="479"/>
      <point x="306" y="487"/>
      <point x="341" y="489" type="curve" smooth="yes"/>
      <point x="394" y="492"/>
      <point x="452" y="497"/>
      <point x="510" y="497" type="curve" smooth="yes"/>
      <point x="536" y="497"/>
      <point x="545" y="483"/>
      <point x="545" y="463" type="curve" smooth="yes"/>
      <point x="545" y="386"/>
      <point x="491" y="287"/>
      <point x="491" y="227" type="curve" smooth="yes"/>
      <point x="491" y="192"/>
      <point x="509" y="171"/>
      <point x="538" y="171" type="curve" smooth="yes"/>
      <point x="555" y="171"/>
      <point x="579" y="175"/>
      <point x="592" y="191" type="curve"/>
      <point x="573" y="257"/>
      <point x="644" y="462"/>
      <point x="644" y="504" type="curve" smooth="yes"/>
      <point x="644" y="537"/>
      <point x="628" y="555"/>
    </contour>
  </outline>
</glyph>
<glyph name="uni1237" format="2">
  <advance width="722"/>
  <unicode hex="1237"/>
  <outline>
    <contour>
      <point x="373" y="528" type="line"/>
      <point x="383" y="558"/>
      <point x="395" y="585"/>
      <point x="408" y="606" type="curve"/>
      <point x="428" y="617"/>
      <point x="440" y="623"/>
      <point x="440" y="639" type="curve" smooth="yes"/>
      <point x="440" y="666"/>
      <point x="366" y="697"/>
      <point x="317" y="697" type="curve" smooth="yes"/>
      <point x="289" y="697"/>
      <point x="277" y="673"/>
      <point x="283" y="655" type="curve"/>
      <point x="307" y="647"/>
      <point x="319" y="638"/>
      <point x="319" y="619" type="curve" smooth="yes"/>
      <point x="319" y="603"/>
      <point x="311" y="569"/>
      <point x="299" y="528" type="curve"/>
    </contour>
    <contour>
      <point x="285" y="-16" type="curve"/>
      <point x="329" y="-12"/>
      <point x="503" y="3"/>
      <point x="575" y="8" type="curve"/>
      <point x="569" y="31" type="line"/>
      <point x="568" y="-45"/>
      <point x="588" y="-69"/>
      <point x="643" y="-69" type="curve" smooth="yes"/>
      <point x="656" y="-69"/>
      <point x="674" y="-67"/>
      <point x="686" y="-63" type="curve"/>
      <point x="677" y="-39"/>
      <point x="673" y="4"/>
      <point x="676" y="31" type="curve"/>
      <point x="643" y="43"/>
      <point x="598" y="54"/>
      <point x="588" y="54" type="curve" smooth="yes"/>
      <point x="561" y="54"/>
      <point x="340" y="36"/>
      <point x="272" y="30" type="curve"/>
      <point x="207" y="38"/>
      <point x="171" y="1"/>
      <point x="171" y="-48" type="curve" smooth="yes"/>
      <point x="171" y="-78"/>
      <point x="192" y="-99"/>
      <point x="230" y="-99" type="curve" smooth="yes"/>
      <point x="241" y="-99"/>
      <point x="254" y="-97"/>
      <point x="268" y="-93" type="curve"/>
      <point x="264" y="-65"/>
      <point x="271" y="-30"/>
    </contour>
    <contour>
      <point x="456" y="539" type="curve" smooth="yes"/>
      <point x="419" y="542"/>
      <point x="298" y="553"/>
      <point x="168" y="553" type="curve" smooth="yes"/>
      <point x="137" y="553"/>
      <point x="120" y="535"/>
      <point x="120" y="513" type="curve" smooth="yes"/>
      <point x="120" y="493"/>
      <point x="130" y="478"/>
      <point x="143" y="472" type="curve"/>
      <point x="153" y="477"/>
      <point x="165" y="481"/>
      <point x="207" y="494" type="curve"/>
      <point x="147" y="515" type="line"/>
      <point x="125" y="422"/>
      <point x="90" y="261"/>
      <point x="90" y="236" type="curve" smooth="yes"/>
      <point x="90" y="210"/>
      <point x="107" y="198"/>
      <point x="134" y="198" type="curve" smooth="yes"/>
      <point x="157" y="198"/>
      <point x="169" y="202"/>
      <point x="187" y="206" type="curve"/>
      <point x="184" y="215"/>
      <point x="183" y="224"/>
      <point x="183" y="240" type="curve" smooth="yes"/>
      <point x="183" y="311"/>
      <point x="190" y="394"/>
      <point x="214" y="465" type="curve" smooth="yes"/>
      <point x="225" y="497"/>
      <point x="234" y="506"/>
      <point x="273" y="506" type="curve" smooth="yes"/>
      <point x="405" y="506"/>
      <point x="466" y="497"/>
      <point x="466" y="452" type="curve" smooth="yes"/>
      <point x="466" y="371"/>
      <point x="394" y="160"/>
      <point x="394" y="57" type="curve" smooth="yes"/>
      <point x="394" y="22"/>
      <point x="412" y="1"/>
      <point x="441" y="1" type="curve" smooth="yes"/>
      <point x="456" y="1"/>
      <point x="476" y="6"/>
      <point x="488" y="21" type="curve"/>
      <point x="459" y="123"/>
      <point x="549" y="405"/>
      <point x="549" y="462" type="curve" smooth="yes"/>
      <point x="549" y="507"/>
      <point x="533" y="534"/>
    </contour>
  </outline>
</glyph>
<glyph name="uni1240" format="2">
  <advance width="823"/>
  <unicode hex="1240"/>
  <outline>
    <contour>
      <point x="503" y="586" type="curve"/>
      <point x="513" y="593"/>
      <point x="520" y="601"/>
      <point x="520" y="615" type="curve" smooth="yes"/>
      <point x="520" y="641"/>
      <point x="471" y="657"/>
      <point x="421" y="657" type="curve" smooth="yes"/>
      <point x="383" y="657"/>
      <point x="373" y="634"/>
      <point x="379" y="611" type="curve"/>
      <point x="403" y="607"/>
      <point x="418" y="598"/>
      <point x="418" y="579" type="curve"/>
      <point x="418" y="560"/>
      <point x="415" y="536"/>
      <point x="412" y="509" type="curve"/>
      <point x="308" y="499"/>
      <point x="199" y="476"/>
      <point x="136" y="446" type="curve" smooth="yes"/>
      <point x="96" y="427"/>
      <point x="70" y="357"/>
      <point x="70" y="294" type="curve" smooth="yes"/>
      <point x="70" y="227"/>
      <point x="188" y="202"/>
      <point x="348" y="200" type="curve"/>
      <point x="326" y="107"/>
      <point x="308" y="29"/>
      <point x="308" y="7" type="curve" smooth="yes"/>
      <point x="308" y="-12"/>
      <point x="318" y="-25"/>
      <point x="341" y="-25" type="curve" smooth="yes"/>
      <point x="363" y="-25"/>
      <point x="381" y="-23"/>
      <point x="398" y="-16" type="curve"/>
      <point x="396" y="-6"/>
      <point x="394" y="2"/>
      <point x="394" y="17" type="curve" smooth="yes"/>
      <point x="394" y="57"/>
      <point x="406" y="127"/>
      <point x="422" y="206" type="curve"/>
      <point x="557" y="238"/>
      <point x="622" y="271"/>
      <point x="663" y="297" type="curve" smooth="yes"/>
      <point x="726" y="338"/>
      <point x="759" y="386"/>
      <point x="759" y="418" type="curve" smooth="yes"/>
      <point x="759" y="472"/>
      <point x="718" y="515"/>
      <point x="524" y="515" type="curve" smooth="yes"/>
      <point x="513" y="515"/>
      <point x="500" y="515"/>
      <point x="488" y="514" type="curve"/>
      <point x="492" y="544"/>
      <point x="498" y="574"/>
    </contour>
    <contour>
      <point x="476.96116135138186" y="453.8058067569092"/>
      <point x="485" y="465"/>
      <point x="516" y="465.0" type="curve" smooth="yes"/>
      <point x="628.0" y="465.0"/>
      <point x="667" y="440"/>
      <point x="667" y="404" type="curve" smooth="yes"/>
      <point x="667" y="331"/>
      <point x="520" y="271"/>
      <point x="462" y="271" type="curve" smooth="yes"/>
      <point x="448" y="271"/>
      <point x="437" y="272"/>
      <point x="443" y="302" type="curve" smooth="yes"/>
      <point x="452" y="347"/>
      <point x="463" y="392"/>
      <point x="473" y="434" type="curve" smooth="yes"/>
    </contour>
    <contour>
      <point x="159" y="326" type="curve" smooth="yes"/>
      <point x="159" y="420"/>
      <point x="292" y="461"/>
      <point x="379" y="461" type="curve" smooth="yes"/>
      <point x="396.0" y="461.0"/>
      <point x="403.0" y="454.0"/>
      <point x="398" y="423" type="curve" smooth="yes"/>
      <point x="393" y="389"/>
      <point x="379" y="331"/>
      <point x="370" y="295" type="curve" smooth="yes"/>
      <point x="364.0" y="270.0"/>
      <point x="353" y="253"/>
      <point x="331" y="253" type="curve" smooth="yes"/>
      <point x="282" y="253"/>
      <point x="159" y="268.0"/>
    </contour>
  </outline>
</glyph>
<glyph name="uni1242" format="2">
  <advance width="828"/>
  <unicode hex="1242"/>
  <outline>
    <contour>
      <point x="635" y="464"/>
      <point x="662" y="435"/>
      <point x="662" y="392" type="curve" smooth="yes"/>
      <point x="662" y="327"/>
      <point x="573" y="267"/>
      <point x="469" y="267" type="curve" smooth="yes"/>
      <point x="455" y="267"/>
      <point x="444" y="268"/>
      <point x="450" y="298" type="curve" smooth="yes"/>
      <point x="459" y="343"/>
      <point x="467" y="394"/>
      <point x="491" y="496" type="curve"/>
      <point x="454" y="464" type="line"/>
    </contour>
    <contour>
      <point x="164" y="331" type="curve" smooth="yes"/>
      <point x="164" y="422"/>
      <point x="287" y="455"/>
      <point x="433" y="460" type="curve"/>
      <point x="407" y="492" type="line"/>
      <point x="394" y="389"/>
      <point x="377" y="325"/>
      <point x="369" y="295" type="curve" smooth="yes"/>
      <point x="361" y="263"/>
      <point x="350" y="253"/>
      <point x="330" y="253" type="curve" smooth="yes"/>
      <point x="220" y="253"/>
      <point x="164" y="279"/>
    </contour>
    <contour>
      <point x="403" y="78" type="curve" smooth="yes"/>
      <point x="403" y="107"/>
      <point x="414" y="150"/>
      <point x="429" y="206" type="curve"/>
      <point x="564" y="222"/>
      <point x="619" y="250"/>
      <point x="661" y="273" type="curve" smooth="yes"/>
      <point x="716" y="303"/>
      <point x="758" y="359"/>
      <point x="758" y="405" type="curve" smooth="yes"/>
      <point x="758" y="464"/>
      <point x="710" y="515"/>
      <point x="553" y="515" type="curve" smooth="yes"/>
      <point x="520" y="515"/>
      <point x="507" y="514"/>
      <point x="495" y="514" type="curve"/>
      <point x="499" y="544"/>
      <point x="505" y="574"/>
      <point x="510" y="586" type="curve"/>
      <point x="520" y="593"/>
      <point x="527" y="601"/>
      <point x="527" y="615" type="curve" smooth="yes"/>
      <point x="527" y="641"/>
      <point x="470" y="657"/>
      <point x="420" y="657" type="curve" smooth="yes"/>
      <point x="382" y="657"/>
      <point x="372" y="634"/>
      <point x="378" y="611" type="curve"/>
      <point x="402" y="607"/>
      <point x="417" y="598"/>
      <point x="417" y="579" type="curve"/>
      <point x="417" y="560"/>
      <point x="414" y="536"/>
      <point x="411" y="509" type="curve"/>
      <point x="291" y="502"/>
      <point x="184" y="473"/>
      <point x="131" y="437" type="curve" smooth="yes"/>
      <point x="102" y="417"/>
      <point x="69" y="369"/>
      <point x="69" y="321" type="curve" smooth="yes"/>
      <point x="69" y="227"/>
      <point x="172" y="195"/>
      <point x="347" y="200" type="curve"/>
      <point x="325" y="128"/>
      <point x="308" y="68"/>
      <point x="308" y="41" type="curve" smooth="yes"/>
      <point x="308" y="10"/>
      <point x="331" y="-8"/>
      <point x="370" y="-8" type="curve" smooth="yes"/>
      <point x="400" y="-8"/>
      <point x="477" y="8"/>
      <point x="568" y="28" type="curve"/>
      <point x="562" y="51" type="line"/>
      <point x="561" y="-25"/>
      <point x="581" y="-49"/>
      <point x="636" y="-49" type="curve" smooth="yes"/>
      <point x="649" y="-49"/>
      <point x="667" y="-47"/>
      <point x="679" y="-43" type="curve"/>
      <point x="670" y="-19"/>
      <point x="666" y="24"/>
      <point x="669" y="51" type="curve"/>
      <point x="636" y="63"/>
      <point x="591" y="74"/>
      <point x="581" y="74" type="curve" smooth="yes"/>
      <point x="551" y="74"/>
      <point x="475" y="47"/>
      <point x="442" y="47" type="curve" smooth="yes"/>
      <point x="416" y="47"/>
      <point x="403" y="54"/>
    </contour>
  </outline>
</glyph>
<glyph name="uni1244" format="2">
  <advance width="825"/>
  <unicode hex="1244"/>
  <outline>
    <contour>
      <point x="635" y="494"/>
      <point x="662" y="465"/>
      <point x="662" y="422" type="curve" smooth="yes"/>
      <point x="662" y="357"/>
      <point x="573" y="297"/>
      <point x="469" y="297" type="curve" smooth="yes"/>
      <point x="455" y="297"/>
      <point x="444" y="298"/>
      <point x="450" y="328" type="curve" smooth="yes"/>
      <point x="458" y="366"/>
      <point x="465" y="410"/>
      <point x="484" y="496" type="curve"/>
      <point x="454" y="494" type="line"/>
    </contour>
    <contour>
      <point x="164" y="361" type="curve" smooth="yes"/>
      <point x="164" y="452"/>
      <point x="287" y="485"/>
      <point x="433" y="490" type="curve"/>
      <point x="406" y="492" type="line"/>
      <point x="394" y="415"/>
      <point x="378" y="351"/>
      <point x="371" y="325" type="curve" smooth="yes"/>
      <point x="363" y="293"/>
      <point x="351" y="283"/>
      <point x="330" y="283" type="curve" smooth="yes"/>
      <point x="220" y="283"/>
      <point x="164" y="309"/>
    </contour>
    <contour>
      <point x="408.0" y="71" type="curve" smooth="yes"/>
      <point x="408.0" y="103"/>
      <point x="414" y="148.0"/>
      <point x="427" y="148.0" type="curve" smooth="yes"/>
      <point x="478" y="148"/>
      <point x="538" y="141"/>
      <point x="558" y="136" type="curve" smooth="yes"/>
      <point x="571" y="133"/>
      <point x="574" y="124"/>
      <point x="574" y="108" type="curve" smooth="yes"/>
      <point x="574.0" y="84.0"/>
      <point x="567" y="66"/>
      <point x="556" y="51" type="curve" smooth="yes"/>
      <point x="548" y="41"/>
      <point x="536" y="37.0"/>
      <point x="517" y="37" type="curve" smooth="yes"/>
      <point x="490.0" y="37"/>
      <point x="459" y="38.0"/>
      <point x="433" y="43" type="curve" smooth="yes"/>
      <point x="418" y="46.0"/>
      <point x="408" y="53"/>
    </contour>
    <contour>
      <point x="422" y="193" type="line"/>
      <point x="425.0" y="209.0"/>
      <point x="428.0" y="226.0"/>
      <point x="432" y="244" type="curve"/>
      <point x="399" y="232" type="line"/>
      <point x="564" y="252"/>
      <point x="619" y="280"/>
      <point x="661" y="303" type="curve" smooth="yes"/>
      <point x="716" y="333"/>
      <point x="758" y="389"/>
      <point x="758" y="435" type="curve" smooth="yes"/>
      <point x="758" y="494"/>
      <point x="710" y="545"/>
      <point x="553" y="545" type="curve" smooth="yes"/>
      <point x="520" y="545"/>
      <point x="507" y="544"/>
      <point x="495" y="544" type="curve"/>
      <point x="497" y="562"/>
      <point x="502" y="579"/>
      <point x="505" y="586" type="curve"/>
      <point x="515" y="593"/>
      <point x="522" y="601"/>
      <point x="522" y="615" type="curve" smooth="yes"/>
      <point x="522" y="641"/>
      <point x="465" y="657"/>
      <point x="415" y="657" type="curve" smooth="yes"/>
      <point x="377" y="657"/>
      <point x="367" y="634"/>
      <point x="373" y="611" type="curve"/>
      <point x="397" y="607"/>
      <point x="412" y="598"/>
      <point x="412" y="579" type="curve"/>
      <point x="412" y="568"/>
      <point x="413" y="554"/>
      <point x="411" y="539" type="curve"/>
      <point x="291" y="532"/>
      <point x="184" y="503"/>
      <point x="131" y="467" type="curve" smooth="yes"/>
      <point x="102" y="447"/>
      <point x="69" y="399"/>
      <point x="69" y="351" type="curve" smooth="yes"/>
      <point x="69" y="257"/>
      <point x="172" y="225"/>
      <point x="377" y="231" type="curve"/>
      <point x="351" y="239" type="line"/>
      <point x="336.0" y="173.0"/>
      <point x="315.0" y="106.0"/>
      <point x="315.0" y="58" type="curve" smooth="yes"/>
      <point x="315.0" y="29.0"/>
      <point x="330.0" y="10"/>
      <point x="372" y="1" type="curve" smooth="yes"/>
      <point x="404" y="-6"/>
      <point x="494" y="-18.0"/>
      <point x="547" y="-18.0" type="curve" smooth="yes"/>
      <point x="587" y="-18.0"/>
      <point x="610" y="-9"/>
      <point x="629" y="13" type="curve" smooth="yes"/>
      <point x="652" y="41"/>
      <point x="660.0" y="86"/>
      <point x="660" y="115" type="curve" smooth="yes"/>
      <point x="660.0" y="145.1153846153846"/>
      <point x="651.0" y="165.19230769230768"/>
      <point x="628" y="173" type="curve" smooth="yes"/>
      <point x="573" y="189"/>
      <point x="458" y="202"/>
      <point x="383" y="205" type="curve"/>
    </contour>
  </outline>
</glyph>
<glyph name="uni1245" format="2">
  <advance width="825"/>
  <unicode hex="1245"/>
  <outline>
    <contour>
      <point x="480" y="465" type="curve" smooth="yes"/>
      <point x="631" y="465"/>
      <point x="661" y="435"/>
      <point x="661" y="392" type="curve" smooth="yes"/>
      <point x="661" y="327"/>
      <point x="573" y="267"/>
      <point x="469" y="267" type="curve" smooth="yes"/>
      <point x="455" y="267"/>
      <point x="444" y="268"/>
      <point x="450" y="298" type="curve" smooth="yes"/>
      <point x="455" y="323"/>
      <point x="469" y="399"/>
      <point x="469" y="450" type="curve" smooth="yes"/>
      <point x="469" y="504"/>
      <point x="458" y="548"/>
      <point x="440" y="591" type="curve" smooth="yes"/>
      <point x="422" y="633"/>
      <point x="397" y="657"/>
      <point x="360" y="657" type="curve" smooth="yes"/>
      <point x="319" y="657"/>
      <point x="296" y="623"/>
      <point x="302" y="591" type="curve"/>
      <point x="326" y="587"/>
      <point x="352" y="570"/>
      <point x="367" y="538" type="curve" smooth="yes"/>
      <point x="383" y="503"/>
      <point x="385" y="463"/>
      <point x="385" y="412" type="curve" smooth="yes"/>
      <point x="385" y="369"/>
      <point x="374" y="313"/>
      <point x="369" y="295" type="curve" smooth="yes"/>
      <point x="361" y="263"/>
      <point x="350" y="253"/>
      <point x="330" y="253" type="curve" smooth="yes"/>
      <point x="220" y="253"/>
      <point x="165" y="279"/>
      <point x="165" y="331" type="curve" smooth="yes"/>
      <point x="165" y="422"/>
      <point x="300" y="465"/>
    </contour>
    <contour>
      <point x="310" y="515"/>
      <point x="193" y="479"/>
      <point x="131" y="437" type="curve" smooth="yes"/>
      <point x="102" y="417"/>
      <point x="69" y="369"/>
      <point x="69" y="321" type="curve" smooth="yes"/>
      <point x="69" y="227"/>
      <point x="172" y="195"/>
      <point x="347" y="200" type="curve"/>
      <point x="325" y="107"/>
      <point x="307" y="39"/>
      <point x="307" y="17" type="curve" smooth="yes"/>
      <point x="307" y="-9"/>
      <point x="322" y="-25"/>
      <point x="345" y="-25" type="curve" smooth="yes"/>
      <point x="374" y="-25"/>
      <point x="388" y="-22"/>
      <point x="405" y="-15" type="curve"/>
      <point x="403" y="-5"/>
      <point x="401" y="12"/>
      <point x="401" y="27" type="curve" smooth="yes"/>
      <point x="401" y="67"/>
      <point x="413" y="127"/>
      <point x="429" y="206" type="curve"/>
      <point x="564" y="222"/>
      <point x="619" y="250"/>
      <point x="661" y="273" type="curve" smooth="yes"/>
      <point x="716" y="303"/>
      <point x="758" y="359"/>
      <point x="758" y="405" type="curve" smooth="yes"/>
      <point x="758" y="464"/>
      <point x="710" y="515"/>
      <point x="553" y="515" type="curve" smooth="yes"/>
    </contour>
  </outline>
</glyph>
<glyph name="uni1246" format="2">
  <advance width="825"/>
  <unicode hex="1246"/>
  <outline>
    <contour>
      <point x="508" y="468" type="curve"/>
      <point x="469" y="434" type="line"/>
      <point x="583" y="462"/>
      <point x="646" y="532"/>
      <point x="646" y="584" type="curve" smooth="yes"/>
      <point x="646" y="635"/>
      <point x="577" y="678"/>
      <point x="511" y="678" type="curve" smooth="yes"/>
      <point x="442" y="678"/>
      <point x="383" y="637"/>
      <point x="383" y="575" type="curve" smooth="yes"/>
      <point x="383" y="538"/>
      <point x="396" y="500"/>
      <point x="416" y="464" type="curve"/>
      <point x="416" y="451"/>
      <point x="413" y="430"/>
      <point x="411" y="419" type="curve"/>
      <point x="291" y="412"/>
      <point x="184" y="383"/>
      <point x="131" y="347" type="curve" smooth="yes"/>
      <point x="102" y="327"/>
      <point x="69" y="279"/>
      <point x="69" y="231" type="curve" smooth="yes"/>
      <point x="69" y="137"/>
      <point x="172" y="105"/>
      <point x="377" y="111" type="curve"/>
      <point x="351" y="132" type="line"/>
      <point x="335" y="66"/>
      <point x="326" y="29"/>
      <point x="326" y="17" type="curve" smooth="yes"/>
      <point x="326" y="-9"/>
      <point x="341" y="-25"/>
      <point x="364" y="-25" type="curve" smooth="yes"/>
      <point x="393" y="-25"/>
      <point x="407" y="-22"/>
      <point x="424" y="-15" type="curve"/>
      <point x="422" y="-5"/>
      <point x="420" y="12"/>
      <point x="420" y="27" type="curve" smooth="yes"/>
      <point x="420" y="49"/>
      <point x="426" y="81"/>
      <point x="438" y="140" type="curve"/>
      <point x="399" y="112" type="line"/>
      <point x="564" y="132"/>
      <point x="619" y="160"/>
      <point x="661" y="183" type="curve" smooth="yes"/>
      <point x="716" y="213"/>
      <point x="758" y="269"/>
      <point x="758" y="315" type="curve" smooth="yes"/>
      <point x="758" y="374"/>
      <point x="710" y="425"/>
      <point x="553" y="425" type="curve" smooth="yes"/>
      <point x="519" y="425"/>
      <point x="506" y="424"/>
      <point x="494" y="424" type="curve"/>
      <point x="496" y="442"/>
      <point x="505" y="459"/>
    </contour>
    <contour>
      <point x="460" y="573" type="curve" smooth="yes"/>
      <point x="460" y="601"/>
      <point x="479" y="620"/>
      <point x="515" y="620" type="curve" smooth="yes"/>
      <point x="544" y="620"/>
      <point x="572" y="603"/>
      <point x="572" y="574" type="curve" smooth="yes"/>
      <point x="572" y="541"/>
      <point x="526" y="502"/>
      <point x="497" y="502" type="curve" smooth="yes"/>
      <point x="480" y="502"/>
      <point x="460" y="534"/>
    </contour>
    <contour>
      <point x="635" y="374"/>
      <point x="662" y="345"/>
      <point x="662" y="302" type="curve" smooth="yes"/>
      <point x="662" y="237"/>
      <point x="573" y="177"/>
      <point x="469" y="177" type="curve" smooth="yes"/>
      <point x="455" y="177"/>
      <point x="446" y="178"/>
      <point x="450" y="208" type="curve" smooth="yes"/>
      <point x="456" y="249"/>
      <point x="465" y="297"/>
      <point x="485" y="390" type="curve"/>
      <point x="454" y="374" type="line"/>
    </contour>
    <contour>
      <point x="164" y="241" type="curve" smooth="yes"/>
      <point x="164" y="332"/>
      <point x="287" y="365"/>
      <point x="433" y="370" type="curve"/>
      <point x="405" y="388" type="line"/>
      <point x="390" y="292"/>
      <point x="377" y="233"/>
      <point x="369" y="205" type="curve" smooth="yes"/>
      <point x="361" y="173"/>
      <point x="350" y="163"/>
      <point x="330" y="163" type="curve" smooth="yes"/>
      <point x="220" y="163"/>
      <point x="164" y="189"/>
    </contour>
  </outline>
</glyph>
<glyph name="uni1247" format="2">
  <advance width="832"/>
  <unicode hex="1247"/>
  <outline>
    <contour>
      <point x="515" y="468" type="curve"/>
      <point x="476" y="434" type="line"/>
      <point x="590" y="462"/>
      <point x="653" y="532"/>
      <point x="653" y="584" type="curve" smooth="yes"/>
      <point x="653" y="635"/>
      <point x="584" y="678"/>
      <point x="518" y="678" type="curve" smooth="yes"/>
      <point x="449" y="678"/>
      <point x="390" y="637"/>
      <point x="390" y="575" type="curve" smooth="yes"/>
      <point x="390" y="538"/>
      <point x="403" y="500"/>
      <point x="423" y="464" type="curve"/>
      <point x="423" y="451"/>
      <point x="420" y="430"/>
      <point x="418" y="419" type="curve"/>
      <point x="298" y="412"/>
      <point x="191" y="383"/>
      <point x="138" y="347" type="curve" smooth="yes"/>
      <point x="109" y="327"/>
      <point x="76" y="279"/>
      <point x="76" y="231" type="curve" smooth="yes"/>
      <point x="76" y="137"/>
      <point x="179" y="105"/>
      <point x="384" y="111" type="curve"/>
      <point x="358" y="132" type="line"/>
      <point x="345" y="87"/>
      <point x="333" y="60"/>
      <point x="333" y="30" type="curve" smooth="yes"/>
      <point x="333" y="11"/>
      <point x="348" y="-5"/>
      <point x="371" y="-5" type="curve" smooth="yes"/>
      <point x="400" y="-5"/>
      <point x="414" y="-2"/>
      <point x="431" y="5" type="curve"/>
      <point x="429" y="14"/>
      <point x="427" y="28"/>
      <point x="427" y="41" type="curve" smooth="yes"/>
      <point x="427" y="60"/>
      <point x="434" y="88"/>
      <point x="445" y="140" type="curve"/>
      <point x="406" y="112" type="line"/>
      <point x="571" y="132"/>
      <point x="626" y="160"/>
      <point x="668" y="183" type="curve" smooth="yes"/>
      <point x="723" y="213"/>
      <point x="765" y="269"/>
      <point x="765" y="315" type="curve" smooth="yes"/>
      <point x="765" y="374"/>
      <point x="717" y="425"/>
      <point x="560" y="425" type="curve" smooth="yes"/>
      <point x="526" y="425"/>
      <point x="513" y="424"/>
      <point x="501" y="424" type="curve"/>
      <point x="503" y="442"/>
      <point x="512" y="459"/>
    </contour>
    <contour>
      <point x="467" y="573" type="curve" smooth="yes"/>
      <point x="467" y="601"/>
      <point x="486" y="620"/>
      <point x="522" y="620" type="curve" smooth="yes"/>
      <point x="551" y="620"/>
      <point x="579" y="603"/>
      <point x="579" y="574" type="curve" smooth="yes"/>
      <point x="579" y="541"/>
      <point x="533" y="502"/>
      <point x="504" y="502" type="curve" smooth="yes"/>
      <point x="487" y="502"/>
      <point x="467" y="534"/>
    </contour>
    <contour>
      <point x="642" y="374"/>
      <point x="669" y="345"/>
      <point x="669" y="302" type="curve" smooth="yes"/>
      <point x="669" y="237"/>
      <point x="580" y="177"/>
      <point x="476" y="177" type="curve" smooth="yes"/>
      <point x="462" y="177"/>
      <point x="453" y="178"/>
      <point x="457" y="208" type="curve" smooth="yes"/>
      <point x="463" y="249"/>
      <point x="472" y="297"/>
      <point x="492" y="390" type="curve"/>
      <point x="461" y="374" type="line"/>
    </contour>
    <contour>
      <point x="171" y="241" type="curve" smooth="yes"/>
      <point x="171" y="332"/>
      <point x="294" y="365"/>
      <point x="440" y="370" type="curve"/>
      <point x="412" y="388" type="line"/>
      <point x="397" y="292"/>
      <point x="384" y="233"/>
      <point x="376" y="205" type="curve" smooth="yes"/>
      <point x="368" y="173"/>
      <point x="357" y="163"/>
      <point x="337" y="163" type="curve" smooth="yes"/>
      <point x="227" y="163"/>
      <point x="171" y="189"/>
    </contour>
    <contour>
      <point x="180" y="-11" type="curve"/>
      <point x="210" y="-7"/>
      <point x="298" y="-2"/>
      <point x="376" y="5" type="curve"/>
      <point x="395" y="53" type="line"/>
      <point x="313" y="39"/>
      <point x="209" y="34"/>
      <point x="167" y="35" type="curve"/>
      <point x="102" y="43"/>
      <point x="66" y="6"/>
      <point x="66" y="-43" type="curve" smooth="yes"/>
      <point x="66" y="-73"/>
      <point x="87" y="-94"/>
      <point x="125" y="-94" type="curve" smooth="yes"/>
      <point x="136" y="-94"/>
      <point x="149" y="-92"/>
      <point x="163" y="-88" type="curve"/>
      <point x="159" y="-60"/>
      <point x="166" y="-25"/>
    </contour>
  </outline>
</glyph>
<glyph name="uni1248" format="2">
  <advance width="920"/>
  <unicode hex="1248"/>
  <outline>
    <contour>
      <point x="850" y="101" type="curve" smooth="yes"/>
      <point x="850" y="162"/>
      <point x="803" y="208"/>
      <point x="711" y="208" type="curve" smooth="yes"/>
      <point x="633" y="208"/>
      <point x="493" y="170"/>
      <point x="385" y="142" type="curve"/>
      <point x="406" y="91" type="line"/>
      <point x="436" y="99"/>
      <point x="464" y="109"/>
      <point x="532" y="125" type="curve"/>
      <point x="510" y="147" type="line"/>
      <point x="520" y="-15"/>
      <point x="619" y="-58"/>
      <point x="683" y="-58" type="curve" smooth="yes"/>
      <point x="770" y="-58"/>
      <point x="850" y="13"/>
    </contour>
    <contour>
      <point x="691" y="150" type="curve" smooth="yes"/>
      <point x="743" y="150"/>
      <point x="764" y="128"/>
      <point x="764" y="93" type="curve" smooth="yes"/>
      <point x="764" y="41"/>
      <point x="724" y="3"/>
      <point x="685" y="3" type="curve" smooth="yes"/>
      <point x="638" y="3"/>
      <point x="594" y="53"/>
      <point x="594" y="104" type="curve" smooth="yes"/>
      <point x="594" y="131"/>
      <point x="632" y="150"/>
    </contour>
    <contour>
      <point x="510" y="586" type="curve"/>
      <point x="520" y="593"/>
      <point x="527" y="601"/>
      <point x="527" y="615" type="curve" smooth="yes"/>
      <point x="527" y="641"/>
      <point x="470" y="657"/>
      <point x="420" y="657" type="curve" smooth="yes"/>
      <point x="382" y="657"/>
      <point x="372" y="634"/>
      <point x="378" y="611" type="curve"/>
      <point x="402" y="607"/>
      <point x="417" y="598"/>
      <point x="417" y="579" type="curve"/>
      <point x="417" y="560"/>
      <point x="414" y="536"/>
      <point x="411" y="509" type="curve"/>
      <point x="291" y="502"/>
      <point x="184" y="473"/>
      <point x="131" y="437" type="curve" smooth="yes"/>
      <point x="102" y="417"/>
      <point x="69" y="369"/>
      <point x="69" y="321" type="curve" smooth="yes"/>
      <point x="69" y="227"/>
      <point x="172" y="195"/>
      <point x="347" y="200" type="curve"/>
      <point x="325" y="107"/>
      <point x="307" y="39"/>
      <point x="307" y="17" type="curve" smooth="yes"/>
      <point x="307" y="-9"/>
      <point x="322" y="-25"/>
      <point x="345" y="-25" type="curve" smooth="yes"/>
      <point x="374" y="-25"/>
      <point x="388" y="-22"/>
      <point x="405" y="-15" type="curve"/>
      <point x="403" y="-5"/>
      <point x="401" y="12"/>
      <point x="401" y="27" type="curve" smooth="yes"/>
      <point x="401" y="67"/>
      <point x="413" y="127"/>
      <point x="429" y="206" type="curve"/>
      <point x="564" y="222"/>
      <point x="619" y="250"/>
      <point x="661" y="273" type="curve" smooth="yes"/>
      <point x="716" y="303"/>
      <point x="758" y="359"/>
      <point x="758" y="405" type="curve" smooth="yes"/>
      <point x="758" y="464"/>
      <point x="710" y="515"/>
      <point x="553" y="515" type="curve" smooth="yes"/>
      <point x="520" y="515"/>
      <point x="507" y="514"/>
      <point x="495" y="514" type="curve"/>
      <point x="499" y="544"/>
      <point x="505" y="574"/>
    </contour>
    <contour>
      <point x="635" y="464"/>
      <point x="662" y="435"/>
      <point x="662" y="392" type="curve" smooth="yes"/>
      <point x="662" y="327"/>
      <point x="573" y="267"/>
      <point x="469" y="267" type="curve" smooth="yes"/>
      <point x="455" y="267"/>
      <point x="444" y="268"/>
      <point x="450" y="298" type="curve" smooth="yes"/>
      <point x="459" y="343"/>
      <point x="467" y="394"/>
      <point x="491" y="496" type="curve"/>
      <point x="454" y="464" type="line"/>
    </contour>
    <contour>
      <point x="164" y="331" type="curve" smooth="yes"/>
      <point x="164" y="422"/>
      <point x="287" y="455"/>
      <point x="433" y="460" type="curve"/>
      <point x="407" y="492" type="line"/>
      <point x="394" y="389"/>
      <point x="377" y="325"/>
      <point x="369" y="295" type="curve" smooth="yes"/>
      <point x="361" y="263"/>
      <point x="350" y="253"/>
      <point x="330" y="253" type="curve" smooth="yes"/>
      <point x="220" y="253"/>
      <point x="164" y="279"/>
    </contour>
  </outline>
</glyph>
<glyph name="uni124A" format="2">
  <advance width="1242"/>
  <unicode hex="124A"/>
  <outline>
    <contour>
      <point x="905" y="257" type="curve" smooth="yes"/>
      <point x="905" y="304"/>
      <point x="992" y="503"/>
      <point x="992" y="543" type="curve" smooth="yes"/>
      <point x="992" y="574"/>
      <point x="976" y="592"/>
      <point x="944" y="592" type="curve" smooth="yes"/>
      <point x="921" y="592"/>
      <point x="904" y="580"/>
      <point x="897" y="564" type="curve"/>
      <point x="918" y="523"/>
      <point x="814" y="309"/>
      <point x="814" y="234" type="curve" smooth="yes"/>
      <point x="814" y="178"/>
      <point x="843" y="153"/>
      <point x="906" y="153" type="curve" smooth="yes"/>
      <point x="954" y="153"/>
      <point x="1010" y="173"/>
      <point x="1073" y="214" type="curve"/>
      <point x="1063" y="222" type="line"/>
      <point x="1062" y="146"/>
      <point x="1082" y="122"/>
      <point x="1137" y="122" type="curve" smooth="yes"/>
      <point x="1150" y="122"/>
      <point x="1168" y="124"/>
      <point x="1180" y="128" type="curve"/>
      <point x="1170" y="156"/>
      <point x="1169" y="209"/>
      <point x="1173" y="242" type="curve"/>
      <point x="1140" y="254"/>
      <point x="1096" y="273"/>
      <point x="1086" y="273" type="curve" smooth="yes"/>
      <point x="1065" y="273"/>
      <point x="995" y="215"/>
      <point x="949" y="215" type="curve" smooth="yes"/>
      <point x="920" y="215"/>
      <point x="905" y="230"/>
    </contour>
    <contour>
      <point x="879" y="428" type="line"/>
      <point x="856" y="428"/>
      <point x="742" y="401"/>
      <point x="701" y="390" type="curve"/>
      <point x="702" y="343" type="line"/>
      <point x="744" y="354"/>
      <point x="828" y="371"/>
      <point x="866" y="376" type="curve"/>
    </contour>
    <contour>
      <point x="510" y="586" type="curve"/>
      <point x="520" y="593"/>
      <point x="527" y="601"/>
      <point x="527" y="615" type="curve" smooth="yes"/>
      <point x="527" y="641"/>
      <point x="470" y="657"/>
      <point x="420" y="657" type="curve" smooth="yes"/>
      <point x="382" y="657"/>
      <point x="372" y="634"/>
      <point x="378" y="611" type="curve"/>
      <point x="402" y="607"/>
      <point x="417" y="598"/>
      <point x="417" y="579" type="curve"/>
      <point x="417" y="560"/>
      <point x="414" y="536"/>
      <point x="411" y="509" type="curve"/>
      <point x="291" y="502"/>
      <point x="184" y="473"/>
      <point x="131" y="437" type="curve" smooth="yes"/>
      <point x="102" y="417"/>
      <point x="69" y="369"/>
      <point x="69" y="321" type="curve" smooth="yes"/>
      <point x="69" y="227"/>
      <point x="172" y="195"/>
      <point x="347" y="200" type="curve"/>
      <point x="325" y="107"/>
      <point x="307" y="39"/>
      <point x="307" y="17" type="curve" smooth="yes"/>
      <point x="307" y="-9"/>
      <point x="322" y="-25"/>
      <point x="345" y="-25" type="curve" smooth="yes"/>
      <point x="374" y="-25"/>
      <point x="388" y="-22"/>
      <point x="405" y="-15" type="curve"/>
      <point x="403" y="-5"/>
      <point x="401" y="12"/>
      <point x="401" y="27" type="curve" smooth="yes"/>
      <point x="401" y="67"/>
      <point x="413" y="127"/>
      <point x="429" y="206" type="curve"/>
      <point x="564" y="222"/>
      <point x="619" y="250"/>
      <point x="661" y="273" type="curve" smooth="yes"/>
      <point x="716" y="303"/>
      <point x="758" y="359"/>
      <point x="758" y="405" type="curve" smooth="yes"/>
      <point x="758" y="464"/>
      <point x="710" y="515"/>
      <point x="553" y="515" type="curve" smooth="yes"/>
      <point x="520" y="515"/>
      <point x="507" y="514"/>
      <point x="495" y="514" type="curve"/>
      <point x="499" y="544"/>
      <point x="505" y="574"/>
    </contour>
    <contour>
      <point x="635" y="464"/>
      <point x="662" y="435"/>
      <point x="662" y="392" type="curve" smooth="yes"/>
      <point x="662" y="327"/>
      <point x="573" y="267"/>
      <point x="469" y="267" type="curve" smooth="yes"/>
      <point x="455" y="267"/>
      <point x="444" y="268"/>
      <point x="450" y="298" type="curve" smooth="yes"/>
      <point x="459" y="343"/>
      <point x="467" y="394"/>
      <point x="491" y="496" type="curve"/>
      <point x="454" y="464" type="line"/>
    </contour>
    <contour>
      <point x="164" y="331" type="curve" smooth="yes"/>
      <point x="164" y="422"/>
      <point x="287" y="455"/>
      <point x="433" y="460" type="curve"/>
      <point x="407" y="492" type="line"/>
      <point x="394" y="389"/>
      <point x="377" y="325"/>
      <point x="369" y="295" type="curve" smooth="yes"/>
      <point x="361" y="263"/>
      <point x="350" y="253"/>
      <point x="330" y="253" type="curve" smooth="yes"/>
      <point x="220" y="253"/>
      <point x="164" y="279"/>
    </contour>
  </outline>
</glyph>
<glyph name="uni124C" format="2">
  <advance width="811"/>
  <unicode hex="124C"/>
  <outline>
    <contour>
      <point x="747" y="438" type="curve" smooth="yes"/>
      <point x="747" y="492"/>
      <point x="709" y="535"/>
      <point x="529" y="535" type="curve" smooth="yes"/>
      <point x="401" y="535"/>
      <point x="228" y="507"/>
      <point x="141" y="466" type="curve" smooth="yes"/>
      <point x="102" y="447"/>
      <point x="75" y="386"/>
      <point x="75" y="329" type="curve" smooth="yes"/>
      <point x="75" y="271"/>
      <point x="198" y="250"/>
      <point x="383" y="250" type="curve"/>
      <point x="382" y="301" type="line"/>
      <point x="244" y="308"/>
      <point x="164" y="320"/>
      <point x="164" y="361" type="curve" smooth="yes"/>
      <point x="164" y="432"/>
      <point x="241" y="485"/>
      <point x="486" y="485" type="curve" smooth="yes"/>
      <point x="625" y="485"/>
      <point x="655" y="462"/>
      <point x="655" y="424" type="curve" smooth="yes"/>
      <point x="655" y="375"/>
      <point x="574" y="313"/>
      <point x="406" y="303" type="curve"/>
      <point x="416" y="250" type="line"/>
      <point x="553" y="273"/>
      <point x="629" y="306"/>
      <point x="668" y="332" type="curve" smooth="yes"/>
      <point x="721" y="367"/>
      <point x="747" y="410"/>
    </contour>
    <contour>
      <point x="503" y="182"/>
      <point x="548" y="146"/>
      <point x="548" y="110" type="curve" smooth="yes"/>
      <point x="548" y="78"/>
      <point x="529" y="48"/>
      <point x="479" y="48" type="curve" smooth="yes"/>
      <point x="441" y="48"/>
      <point x="405" y="65"/>
      <point x="405" y="109" type="curve" smooth="yes"/>
      <point x="405" y="149"/>
      <point x="412" y="182"/>
      <point x="456" y="182" type="curve" smooth="yes"/>
    </contour>
    <contour>
      <point x="421" y="213" type="line"/>
      <point x="428" y="285"/>
      <point x="495" y="516"/>
      <point x="504" y="586" type="curve"/>
      <point x="514" y="593"/>
      <point x="521" y="601"/>
      <point x="521" y="615" type="curve" smooth="yes"/>
      <point x="521" y="641"/>
      <point x="472" y="657"/>
      <point x="422" y="657" type="curve" smooth="yes"/>
      <point x="384" y="657"/>
      <point x="374" y="634"/>
      <point x="380" y="611" type="curve"/>
      <point x="404" y="607"/>
      <point x="419" y="598"/>
      <point x="419" y="579" type="curve"/>
      <point x="417" y="469"/>
      <point x="327" y="219"/>
      <point x="327" y="110" type="curve" smooth="yes"/>
      <point x="327" y="22"/>
      <point x="405" y="-11"/>
      <point x="478" y="-11" type="curve" smooth="yes"/>
      <point x="575" y="-11"/>
      <point x="627" y="44"/>
      <point x="627" y="110" type="curve" smooth="yes"/>
      <point x="627" y="172"/>
      <point x="545" y="226"/>
      <point x="453" y="226" type="curve" smooth="yes"/>
      <point x="429" y="226"/>
      <point x="409" y="225"/>
      <point x="384" y="220" type="curve"/>
    </contour>
    <contour>
      <point x="386" y="49" type="line"/>
      <point x="328" y="42"/>
      <point x="208" y="37"/>
      <point x="119" y="41" type="curve"/>
      <point x="87" y="25"/>
      <point x="61" y="-25"/>
      <point x="61" y="-63" type="curve" smooth="yes"/>
      <point x="61" y="-88"/>
      <point x="91" y="-103"/>
      <point x="146" y="-94" type="curve"/>
      <point x="147" y="-61"/>
      <point x="158" y="-19"/>
      <point x="187" y="19" type="curve"/>
      <point x="156" y="-7" type="line"/>
      <point x="232" y="-3"/>
      <point x="340" y="1"/>
      <point x="419" y="3" type="curve"/>
    </contour>
  </outline>
</glyph>
<glyph name="uni124D" format="2">
  <advance width="1116"/>
  <unicode hex="124D"/>
  <outline>
    <contour>
      <point x="510" y="586" type="curve"/>
      <point x="520" y="593"/>
      <point x="527" y="601"/>
      <point x="527" y="615" type="curve" smooth="yes"/>
      <point x="527" y="641"/>
      <point x="470" y="657"/>
      <point x="420" y="657" type="curve" smooth="yes"/>
      <point x="382" y="657"/>
      <point x="372" y="634"/>
      <point x="378" y="611" type="curve"/>
      <point x="402" y="607"/>
      <point x="417" y="598"/>
      <point x="417" y="579" type="curve"/>
      <point x="417" y="560"/>
      <point x="414" y="536"/>
      <point x="411" y="509" type="curve"/>
      <point x="291" y="502"/>
      <point x="184" y="473"/>
      <point x="131" y="437" type="curve" smooth="yes"/>
      <point x="102" y="417"/>
      <point x="69" y="369"/>
      <point x="69" y="321" type="curve" smooth="yes"/>
      <point x="69" y="227"/>
      <point x="172" y="195"/>
      <point x="347" y="200" type="curve"/>
      <point x="325" y="107"/>
      <point x="307" y="39"/>
      <point x="307" y="17" type="curve" smooth="yes"/>
      <point x="307" y="-9"/>
      <point x="322" y="-25"/>
      <point x="345" y="-25" type="curve" smooth="yes"/>
      <point x="374" y="-25"/>
      <point x="388" y="-22"/>
      <point x="405" y="-15" type="curve"/>
      <point x="403" y="-5"/>
      <point x="401" y="12"/>
      <point x="401" y="27" type="curve" smooth="yes"/>
      <point x="401" y="67"/>
      <point x="413" y="127"/>
      <point x="429" y="206" type="curve"/>
      <point x="564" y="222"/>
      <point x="619" y="250"/>
      <point x="661" y="273" type="curve" smooth="yes"/>
      <point x="716" y="303"/>
      <point x="758" y="359"/>
      <point x="758" y="405" type="curve" smooth="yes"/>
      <point x="758" y="464"/>
      <point x="710" y="515"/>
      <point x="553" y="515" type="curve" smooth="yes"/>
      <point x="520" y="515"/>
      <point x="507" y="514"/>
      <point x="495" y="514" type="curve"/>
      <point x="499" y="544"/>
      <point x="505" y="574"/>
    </contour>
    <contour>
      <point x="635" y="464"/>
      <point x="662" y="435"/>
      <point x="662" y="392" type="curve" smooth="yes"/>
      <point x="662" y="327"/>
      <point x="573" y="267"/>
      <point x="469" y="267" type="curve" smooth="yes"/>
      <point x="455" y="267"/>
      <point x="444" y="268"/>
      <point x="450" y="298" type="curve" smooth="yes"/>
      <point x="459" y="343"/>
      <point x="467" y="394"/>
      <point x="491" y="496" type="curve"/>
      <point x="454" y="464" type="line"/>
    </contour>
    <contour>
      <point x="164" y="331" type="curve" smooth="yes"/>
      <point x="164" y="422"/>
      <point x="287" y="455"/>
      <point x="433" y="460" type="curve"/>
      <point x="407" y="492" type="line"/>
      <point x="394" y="389"/>
      <point x="377" y="325"/>
      <point x="369" y="295" type="curve" smooth="yes"/>
      <point x="361" y="263"/>
      <point x="350" y="253"/>
      <point x="330" y="253" type="curve" smooth="yes"/>
      <point x="220" y="253"/>
      <point x="164" y="279"/>
    </contour>
    <contour>
      <point x="870" y="599"/>
      <point x="779" y="480"/>
      <point x="779" y="401" type="curve" smooth="yes"/>
      <point x="779" y="370"/>
      <point x="790" y="352"/>
      <point x="819" y="352" type="curve" smooth="yes"/>
      <point x="857" y="352"/>
      <point x="916" y="379"/>
      <point x="976" y="390" type="curve"/>
      <point x="955" y="407" type="line"/>
      <point x="941" y="340"/>
      <point x="974" y="313"/>
      <point x="1060" y="327" type="curve"/>
      <point x="1048" y="356"/>
      <point x="1045" y="386"/>
      <point x="1043" y="410" type="curve"/>
      <point x="1021" y="416"/>
      <point x="999" y="423"/>
      <point x="980" y="426" type="curve" smooth="yes"/>
      <point x="961" y="430"/>
      <point x="952" y="430"/>
      <point x="931" y="424" type="curve" smooth="yes"/>
      <point x="899" y="415"/>
      <point x="873" y="407"/>
      <point x="822" y="397" type="curve"/>
      <point x="875" y="385" type="line"/>
      <point x="866" y="398"/>
      <point x="863" y="405"/>
      <point x="863" y="419" type="curve" smooth="yes"/>
      <point x="863" y="455"/>
      <point x="911" y="531"/>
      <point x="966" y="551" type="curve"/>
      <point x="957" y="585"/>
      <point x="945" y="599"/>
      <point x="918" y="599" type="curve" smooth="yes"/>
    </contour>
  </outline>
</glyph>
<glyph name="uni1260" format="2">
  <advance width="731"/>
  <unicode hex="1260"/>
  <outline>
    <contour>
      <point x="165" y="570" type="curve"/>
      <point x="160" y="562"/>
      <point x="158" y="554"/>
      <point x="158" y="547" type="curve" smooth="yes"/>
      <point x="158.0" y="525.0"/>
      <point x="170" y="512.0"/>
      <point x="196" y="512" type="curve" smooth="yes"/>
      <point x="212" y="512"/>
      <point x="242" y="518.0"/>
      <point x="263" y="522" type="curve"/>
      <point x="177" y="372"/>
      <point x="84" y="172"/>
      <point x="84" y="45" type="curve" smooth="yes"/>
      <point x="84" y="7"/>
      <point x="101" y="-5"/>
      <point x="128" y="-5" type="curve" smooth="yes"/>
      <point x="150" y="-5"/>
      <point x="163" y="-2"/>
      <point x="178" y="4" type="curve"/>
      <point x="176" y="14"/>
      <point x="175" y="21"/>
      <point x="175" y="37" type="curve" smooth="yes"/>
      <point x="175" y="172"/>
      <point x="254" y="358"/>
      <point x="328" y="489" type="curve" smooth="yes"/>
      <point x="347" y="523"/>
      <point x="362" y="533"/>
      <point x="396" y="533" type="curve" smooth="yes"/>
      <point x="504" y="533"/>
      <point x="539" y="518"/>
      <point x="539" y="485" type="curve" smooth="yes"/>
      <point x="539" y="384"/>
      <point x="455" y="175"/>
      <point x="455" y="49" type="curve" smooth="yes"/>
      <point x="455" y="14"/>
      <point x="475" y="-7"/>
      <point x="507" y="-7" type="curve" smooth="yes"/>
      <point x="523" y="-7"/>
      <point x="545" y="-2"/>
      <point x="557" y="13" type="curve"/>
      <point x="524" y="138"/>
      <point x="631" y="420"/>
      <point x="631" y="512" type="curve" smooth="yes"/>
      <point x="631.0" y="572.0"/>
      <point x="543.0" y="593.0"/>
      <point x="445" y="593" type="curve" smooth="yes"/>
      <point x="344" y="593"/>
      <point x="258" y="580.0"/>
    </contour>
  </outline>
</glyph>
<glyph name="uni1261" format="2">
  <advance width="903"/>
  <unicode hex="1261"/>
  <outline>
    <contour>
      <point x="543" y="595" type="curve" smooth="yes"/>
      <point x="486" y="595"/>
      <point x="352" y="576"/>
      <point x="214" y="576" type="curve" smooth="yes"/>
      <point x="183" y="576"/>
      <point x="166" y="558"/>
      <point x="166" y="536" type="curve" smooth="yes"/>
      <point x="166" y="516"/>
      <point x="176" y="501"/>
      <point x="189" y="495" type="curve"/>
      <point x="194" y="497"/>
      <point x="200" y="500"/>
      <point x="206" y="502" type="curve"/>
      <point x="176" y="331"/>
      <point x="84" y="81"/>
      <point x="84" y="33" type="curve" smooth="yes"/>
      <point x="84" y="7"/>
      <point x="101" y="-5"/>
      <point x="128" y="-5" type="curve" smooth="yes"/>
      <point x="152" y="-5"/>
      <point x="165" y="-2"/>
      <point x="185" y="2" type="curve"/>
      <point x="183" y="12"/>
      <point x="181" y="21"/>
      <point x="181" y="37" type="curve" smooth="yes"/>
      <point x="181" y="110"/>
      <point x="243" y="343"/>
      <point x="285" y="474" type="curve" smooth="yes"/>
      <point x="298" y="515"/>
      <point x="309" y="523"/>
      <point x="345" y="527" type="curve" smooth="yes"/>
      <point x="389" y="533"/>
      <point x="444" y="537"/>
      <point x="498" y="537" type="curve" smooth="yes"/>
      <point x="524" y="537"/>
      <point x="533" y="523"/>
      <point x="533" y="503" type="curve" smooth="yes"/>
      <point x="533" y="385"/>
      <point x="439" y="170"/>
      <point x="439" y="58" type="curve" smooth="yes"/>
      <point x="439" y="23"/>
      <point x="459" y="2"/>
      <point x="491" y="2" type="curve" smooth="yes"/>
      <point x="506" y="2"/>
      <point x="525" y="7"/>
      <point x="537" y="22" type="curve"/>
      <point x="506" y="138"/>
      <point x="626" y="464"/>
      <point x="626" y="524" type="curve" smooth="yes"/>
      <point x="626" y="569"/>
      <point x="606" y="595"/>
    </contour>
    <contour>
      <point x="556" y="283" type="line"/>
      <point x="598" y="294"/>
      <point x="682" y="311"/>
      <point x="720" y="316" type="curve"/>
      <point x="709" y="339" type="line"/>
      <point x="705" y="263"/>
      <point x="732" y="239"/>
      <point x="783" y="239" type="curve" smooth="yes"/>
      <point x="796" y="239"/>
      <point x="814" y="241"/>
      <point x="826" y="245" type="curve"/>
      <point x="817" y="269"/>
      <point x="813" y="312"/>
      <point x="816" y="339" type="curve"/>
      <point x="785" y="350"/>
      <point x="742" y="368"/>
      <point x="733" y="368" type="curve" smooth="yes"/>
      <point x="710" y="368"/>
      <point x="596" y="341"/>
      <point x="555" y="330" type="curve"/>
    </contour>
  </outline>
</glyph>
<glyph name="uni1262" format="2">
  <advance width="871"/>
  <unicode hex="1262"/>
  <outline>
    <contour>
      <point x="550" y="76" type="curve" smooth="yes"/>
      <point x="550" y="177"/>
      <point x="631" y="432"/>
      <point x="631" y="512" type="curve" smooth="yes"/>
      <point x="631" y="562"/>
      <point x="589" y="579"/>
      <point x="500" y="588" type="curve" smooth="yes"/>
      <point x="441" y="594"/>
      <point x="363" y="596"/>
      <point x="263" y="596" type="curve" smooth="yes"/>
      <point x="229" y="596"/>
      <point x="215" y="579"/>
      <point x="215" y="556" type="curve" smooth="yes"/>
      <point x="215" y="536"/>
      <point x="225" y="521"/>
      <point x="238" y="515" type="curve"/>
      <point x="245" y="516"/>
      <point x="251" y="517"/>
      <point x="258" y="518" type="curve"/>
      <point x="175" y="369"/>
      <point x="84" y="171"/>
      <point x="84" y="45" type="curve" smooth="yes"/>
      <point x="84" y="7"/>
      <point x="101" y="-5"/>
      <point x="128" y="-5" type="curve" smooth="yes"/>
      <point x="150" y="-5"/>
      <point x="163" y="-2"/>
      <point x="178" y="4" type="curve"/>
      <point x="176" y="14"/>
      <point x="175" y="21"/>
      <point x="175" y="37" type="curve" smooth="yes"/>
      <point x="175" y="172"/>
      <point x="254" y="358"/>
      <point x="328" y="489" type="curve" smooth="yes"/>
      <point x="347" y="523"/>
      <point x="362" y="533"/>
      <point x="396" y="533" type="curve" smooth="yes"/>
      <point x="504" y="533"/>
      <point x="539" y="518"/>
      <point x="539" y="485" type="curve" smooth="yes"/>
      <point x="539" y="385"/>
      <point x="455" y="177"/>
      <point x="455" y="52" type="curve" smooth="yes"/>
      <point x="455" y="13"/>
      <point x="480" y="-10"/>
      <point x="522" y="-10" type="curve" smooth="yes"/>
      <point x="552" y="-10"/>
      <point x="629" y="6"/>
      <point x="720" y="26" type="curve"/>
      <point x="714" y="49" type="line"/>
      <point x="713" y="-27"/>
      <point x="733" y="-51"/>
      <point x="788" y="-51" type="curve" smooth="yes"/>
      <point x="801" y="-51"/>
      <point x="819" y="-49"/>
      <point x="831" y="-45" type="curve"/>
      <point x="822" y="-21"/>
      <point x="818" y="22"/>
      <point x="821" y="49" type="curve"/>
      <point x="788" y="61"/>
      <point x="743" y="72"/>
      <point x="733" y="72" type="curve" smooth="yes"/>
      <point x="703" y="72"/>
      <point x="627" y="45"/>
      <point x="594" y="45" type="curve" smooth="yes"/>
      <point x="565" y="45"/>
      <point x="550" y="52"/>
    </contour>
  </outline>
</glyph>
<glyph name="uni1263" format="2">
  <advance width="664"/>
  <unicode hex="1263"/>
  <outline>
    <contour>
      <point x="486" y="595" type="curve" smooth="yes"/>
      <point x="429" y="595"/>
      <point x="295" y="576"/>
      <point x="157" y="576" type="curve" smooth="yes"/>
      <point x="126" y="576"/>
      <point x="109" y="558"/>
      <point x="109" y="536" type="curve" smooth="yes"/>
      <point x="109" y="516"/>
      <point x="119" y="501"/>
      <point x="132" y="495" type="curve"/>
      <point x="137" y="497"/>
      <point x="143" y="500"/>
      <point x="149" y="502" type="curve"/>
      <point x="134" y="415"/>
      <point x="87" y="287"/>
      <point x="87" y="263" type="curve" smooth="yes"/>
      <point x="87" y="237"/>
      <point x="104" y="225"/>
      <point x="131" y="225" type="curve" smooth="yes"/>
      <point x="155" y="225"/>
      <point x="170" y="227"/>
      <point x="188" y="232" type="curve"/>
      <point x="186" y="242"/>
      <point x="184" y="251"/>
      <point x="184" y="267" type="curve" smooth="yes"/>
      <point x="184" y="302"/>
      <point x="208" y="413"/>
      <point x="228" y="474" type="curve" smooth="yes"/>
      <point x="241" y="515"/>
      <point x="252" y="523"/>
      <point x="288" y="527" type="curve" smooth="yes"/>
      <point x="332" y="533"/>
      <point x="387" y="537"/>
      <point x="441" y="537" type="curve" smooth="yes"/>
      <point x="467" y="537"/>
      <point x="476" y="523"/>
      <point x="476" y="503" type="curve" smooth="yes"/>
      <point x="476" y="385"/>
      <point x="382" y="170"/>
      <point x="382" y="58" type="curve" smooth="yes"/>
      <point x="382" y="23"/>
      <point x="402" y="2"/>
      <point x="434" y="2" type="curve" smooth="yes"/>
      <point x="449" y="2"/>
      <point x="468" y="7"/>
      <point x="480" y="22" type="curve"/>
      <point x="449" y="138"/>
      <point x="569" y="464"/>
      <point x="569" y="524" type="curve" smooth="yes"/>
      <point x="569" y="569"/>
      <point x="549" y="595"/>
    </contour>
  </outline>
</glyph>
<glyph name="uni1264" format="2">
  <advance width="825"/>
  <unicode hex="1264"/>
  <outline>
    <contour>
      <point x="442.0" y="58" type="curve" smooth="yes"/>
      <point x="442.0" y="29.0"/>
      <point x="457.0" y="10"/>
      <point x="499" y="1" type="curve" smooth="yes"/>
      <point x="531" y="-6"/>
      <point x="621" y="-18.0"/>
      <point x="674" y="-18.0" type="curve" smooth="yes"/>
      <point x="714" y="-18.0"/>
      <point x="737" y="-9"/>
      <point x="756" y="13" type="curve" smooth="yes"/>
      <point x="779" y="41"/>
      <point x="787.0" y="86"/>
      <point x="787" y="115" type="curve" smooth="yes"/>
      <point x="787.0" y="145.1153846153846"/>
      <point x="777.0" y="162.96153846153845"/>
      <point x="755" y="173" type="curve" smooth="yes"/>
      <point x="702" y="195.0"/>
      <point x="587" y="211.0"/>
      <point x="513" y="215" type="curve"/>
      <point x="552" y="175" type="line"/>
      <point x="560" y="233"/>
      <point x="631.0" y="449.0"/>
      <point x="631" y="512" type="curve" smooth="yes"/>
      <point x="631" y="562"/>
      <point x="589" y="579"/>
      <point x="500" y="588" type="curve" smooth="yes"/>
      <point x="441" y="594"/>
      <point x="363" y="596"/>
      <point x="263" y="596" type="curve" smooth="yes"/>
      <point x="229" y="596"/>
      <point x="215" y="579"/>
      <point x="215" y="556" type="curve" smooth="yes"/>
      <point x="215" y="536"/>
      <point x="225" y="521"/>
      <point x="238" y="515" type="curve"/>
      <point x="245" y="516"/>
      <point x="251" y="517"/>
      <point x="258" y="518" type="curve"/>
      <point x="175" y="369"/>
      <point x="84" y="171"/>
      <point x="84" y="45" type="curve" smooth="yes"/>
      <point x="84" y="7"/>
      <point x="101" y="-5"/>
      <point x="128" y="-5" type="curve" smooth="yes"/>
      <point x="150" y="-5"/>
      <point x="163" y="-2"/>
      <point x="178" y="4" type="curve"/>
      <point x="176" y="14"/>
      <point x="175" y="21"/>
      <point x="175" y="37" type="curve" smooth="yes"/>
      <point x="175" y="172"/>
      <point x="254" y="358"/>
      <point x="328" y="489" type="curve" smooth="yes"/>
      <point x="347" y="523"/>
      <point x="362" y="533"/>
      <point x="396" y="533" type="curve" smooth="yes"/>
      <point x="504" y="533"/>
      <point x="539" y="518"/>
      <point x="539" y="485" type="curve" smooth="yes"/>
      <point x="539.0" y="389.2693548387097"/>
      <point x="442.0" y="157"/>
    </contour>
    <contour>
      <point x="535.0" y="71" type="curve" smooth="yes"/>
      <point x="535.0" y="107.0"/>
      <point x="548" y="158.0"/>
      <point x="557" y="158.0" type="curve" smooth="yes"/>
      <point x="607" y="158.0"/>
      <point x="667" y="147.0"/>
      <point x="690" y="135" type="curve" smooth="yes"/>
      <point x="697" y="131"/>
      <point x="701" y="124"/>
      <point x="701" y="108" type="curve" smooth="yes"/>
      <point x="701.0" y="84.0"/>
      <point x="694" y="66"/>
      <point x="683" y="51" type="curve" smooth="yes"/>
      <point x="675" y="41"/>
      <point x="663" y="37.0"/>
      <point x="644" y="37" type="curve" smooth="yes"/>
      <point x="617.0" y="37"/>
      <point x="586" y="38.0"/>
      <point x="560" y="43" type="curve" smooth="yes"/>
      <point x="545" y="46.0"/>
      <point x="535" y="53"/>
    </contour>
  </outline>
</glyph>
<glyph name="uni1265" format="2">
  <advance width="881"/>
  <unicode hex="1265"/>
  <outline>
    <contour>
      <point x="176" y="234" type="curve"/>
      <point x="201" y="236"/>
      <point x="264" y="242"/>
      <point x="331" y="248" type="curve"/>
      <point x="350" y="296" type="line"/>
      <point x="279" y="290"/>
      <point x="197" y="283"/>
      <point x="160" y="280" type="curve"/>
      <point x="95" y="288"/>
      <point x="59" y="251"/>
      <point x="59" y="202" type="curve" smooth="yes"/>
      <point x="59" y="172"/>
      <point x="80" y="151"/>
      <point x="118" y="151" type="curve" smooth="yes"/>
      <point x="129" y="151"/>
      <point x="145" y="153"/>
      <point x="159" y="157" type="curve"/>
      <point x="155" y="185"/>
      <point x="162" y="220"/>
    </contour>
    <contour>
      <point x="703" y="595" type="curve" smooth="yes"/>
      <point x="646" y="595"/>
      <point x="512" y="576"/>
      <point x="374" y="576" type="curve" smooth="yes"/>
      <point x="343" y="576"/>
      <point x="326" y="558"/>
      <point x="326" y="536" type="curve" smooth="yes"/>
      <point x="326" y="516"/>
      <point x="336" y="501"/>
      <point x="349" y="495" type="curve"/>
      <point x="354" y="497"/>
      <point x="360" y="500"/>
      <point x="366" y="502" type="curve"/>
      <point x="336" y="331"/>
      <point x="244" y="81"/>
      <point x="244" y="33" type="curve" smooth="yes"/>
      <point x="244" y="7"/>
      <point x="261" y="-5"/>
      <point x="288" y="-5" type="curve" smooth="yes"/>
      <point x="312" y="-5"/>
      <point x="325" y="-2"/>
      <point x="345" y="2" type="curve"/>
      <point x="343" y="12"/>
      <point x="341" y="21"/>
      <point x="341" y="37" type="curve" smooth="yes"/>
      <point x="341" y="110"/>
      <point x="403" y="343"/>
      <point x="445" y="474" type="curve" smooth="yes"/>
      <point x="458" y="515"/>
      <point x="469" y="523"/>
      <point x="505" y="527" type="curve" smooth="yes"/>
      <point x="549" y="533"/>
      <point x="604" y="537"/>
      <point x="658" y="537" type="curve" smooth="yes"/>
      <point x="684" y="537"/>
      <point x="693" y="523"/>
      <point x="693" y="503" type="curve" smooth="yes"/>
      <point x="693" y="385"/>
      <point x="599" y="170"/>
      <point x="599" y="58" type="curve" smooth="yes"/>
      <point x="599" y="23"/>
      <point x="619" y="2"/>
      <point x="651" y="2" type="curve" smooth="yes"/>
      <point x="666" y="2"/>
      <point x="685" y="7"/>
      <point x="697" y="22" type="curve"/>
      <point x="666" y="138"/>
      <point x="786" y="464"/>
      <point x="786" y="524" type="curve" smooth="yes"/>
      <point x="786" y="569"/>
      <point x="766" y="595"/>
    </contour>
  </outline>
</glyph>
<glyph name="uni1266" format="2">
  <advance width="717"/>
  <unicode hex="1266"/>
  <outline>
    <contour>
      <point x="631" y="512" type="curve" smooth="yes"/>
      <point x="631.0" y="462.0"/>
      <point x="571" y="311"/>
      <point x="589" y="243" type="curve"/>
      <point x="577" y="228"/>
      <point x="555" y="223"/>
      <point x="539" y="223" type="curve" smooth="yes"/>
      <point x="507" y="223"/>
      <point x="487" y="244"/>
      <point x="487" y="279" type="curve" smooth="yes"/>
      <point x="487" y="339"/>
      <point x="539" y="437"/>
      <point x="539" y="485" type="curve" smooth="yes"/>
      <point x="539.0" y="518.0"/>
      <point x="504" y="533"/>
      <point x="396" y="533" type="curve" smooth="yes"/>
      <point x="362" y="533"/>
      <point x="347" y="523"/>
      <point x="328" y="489" type="curve" smooth="yes"/>
      <point x="254" y="358"/>
      <point x="175" y="172"/>
      <point x="175" y="37" type="curve" smooth="yes"/>
      <point x="175" y="21"/>
      <point x="176" y="14"/>
      <point x="178" y="4" type="curve"/>
      <point x="163" y="-2"/>
      <point x="150" y="-5"/>
      <point x="128" y="-5" type="curve" smooth="yes"/>
      <point x="101" y="-5"/>
      <point x="84" y="7"/>
      <point x="84" y="45" type="curve" smooth="yes"/>
      <point x="84" y="172"/>
      <point x="177" y="372"/>
      <point x="263" y="522" type="curve"/>
      <point x="242" y="518.0"/>
      <point x="212" y="512"/>
      <point x="196" y="512" type="curve" smooth="yes"/>
      <point x="170" y="512.0"/>
      <point x="158.0" y="525.0"/>
      <point x="158" y="547" type="curve" smooth="yes"/>
      <point x="158" y="554"/>
      <point x="160" y="562"/>
      <point x="165" y="570" type="curve"/>
      <point x="258" y="580.0"/>
      <point x="344" y="593"/>
      <point x="445" y="593" type="curve" smooth="yes"/>
      <point x="543.0" y="593.0"/>
      <point x="631.0" y="572.0"/>
    </contour>
  </outline>
</glyph>
<glyph name="uni1267" format="2">
  <advance width="716"/>
  <unicode hex="1267"/>
  <outline>
    <contour>
      <point x="487" y="595" type="curve" smooth="yes"/>
      <point x="430" y="595"/>
      <point x="296" y="576"/>
      <point x="158" y="576" type="curve" smooth="yes"/>
      <point x="127" y="576"/>
      <point x="110" y="558"/>
      <point x="110" y="536" type="curve" smooth="yes"/>
      <point x="110" y="516"/>
      <point x="120" y="501"/>
      <point x="133" y="495" type="curve"/>
      <point x="138" y="497"/>
      <point x="144" y="500"/>
      <point x="150" y="502" type="curve"/>
      <point x="135" y="415"/>
      <point x="88" y="287"/>
      <point x="88" y="263" type="curve" smooth="yes"/>
      <point x="88" y="237"/>
      <point x="105" y="225"/>
      <point x="132" y="225" type="curve" smooth="yes"/>
      <point x="156" y="225"/>
      <point x="171" y="227"/>
      <point x="189" y="232" type="curve"/>
      <point x="187" y="242"/>
      <point x="185" y="251"/>
      <point x="185" y="267" type="curve" smooth="yes"/>
      <point x="185" y="302"/>
      <point x="209" y="413"/>
      <point x="229" y="474" type="curve" smooth="yes"/>
      <point x="242" y="515"/>
      <point x="253" y="523"/>
      <point x="289" y="527" type="curve" smooth="yes"/>
      <point x="333" y="533"/>
      <point x="388" y="537"/>
      <point x="442" y="537" type="curve" smooth="yes"/>
      <point x="468" y="537"/>
      <point x="477" y="523"/>
      <point x="477" y="503" type="curve" smooth="yes"/>
      <point x="477" y="385"/>
      <point x="383" y="170"/>
      <point x="383" y="58" type="curve" smooth="yes"/>
      <point x="383" y="23"/>
      <point x="403" y="2"/>
      <point x="435" y="2" type="curve" smooth="yes"/>
      <point x="450" y="2"/>
      <point x="469" y="7"/>
      <point x="481" y="22" type="curve"/>
      <point x="450" y="138"/>
      <point x="570" y="464"/>
      <point x="570" y="524" type="curve" smooth="yes"/>
      <point x="570" y="569"/>
      <point x="550" y="595"/>
    </contour>
    <contour>
      <point x="281" y="-16" type="curve"/>
      <point x="325" y="-12"/>
      <point x="495" y="3"/>
      <point x="567" y="8" type="curve"/>
      <point x="554" y="31" type="line"/>
      <point x="553" y="-45"/>
      <point x="580" y="-69"/>
      <point x="635" y="-69" type="curve" smooth="yes"/>
      <point x="648" y="-69"/>
      <point x="666" y="-67"/>
      <point x="678" y="-63" type="curve"/>
      <point x="669" y="-39"/>
      <point x="665" y="4"/>
      <point x="668" y="31" type="curve"/>
      <point x="635" y="43"/>
      <point x="590" y="57"/>
      <point x="580" y="57" type="curve" smooth="yes"/>
      <point x="553" y="57"/>
      <point x="332" y="34"/>
      <point x="264" y="28" type="curve"/>
      <point x="195" y="41"/>
      <point x="157" y="11"/>
      <point x="157" y="-51" type="curve" smooth="yes"/>
      <point x="157" y="-89"/>
      <point x="179" y="-104"/>
      <point x="211" y="-104" type="curve" smooth="yes"/>
      <point x="238" y="-104"/>
      <point x="260" y="-97"/>
      <point x="274" y="-90" type="curve"/>
      <point x="269" y="-68"/>
      <point x="271" y="-34"/>
    </contour>
  </outline>
</glyph>
<glyph name="uni1270" format="2">
  <advance width="722"/>
  <unicode hex="1270"/>
  <outline>
    <contour>
      <point x="235" y="360"/>
      <point x="466" y="392"/>
      <point x="575" y="403" type="curve"/>
      <point x="549" y="416" type="line"/>
      <point x="547" y="402"/>
      <point x="545" y="382"/>
      <point x="545" y="356" type="curve" smooth="yes"/>
      <point x="545" y="327"/>
      <point x="559" y="311"/>
      <point x="596" y="311" type="curve" smooth="yes"/>
      <point x="618" y="311"/>
      <point x="639" y="315"/>
      <point x="657" y="328" type="curve"/>
      <point x="646" y="344"/>
      <point x="640" y="367"/>
      <point x="639" y="393" type="curve" smooth="yes"/>
      <point x="638" y="417"/>
      <point x="640" y="446"/>
      <point x="648" y="468" type="curve"/>
      <point x="631" y="477"/>
      <point x="618" y="482"/>
      <point x="597" y="482" type="curve" smooth="yes"/>
      <point x="568" y="482"/>
      <point x="558" y="471"/>
      <point x="545" y="423" type="curve"/>
      <point x="583" y="457" type="line"/>
      <point x="480" y="440"/>
      <point x="234" y="397"/>
      <point x="151" y="387" type="curve"/>
      <point x="98" y="396"/>
      <point x="60" y="333"/>
      <point x="60" y="288" type="curve" smooth="yes"/>
      <point x="60" y="262"/>
      <point x="77" y="247"/>
      <point x="110" y="247" type="curve" smooth="yes"/>
      <point x="133" y="247"/>
      <point x="151" y="251"/>
      <point x="179" y="263" type="curve"/>
      <point x="170" y="295"/>
      <point x="169" y="341"/>
      <point x="196" y="375" type="curve"/>
      <point x="153" y="339" type="line"/>
    </contour>
    <contour>
      <point x="454" y="603" type="curve"/>
      <point x="417" y="573" type="line"/>
      <point x="467" y="575"/>
      <point x="478" y="586"/>
      <point x="478" y="604" type="curve" smooth="yes"/>
      <point x="478" y="636"/>
      <point x="416" y="657"/>
      <point x="358" y="657" type="curve" smooth="yes"/>
      <point x="330" y="657"/>
      <point x="318" y="633"/>
      <point x="324" y="615" type="curve"/>
      <point x="350" y="606"/>
      <point x="363" y="598"/>
      <point x="363" y="579" type="curve"/>
      <point x="363" y="435"/>
      <point x="248" y="61"/>
      <point x="248" y="7" type="curve" smooth="yes"/>
      <point x="248" y="-14"/>
      <point x="258" y="-29"/>
      <point x="277" y="-29" type="curve" smooth="yes"/>
      <point x="303" y="-29"/>
      <point x="319" y="-24"/>
      <point x="338" y="-18" type="curve"/>
      <point x="336" y="-8"/>
      <point x="334" y="2"/>
      <point x="334" y="17" type="curve" smooth="yes"/>
      <point x="334" y="127"/>
      <point x="410" y="373"/>
    </contour>
  </outline>
</glyph>
<glyph name="uni1271" format="2">
  <advance width="784"/>
  <unicode hex="1271"/>
  <outline>
    <contour>
      <point x="455" y="603" type="curve"/>
      <point x="418" y="573" type="line"/>
      <point x="468" y="575"/>
      <point x="479" y="586"/>
      <point x="479" y="604" type="curve" smooth="yes"/>
      <point x="479" y="636"/>
      <point x="411" y="657"/>
      <point x="355" y="657" type="curve" smooth="yes"/>
      <point x="325" y="657"/>
      <point x="312" y="631"/>
      <point x="319" y="611" type="curve"/>
      <point x="345" y="606"/>
      <point x="358" y="596"/>
      <point x="358" y="579" type="curve"/>
      <point x="358" y="455"/>
      <point x="249" y="61"/>
      <point x="249" y="7" type="curve" smooth="yes"/>
      <point x="249" y="-14"/>
      <point x="260" y="-29"/>
      <point x="296" y="-29" type="curve" smooth="yes"/>
      <point x="312" y="-29"/>
      <point x="333" y="-26"/>
      <point x="349" y="-18" type="curve"/>
      <point x="347" y="-8"/>
      <point x="345" y="2"/>
      <point x="345" y="17" type="curve" smooth="yes"/>
      <point x="345" y="127"/>
      <point x="439" y="544"/>
    </contour>
    <contour>
      <point x="591" y="404" type="curve"/>
      <point x="564" y="423" type="line"/>
      <point x="564" y="354"/>
      <point x="575" y="318"/>
      <point x="618" y="318" type="curve" smooth="yes"/>
      <point x="645" y="318"/>
      <point x="663" y="326"/>
      <point x="673" y="336" type="curve"/>
      <point x="657" y="365"/>
      <point x="651" y="430"/>
      <point x="665" y="478" type="curve"/>
      <point x="653" y="485"/>
      <point x="635" y="489"/>
      <point x="614" y="489" type="curve" smooth="yes"/>
      <point x="589" y="489"/>
      <point x="567" y="473"/>
      <point x="565" y="430" type="curve"/>
      <point x="584" y="457" type="line"/>
      <point x="481" y="440"/>
      <point x="235" y="397"/>
      <point x="152" y="387" type="curve"/>
      <point x="87" y="396"/>
      <point x="61" y="333"/>
      <point x="61" y="288" type="curve" smooth="yes"/>
      <point x="61" y="262"/>
      <point x="78" y="247"/>
      <point x="111" y="247" type="curve" smooth="yes"/>
      <point x="134" y="247"/>
      <point x="152" y="251"/>
      <point x="180" y="263" type="curve"/>
      <point x="171" y="295"/>
      <point x="170" y="341"/>
      <point x="197" y="375" type="curve"/>
      <point x="154" y="336" type="line"/>
      <point x="239" y="358"/>
      <point x="478" y="393"/>
    </contour>
    <contour>
      <point x="336" y="113" type="line"/>
      <point x="404" y="131"/>
      <point x="539" y="166"/>
      <point x="600" y="174" type="curve"/>
      <point x="589" y="197" type="line"/>
      <point x="585" y="121"/>
      <point x="612" y="97"/>
      <point x="663" y="97" type="curve" smooth="yes"/>
      <point x="676" y="97"/>
      <point x="694" y="99"/>
      <point x="706" y="103" type="curve"/>
      <point x="697" y="127"/>
      <point x="693" y="170"/>
      <point x="696" y="197" type="curve"/>
      <point x="665" y="208"/>
      <point x="622" y="226"/>
      <point x="613" y="226" type="curve" smooth="yes"/>
      <point x="577" y="226"/>
      <point x="400" y="177"/>
      <point x="335" y="160" type="curve"/>
    </contour>
  </outline>
</glyph>
<glyph name="uni1272" format="2">
  <advance width="730"/>
  <unicode hex="1272"/>
  <outline>
    <contour>
      <point x="235" y="48" type="curve" smooth="yes"/>
      <point x="235" y="14"/>
      <point x="259" y="-8"/>
      <point x="299" y="-8" type="curve" smooth="yes"/>
      <point x="332" y="-8"/>
      <point x="409" y="11"/>
      <point x="470" y="21" type="curve"/>
      <point x="472" y="-38"/>
      <point x="504" y="-64"/>
      <point x="612" y="-45" type="curve"/>
      <point x="606" y="-17"/>
      <point x="604" y="22"/>
      <point x="601" y="42" type="curve" smooth="yes"/>
      <point x="599" y="56"/>
      <point x="594" y="60"/>
      <point x="582" y="63" type="curve" smooth="yes"/>
      <point x="562" y="68"/>
      <point x="542" y="72"/>
      <point x="525" y="75" type="curve" smooth="yes"/>
      <point x="506" y="79"/>
      <point x="497" y="77"/>
      <point x="476" y="73" type="curve" smooth="yes"/>
      <point x="448" y="67"/>
      <point x="379" y="53"/>
      <point x="359" y="53" type="curve" smooth="yes"/>
      <point x="337" y="53"/>
      <point x="328" y="61"/>
      <point x="328" y="87" type="curve" smooth="yes"/>
      <point x="328" y="186"/>
      <point x="449" y="490"/>
      <point x="449" y="586" type="curve"/>
      <point x="468" y="592"/>
      <point x="479" y="602"/>
      <point x="479" y="614" type="curve" smooth="yes"/>
      <point x="479" y="636"/>
      <point x="417" y="657"/>
      <point x="359" y="657" type="curve" smooth="yes"/>
      <point x="331" y="657"/>
      <point x="319" y="633"/>
      <point x="325" y="615" type="curve"/>
      <point x="351" y="606"/>
      <point x="364" y="598"/>
      <point x="364" y="579" type="curve"/>
      <point x="364" y="434"/>
      <point x="235" y="99"/>
    </contour>
    <contour>
      <point x="242" y="362"/>
      <point x="491" y="394"/>
      <point x="608" y="406" type="curve"/>
      <point x="550" y="416" type="line"/>
      <point x="548" y="402"/>
      <point x="546" y="382"/>
      <point x="546" y="356" type="curve" smooth="yes"/>
      <point x="546" y="327"/>
      <point x="560" y="311"/>
      <point x="597" y="311" type="curve" smooth="yes"/>
      <point x="619" y="311"/>
      <point x="640" y="315"/>
      <point x="658" y="328" type="curve"/>
      <point x="647" y="344"/>
      <point x="641" y="367"/>
      <point x="640" y="393" type="curve" smooth="yes"/>
      <point x="639" y="417"/>
      <point x="641" y="446"/>
      <point x="649" y="468" type="curve"/>
      <point x="628" y="477"/>
      <point x="612" y="482"/>
      <point x="591" y="482" type="curve" smooth="yes"/>
      <point x="569" y="482"/>
      <point x="559" y="471"/>
      <point x="554" y="452" type="curve"/>
      <point x="481" y="440"/>
      <point x="235" y="398"/>
      <point x="152" y="390" type="curve"/>
      <point x="83" y="394"/>
      <point x="61" y="334"/>
      <point x="61" y="288" type="curve" smooth="yes"/>
      <point x="61" y="262"/>
      <point x="78" y="247"/>
      <point x="111" y="247" type="curve" smooth="yes"/>
      <point x="134" y="247"/>
      <point x="152" y="251"/>
      <point x="180" y="263" type="curve"/>
      <point x="166" y="295"/>
      <point x="170" y="333"/>
      <point x="197" y="375" type="curve"/>
      <point x="154" y="339" type="line"/>
    </contour>
  </outline>
</glyph>
